<?xml version="1.0" encoding="UTF-8"?>
<!-- Generator: Adobe Illustrator 19.0.1, SVG Export Plug-In . SVG Version: 6.00 Build 0)  -->
<svg version="1.1" id="Layer_1" xmlns="http://www.w3.org/2000/svg" xmlns:xlink="http://www.w3.org/1999/xlink" x="0px" y="0px" width="100px" height="100px" viewBox="0 0 100 100" enable-background="new 0 0 100 100" xml:space="preserve">
<g>
	<g enable-background="new    ">
		<linearGradient id="SVGID_1_" gradientUnits="userSpaceOnUse" x1="32.3734" y1="31.0333" x2="35.5763" y2="31.0333">
			<stop offset="0" style="stop-color:#8D3324"/>
			<stop offset="1" style="stop-color:#C7473A"/>
		</linearGradient>
		<path fill="url(#SVGID_1_)" d="M35.576,28.198v3.782c-1.382,0-2.583,0.765-3.203,1.889v-3.782    C32.993,28.96,34.194,28.198,35.576,28.198"/>
		<linearGradient id="SVGID_2_" gradientUnits="userSpaceOnUse" x1="32.0964" y1="32.2989" x2="32.3734" y2="32.2989">
			<stop offset="0" style="stop-color:#8D3324"/>
			<stop offset="1" style="stop-color:#C7473A"/>
		</linearGradient>
		<path fill="url(#SVGID_2_)" d="M32.373,30.087v3.782c-0.112,0.203-0.206,0.42-0.277,0.642v-3.781    C32.168,30.504,32.261,30.29,32.373,30.087"/>
		<linearGradient id="SVGID_3_" gradientUnits="userSpaceOnUse" x1="31.9566" y1="32.9159" x2="32.0964" y2="32.9159">
			<stop offset="0" style="stop-color:#8D3324"/>
			<stop offset="1" style="stop-color:#C7473A"/>
		</linearGradient>
		<path fill="url(#SVGID_3_)" d="M32.096,30.729v3.781c-0.06,0.192-0.11,0.389-0.14,0.592v-3.784    C31.987,31.118,32.036,30.918,32.096,30.729"/>
		<linearGradient id="SVGID_4_" gradientUnits="userSpaceOnUse" x1="31.9209" y1="33.4725" x2="31.9566" y2="33.4725">
			<stop offset="0" style="stop-color:#8D3324"/>
			<stop offset="1" style="stop-color:#C7473A"/>
		</linearGradient>
		<path fill="url(#SVGID_4_)" d="M31.957,31.319v3.784c-0.022,0.17-0.036,0.346-0.036,0.524v-3.781    C31.921,31.667,31.935,31.491,31.957,31.319"/>
	</g>
	<linearGradient id="SVGID_5_" gradientUnits="userSpaceOnUse" x1="31.9209" y1="31.6476" x2="60.5827" y2="31.6476">
		<stop offset="0" style="stop-color:#8D3324"/>
		<stop offset="1" style="stop-color:#C7473A"/>
	</linearGradient>
	<path fill="url(#SVGID_5_)" d="M33.174,27.669l0.526,1.061c-1.063,0.639-1.78,1.79-1.78,3.116v3.781   c0-2.01,1.632-3.647,3.655-3.647h25.006v-3.782L33.174,27.669z"/>
	<g enable-background="new    ">
		<linearGradient id="SVGID_6_" gradientUnits="userSpaceOnUse" x1="19.9183" y1="57.2106" x2="23.5736" y2="57.2106">
			<stop offset="0" style="stop-color:#8D3324"/>
			<stop offset="1" style="stop-color:#C7473A"/>
		</linearGradient>
		<path fill="url(#SVGID_6_)" d="M23.574,57.131v3.784c-2.024,0-3.655-1.618-3.655-3.625v-3.784    C19.918,55.513,21.55,57.131,23.574,57.131"/>
	</g>
	<linearGradient id="SVGID_7_" gradientUnits="userSpaceOnUse" x1="19.9183" y1="57.2105" x2="31.9209" y2="57.2105">
		<stop offset="0" style="stop-color:#8D3324"/>
		<stop offset="1" style="stop-color:#C7473A"/>
	</linearGradient>
	<path fill="url(#SVGID_7_)" d="M23.574,57.131c-2.024,0-3.655-1.618-3.655-3.625v3.784c0,1.918,1.494,3.464,3.392,3.599v0.026   h8.611v-3.784H23.574z"/>
	<g enable-background="new    ">
		<linearGradient id="SVGID_8_" gradientUnits="userSpaceOnUse" x1="35.143" y1="74.7978" x2="38.7957" y2="74.7978">
			<stop offset="0" style="stop-color:#8D3324"/>
			<stop offset="1" style="stop-color:#C7473A"/>
		</linearGradient>
		<path fill="url(#SVGID_8_)" d="M38.796,74.72v3.784c-2.024,0-3.653-1.64-3.653-3.628v-3.784    C35.143,73.083,36.772,74.72,38.796,74.72"/>
	</g>
	<g enable-background="new    ">
		<linearGradient id="SVGID_9_" gradientUnits="userSpaceOnUse" x1="75.7662" y1="73.2402" x2="75.8047" y2="73.2402">
			<stop offset="0" style="stop-color:#8D3324"/>
			<stop offset="1" style="stop-color:#C7473A"/>
		</linearGradient>
		<path fill="url(#SVGID_9_)" d="M75.805,71.092v3.784c0,0.175-0.011,0.346-0.038,0.513v-3.782    C75.794,71.44,75.805,71.267,75.805,71.092"/>
		<linearGradient id="SVGID_10_" gradientUnits="userSpaceOnUse" x1="75.6319" y1="73.7901" x2="75.7662" y2="73.7901">
			<stop offset="0" style="stop-color:#8D3324"/>
			<stop offset="1" style="stop-color:#C7473A"/>
		</linearGradient>
		<path fill="url(#SVGID_10_)" d="M75.766,71.607v3.782c-0.027,0.2-0.074,0.398-0.134,0.584v-3.782    C75.692,72.002,75.739,71.807,75.766,71.607"/>
		<linearGradient id="SVGID_11_" gradientUnits="userSpaceOnUse" x1="75.355" y1="74.4029" x2="75.6319" y2="74.4029">
			<stop offset="0" style="stop-color:#8D3324"/>
			<stop offset="1" style="stop-color:#C7473A"/>
		</linearGradient>
		<path fill="url(#SVGID_11_)" d="M75.632,72.191v3.782c-0.071,0.225-0.165,0.439-0.277,0.642v-3.782    C75.467,72.627,75.561,72.416,75.632,72.191"/>
		<linearGradient id="SVGID_12_" gradientUnits="userSpaceOnUse" x1="72.1713" y1="75.6684" x2="75.355" y2="75.6684">
			<stop offset="0" style="stop-color:#8D3324"/>
			<stop offset="1" style="stop-color:#C7473A"/>
		</linearGradient>
		<path fill="url(#SVGID_12_)" d="M75.355,72.833v3.782c-0.62,1.122-1.815,1.889-3.184,1.889V74.72    C73.54,74.72,74.735,73.955,75.355,72.833"/>
	</g>
	<linearGradient id="SVGID_13_" gradientUnits="userSpaceOnUse" x1="35.143" y1="74.7978" x2="75.8047" y2="74.7978">
		<stop offset="0" style="stop-color:#8D3324"/>
		<stop offset="1" style="stop-color:#C7473A"/>
	</linearGradient>
	<path fill="url(#SVGID_13_)" d="M72.237,74.713l-34.84-1.172l0.278,0.986c-1.468-0.474-2.532-1.832-2.532-3.435v3.784   c0,1.988,1.629,3.628,3.653,3.628h33.639v-0.027c1.877-0.139,3.37-1.703,3.37-3.601v-3.784   C75.805,73.06,74.208,74.677,72.237,74.713z"/>
</g>
<g>
	<linearGradient id="SVGID_14_" gradientUnits="userSpaceOnUse" x1="19.9183" y1="36.5412" x2="60.5827" y2="36.5412">
		<stop offset="0" style="stop-color:#F26533"/>
		<stop offset="0.2401" style="stop-color:#F36F34"/>
		<stop offset="0.67" style="stop-color:#F68635"/>
		<stop offset="1" style="stop-color:#F26522"/>
	</linearGradient>
	<path fill="url(#SVGID_14_)" d="M56.946,15.951c2.005,0,3.636,1.64,3.636,3.628v8.619H35.576c-2.024,0-3.655,1.637-3.655,3.647   v25.286h-8.347c-2.024,0-3.655-1.618-3.655-3.625V19.579c0-1.988,1.632-3.628,3.655-3.628H56.946z"/>
</g>
<g>
	<linearGradient id="SVGID_15_" gradientUnits="userSpaceOnUse" x1="35.143" y1="54.1297" x2="75.8047" y2="54.1297">
		<stop offset="0" style="stop-color:#F26533"/>
		<stop offset="0.2401" style="stop-color:#F36F34"/>
		<stop offset="0.67" style="stop-color:#F68635"/>
		<stop offset="1" style="stop-color:#F26522"/>
	</linearGradient>
	<path fill="url(#SVGID_15_)" d="M72.171,33.54c2.002,0,3.633,1.618,3.633,3.606v33.946c0,1.991-1.632,3.628-3.633,3.628H38.796   c-2.024,0-3.653-1.637-3.653-3.628V37.146c0-1.988,1.629-3.606,3.653-3.606H72.171z"/>
</g>
<circle fill="#FFFFFF" cx="67.475" cy="67.69" r="21.938"/>
<g>
	<g>
		<rect x="60.094" y="57.9" fill="#C33F27" width="2.732" height="1.545"/>
	</g>
	<g>
		<rect x="72.014" y="57.9" fill="#C33F27" width="2.729" height="1.545"/>
	</g>
	<g>
		<polygon fill="#C33F27" points="72.014,62.851 72.014,64.397 68.318,68.207 68.318,66.661   "/>
	</g>
	<g>
		<polygon fill="#C33F27" points="66.68,66.661 66.68,68.207 62.825,64.27 62.825,62.723   "/>
	</g>
	<g>
		<rect x="78.946" y="70.242" fill="#C33F27" width="6.329" height="1.547"/>
	</g>
	<g>
		<rect x="49.676" y="70.242" fill="#C33F27" width="6.329" height="1.547"/>
	</g>
	<g>
		<polygon fill="#C33F27" points="78.946,73.94 78.946,75.488 71.516,68.168 71.516,66.622   "/>
	</g>
	<g>
		<linearGradient id="SVGID_16_" gradientUnits="userSpaceOnUse" x1="49.6762" y1="66.665" x2="63.435" y2="66.665">
			<stop offset="0" style="stop-color:#F26533"/>
			<stop offset="0.2401" style="stop-color:#F36F34"/>
			<stop offset="0.67" style="stop-color:#F68635"/>
			<stop offset="1" style="stop-color:#F26522"/>
		</linearGradient>
		<polygon fill="url(#SVGID_16_)" points="56.005,59.39 63.435,66.702 56.005,73.94 56.005,70.242 49.676,70.242 49.676,63.081     56.005,63.081   "/>
	</g>
	<g>
		<polygon fill="#C33F27" points="63.435,66.702 63.435,68.248 56.005,75.488 56.005,73.94   "/>
	</g>
	<g>
		<linearGradient id="SVGID_17_" gradientUnits="userSpaceOnUse" x1="71.5158" y1="66.665" x2="85.2745" y2="66.665">
			<stop offset="0" style="stop-color:#F26533"/>
			<stop offset="0.2401" style="stop-color:#F36F34"/>
			<stop offset="0.67" style="stop-color:#F68635"/>
			<stop offset="1" style="stop-color:#F26522"/>
		</linearGradient>
		<polygon fill="url(#SVGID_17_)" points="78.946,59.39 78.946,63.089 85.275,63.089 85.275,70.242 78.946,70.242 78.946,73.94     71.516,66.622   "/>
	</g>
	<g>
		<polygon fill="#C33F27" points="74.743,75.934 74.743,77.48 67.379,84.855 67.03,82.967   "/>
	</g>
	<g>
		<polygon fill="#C33F27" points="67.379,83.308 67.379,84.855 60.094,77.48 60.094,75.934   "/>
	</g>
	<g>
		<linearGradient id="SVGID_18_" gradientUnits="userSpaceOnUse" x1="60.0937" y1="66.9158" x2="74.7432" y2="66.9158">
			<stop offset="0" style="stop-color:#F26533"/>
			<stop offset="0.2401" style="stop-color:#F36F34"/>
			<stop offset="0.67" style="stop-color:#F68635"/>
			<stop offset="1" style="stop-color:#F26522"/>
		</linearGradient>
		<polygon fill="url(#SVGID_18_)" points="67.459,50.524 74.743,57.9 72.014,57.9 72.014,62.851 68.318,66.661 72.014,70.576     72.014,75.934 74.743,75.934 67.379,83.308 60.094,75.934 62.825,75.934 62.825,70.632 66.68,66.661 62.825,62.723 62.825,57.9     60.094,57.9   "/>
	</g>
</g>
</svg>