<?xml version="1.0" encoding="UTF-8"?>
<!-- Generator: Adobe Illustrator 19.0.1, SVG Export Plug-In . SVG Version: 6.00 Build 0)  -->
<svg version="1.1" id="Layer_1" xmlns="http://www.w3.org/2000/svg" xmlns:xlink="http://www.w3.org/1999/xlink" x="0px" y="0px" width="100px" height="100px" viewBox="0 0 100 100" enable-background="new 0 0 100 100" xml:space="preserve">
<g>
	<g>
		<path fill="#F68635" d="M67.358,21.674c5.015,0,9.064,4.037,9.064,9.012V66.17c0,4.977-4.05,9.012-9.064,9.012H32.657    c-5.014,0-9.08-4.035-9.08-9.012V30.685c0-4.975,4.066-9.012,9.08-9.012H67.358z"/>
	</g>
	<g enable-background="new    ">
		<path fill="#9E5125" d="M76.423,66.17v3.145c0,0.438-0.033,0.869-0.092,1.291v-3.145C76.39,67.039,76.423,66.607,76.423,66.17"/>
		<path fill="#9E5125" d="M76.331,67.461v3.145c-0.074,0.5-0.188,0.986-0.337,1.457v-3.145    C76.144,68.447,76.257,67.961,76.331,67.461"/>
		<path fill="#9E5125" d="M75.994,68.918v3.145c-0.179,0.555-0.408,1.084-0.687,1.586v-3.146    C75.586,70.002,75.815,69.473,75.994,68.918"/>
		<path fill="#9E5125" d="M75.308,70.502v3.146c-1.538,2.787-4.518,4.678-7.949,4.678v-3.145    C70.79,75.182,73.77,73.291,75.308,70.502"/>
	</g>
	<g enable-background="new    ">
		<path fill="#9E5125" d="M33.032,75.182v3.145c-5.014,0-9.455-4.035-9.455-9.012V66.17c0,4.977,4.066,9.012,9.08,9.012"/>
	</g>
	<path fill="#DF5243" d="M67.358,75.182H32.657c-5.014,0-9.08-4.035-9.08-9.012v3.145c0,4.9,3.945,8.88,8.854,9v0.012h35.139v-0.011   c4.916-0.112,8.854-4.095,8.854-9.001V66.17C76.423,71.146,72.373,75.182,67.358,75.182z"/>
</g>
<circle fill="#FFFFFF" cx="67.475" cy="67.69" r="21.938"/>
<g>
	<g>
		<rect x="60.094" y="57.9" fill="#C33F27" width="2.732" height="1.545"/>
	</g>
	<g>
		<rect x="72.014" y="57.9" fill="#C33F27" width="2.729" height="1.545"/>
	</g>
	<g>
		<polygon fill="#C33F27" points="72.014,62.851 72.014,64.397 68.318,68.207 68.318,66.661   "/>
	</g>
	<g>
		<polygon fill="#C33F27" points="66.68,66.661 66.68,68.207 62.825,64.27 62.825,62.723   "/>
	</g>
	<g>
		<rect x="78.946" y="70.242" fill="#C33F27" width="6.329" height="1.547"/>
	</g>
	<g>
		<rect x="49.676" y="70.242" fill="#C33F27" width="6.329" height="1.547"/>
	</g>
	<g>
		<polygon fill="#C33F27" points="78.946,73.94 78.946,75.488 71.516,68.168 71.516,66.622   "/>
	</g>
	<g>
		<linearGradient id="SVGID_1_" gradientUnits="userSpaceOnUse" x1="49.6762" y1="66.665" x2="63.435" y2="66.665">
			<stop offset="0" style="stop-color:#F26533"/>
			<stop offset="0.2401" style="stop-color:#F36F34"/>
			<stop offset="0.67" style="stop-color:#F68635"/>
			<stop offset="1" style="stop-color:#F26522"/>
		</linearGradient>
		<polygon fill="url(#SVGID_1_)" points="56.005,59.39 63.435,66.702 56.005,73.94 56.005,70.242 49.676,70.242 49.676,63.081     56.005,63.081   "/>
	</g>
	<g>
		<polygon fill="#C33F27" points="63.435,66.702 63.435,68.248 56.005,75.488 56.005,73.94   "/>
	</g>
	<g>
		<linearGradient id="SVGID_2_" gradientUnits="userSpaceOnUse" x1="71.5158" y1="66.665" x2="85.2745" y2="66.665">
			<stop offset="0" style="stop-color:#F26533"/>
			<stop offset="0.2401" style="stop-color:#F36F34"/>
			<stop offset="0.67" style="stop-color:#F68635"/>
			<stop offset="1" style="stop-color:#F26522"/>
		</linearGradient>
		<polygon fill="url(#SVGID_2_)" points="78.946,59.39 78.946,63.089 85.275,63.089 85.275,70.242 78.946,70.242 78.946,73.94     71.516,66.622   "/>
	</g>
	<g>
		<polygon fill="#C33F27" points="74.743,75.934 74.743,77.48 67.379,84.855 67.03,82.967   "/>
	</g>
	<g>
		<polygon fill="#C33F27" points="67.379,83.308 67.379,84.855 60.094,77.48 60.094,75.934   "/>
	</g>
	<g>
		<linearGradient id="SVGID_3_" gradientUnits="userSpaceOnUse" x1="60.0937" y1="66.9158" x2="74.7432" y2="66.9158">
			<stop offset="0" style="stop-color:#F26533"/>
			<stop offset="0.2401" style="stop-color:#F36F34"/>
			<stop offset="0.67" style="stop-color:#F68635"/>
			<stop offset="1" style="stop-color:#F26522"/>
		</linearGradient>
		<polygon fill="url(#SVGID_3_)" points="67.459,50.524 74.743,57.9 72.014,57.9 72.014,62.851 68.318,66.661 72.014,70.576     72.014,75.934 74.743,75.934 67.379,83.308 60.094,75.934 62.825,75.934 62.825,70.632 66.68,66.661 62.825,62.723 62.825,57.9     60.094,57.9   "/>
	</g>
</g>
</svg>