<?xml version="1.0" encoding="utf-8"?>
<!-- Generator: Adobe Illustrator 19.1.0, SVG Export Plug-In . SVG Version: 6.00 Build 0)  -->
<!DOCTYPE svg PUBLIC "-//W3C//DTD SVG 1.1//EN" "http://www.w3.org/Graphics/SVG/1.1/DTD/svg11.dtd" [
	<!ENTITY ns_extend "http://ns.adobe.com/Extensibility/1.0/">
	<!ENTITY ns_ai "http://ns.adobe.com/AdobeIllustrator/10.0/">
	<!ENTITY ns_graphs "http://ns.adobe.com/Graphs/1.0/">
	<!ENTITY ns_vars "http://ns.adobe.com/Variables/1.0/">
	<!ENTITY ns_imrep "http://ns.adobe.com/ImageReplacement/1.0/">
	<!ENTITY ns_sfw "http://ns.adobe.com/SaveForWeb/1.0/">
	<!ENTITY ns_custom "http://ns.adobe.com/GenericCustomNamespace/1.0/">
	<!ENTITY ns_adobe_xpath "http://ns.adobe.com/XPath/1.0/">
]>
<svg version="1.1" id="Layer_2" xmlns:x="&ns_extend;" xmlns:i="&ns_ai;" xmlns:graph="&ns_graphs;"
	 xmlns="http://www.w3.org/2000/svg" xmlns:xlink="http://www.w3.org/1999/xlink" x="0px" y="0px" width="100px" height="100px" viewBox="-247 370.9 100 100"
	 style="enable-background:new -247 370.9 100 100;" xml:space="preserve">
<style type="text/css">
	.st0{fill:#4F632D;}
	.st1{fill:#779C3E;}
	.st2{fill:#3E4B2B;}
	.st3{fill:#B7CA9D;}
	.st4{fill:#FFFFFF;}
</style>
	<g i:extraneous="self">
		<g>
			<g>
				<polygon class="st0" points="-206.3,408.6 -175.5,404.1 -175.5,395.1 -206.3,402.6 				"/>
			</g>
			<g>
				<polygon class="st1" points="-167.2,421.4 -196.8,424 -196.8,411.2 -167.2,413.9 				"/>
			</g>
			<g>
				<polygon class="st0" points="-226.4,398.9 -196.8,385.6 -196.8,398.4 -226.4,406.4 				"/>
			</g>
			<g>
				<polygon class="st0" points="-226.4,421.4 -196.8,424 -196.8,411.2 -226.4,413.9 				"/>
			</g>
			<g>
				<polygon class="st1" points="-181,402.7 -196.8,398.4 -196.8,385.6 -181,392.6 				"/>
			</g>
			<g>
				<polygon class="st2" points="-226.4,406.4 -196.8,398.4 -181,402.7 -212,408 				"/>
			</g>
			<g>
				<polygon class="st1" points="-175.5,395.1 -167.2,398.9 -167.2,406.4 -175.5,404.1 				"/>
			</g>
			<g>
				<polygon class="st2" points="-196.8,409.7 -167.2,406.4 -175.5,404.1 -206.3,408.6 				"/>
			</g>
			<g>
				<polygon class="st1" points="-187.3,426.7 -218.1,431.1 -218.1,440.2 -187.3,432.7 				"/>
			</g>
			<g>
				<polygon class="st1" points="-167.2,436.5 -196.8,449.7 -196.8,436.9 -167.2,429 				"/>
			</g>
			<g>
				<polygon class="st0" points="-212.6,432.7 -196.8,436.9 -196.8,449.7 -212.6,442.6 				"/>
			</g>
			<g>
				<polygon class="st3" points="-167.2,429 -196.8,436.9 -212.6,432.7 -181.6,427.3 				"/>
			</g>
			<g>
				<polygon class="st0" points="-218.1,440.2 -226.4,436.5 -226.4,429 -218.1,431.1 				"/>
			</g>
			<g>
				<polygon class="st3" points="-196.8,425.6 -226.4,429 -218.1,431.1 -187.3,426.7 				"/>
			</g>
		</g>
		<g>
			<g>
				<circle class="st4" cx="-179.8" cy="437.4" r="21.6"/>
			</g>
			<g>
				<g>
					<path class="st1" d="M-182.6,435.3h-9c-1.2,0-2.1-0.9-2.1-2.1v-9c0-1.2,0.9-2.1,2.1-2.1h9c1.2,0,2.1,0.9,2.1,2.1v9
						C-180.5,434.3-181.5,435.3-182.6,435.3z M-191.6,424c-0.1,0-0.1,0.1-0.1,0.1v9c0,0.1,0.1,0.1,0.1,0.1h9c0.1,0,0.1-0.1,0.1-0.1
						v-9c0-0.1-0.1-0.1-0.1-0.1H-191.6z"/>
				</g>
				<g>
					<path class="st1" d="M-187.1,431.3h-0.1c-1.4,0-2.6-1.2-2.6-2.6v-0.1c0-1.4,1.2-2.6,2.6-2.6h0.1c1.4,0,2.6,1.2,2.6,2.6v0.1
						C-184.5,430.2-185.6,431.3-187.1,431.3z"/>
				</g>
			</g>
			<g>
				<g>
					<path class="st1" d="M-182.6,450.8h-9c-1.2,0-2.1-0.9-2.1-2.1v-9c0-1.2,0.9-2.1,2.1-2.1h9c1.2,0,2.1,0.9,2.1,2.1v9
						C-180.5,449.9-181.5,450.8-182.6,450.8z M-191.6,439.6c-0.1,0-0.1,0.1-0.1,0.1v9c0,0.1,0.1,0.1,0.1,0.1h9
						c0.1,0,0.1-0.1,0.1-0.1v-9c0-0.1-0.1-0.1-0.1-0.1H-191.6z"/>
				</g>
				<g>
					<path class="st1" d="M-187.1,446.9h-0.1c-1.4,0-2.6-1.2-2.6-2.6v-0.1c0-1.4,1.2-2.6,2.6-2.6h0.1c1.4,0,2.6,1.2,2.6,2.6v0.1
						C-184.5,445.7-185.6,446.9-187.1,446.9z"/>
				</g>
			</g>
			<g>
				<g>
					<path class="st1" d="M-167.1,450.8h-9c-1.2,0-2.1-0.9-2.1-2.1v-9c0-1.2,0.9-2.1,2.1-2.1h9c1.2,0,2.1,0.9,2.1,2.1v9
						C-165,449.9-165.9,450.8-167.1,450.8z M-176.1,439.6c-0.1,0-0.1,0.1-0.1,0.1v9c0,0.1,0.1,0.1,0.1,0.1h9c0.1,0,0.1-0.1,0.1-0.1
						v-9c0-0.1-0.1-0.1-0.1-0.1H-176.1z"/>
				</g>
				<g>
					<path class="st1" d="M-171.5,446.9h-0.1c-1.4,0-2.6-1.2-2.6-2.6v-0.1c0-1.4,1.2-2.6,2.6-2.6h0.1c1.4,0,2.6,1.2,2.6,2.6v0.1
						C-168.9,445.7-170.1,446.9-171.5,446.9z"/>
				</g>
			</g>
			<g>
				<circle class="st1" cx="-171.6" cy="428.6" r="5.5"/>
			</g>
			<g>
				<g>
					<path class="st0" d="M-182.6,435.3h-9c-1.2,0-2.1-0.9-2.1-2.1v1c0,1.2,0.9,2.1,2.1,2.1h9c1.2,0,2.1-0.9,2.1-2.1v-1
						C-180.5,434.3-181.5,435.3-182.6,435.3z"/>
				</g>
				<g>
					<path class="st0" d="M-182.6,450.8h-9c-1.2,0-2.1-0.9-2.1-2.1v1c0,1.2,0.9,2.1,2.1,2.1h9c1.2,0,2.1-0.9,2.1-2.1v-1
						C-180.5,449.9-181.5,450.8-182.6,450.8z"/>
				</g>
				<g>
					<path class="st0" d="M-167.1,450.8h-9c-1.2,0-2.1-0.9-2.1-2.1v1c0,1.2,0.9,2.1,2.1,2.1h9c1.2,0,2.1-0.9,2.1-2.1v-1
						C-165,449.9-165.9,450.8-167.1,450.8z"/>
				</g>
				<g>
					<path class="st0" d="M-171.6,435.1c3.1,0,5.5-2.5,5.5-5.5c0-0.2,0-0.3,0-0.5c-0.2,2.8-2.6,5-5.5,5c-2.9,0-5.3-2.2-5.5-5
						c0,0.2,0,0.3,0,0.5C-177.2,432.7-174.7,435.1-171.6,435.1z"/>
				</g>
			</g>
		</g>
	</g>
</svg>
