<?xml version="1.0" encoding="utf-8"?>
<!-- Generator: Adobe Illustrator 19.1.0, SVG Export Plug-In . SVG Version: 6.00 Build 0)  -->
<svg version="1.1" id="Layer_1" xmlns="http://www.w3.org/2000/svg" xmlns:xlink="http://www.w3.org/1999/xlink" x="0px" y="0px"
	 width="100px" height="100px" viewBox="0 0 612 792" enable-background="new 0 0 612 792" xml:space="preserve">
<g id="nyt_x5F_exporter_x5F_info" display="none">
</g>
<g>
	<g id="Amazon_CloudSearch">
		<g>
			<polygon fill="#759C3E" points="363.5,498.2 175,549 175,241.2 363.5,292.6 			"/>
			<polygon fill="#4B612C" points="175,550.2 123.6,524.5 123.6,266.9 175,241.2 			"/>
			<polygon fill="#759C3E" points="488.4,331.7 306,285.8 306,175.7 488.4,266.9 			"/>
			<polygon fill="#759C3E" points="488.4,427.8 306,450.5 306,340.3 488.4,363.6 			"/>
			<polygon fill="#759C3E" points="488.4,525.1 306,616.3 306,506.2 488.4,460.3 			"/>
			<polygon fill="#4B612C" points="208.7,224 306,175.7 306,285.8 208.7,310.3 			"/>
			<polygon fill="#4B612C" points="208.7,567.4 306,615.7 306,506.2 208.7,481.7 			"/>
			<polygon fill="#4B612C" points="208.7,352.5 306,340.3 306,450.5 208.7,438.8 			"/>
			<polygon fill="#3C4929" points="488.4,331.7 399.6,340.9 208.7,310.3 306,285.8 			"/>
			<polygon fill="#B7CA9D" points="488.4,460.3 399.6,451.1 208.7,481.7 306,506.2 			"/>
		</g>
	</g>
	<g>
		<path fill="#FFFFFF" d="M397.2,396.7c-60.4,0-109.5,49.1-109.5,109.5c0,60.4,49.1,109.5,109.5,109.5
			c60.4,0,109.5-49.1,109.5-109.5C506.7,445.8,457.6,396.7,397.2,396.7z"/>
		<path fill="#3C4929" d="M397.2,386.7c-65.9,0-119.5,53.6-119.5,119.5c0,65.9,53.6,119.5,119.5,119.5
			c65.9,0,119.5-53.6,119.5-119.5C516.7,440.3,463.1,386.7,397.2,386.7z M397.2,615.7c-60.4,0-109.5-49.1-109.5-109.5
			c0-60.4,49.1-109.5,109.5-109.5c60.4,0,109.5,49.1,109.5,109.5C506.7,566.5,457.6,615.7,397.2,615.7z"/>
	</g>
	<g id="Layer_1_13_">
		<g>
			<g>
				<g enable-background="new    ">
					<g>
						<rect x="343.9" y="562.9" fill="#3C4929" width="106.6" height="5.2"/>
					</g>
				</g>
			</g>
			<path fill="#759C3E" d="M343.9,444.2v118.8h106.6V444.2H343.9z M379.4,546.8h-19.8v-19.7h19.8V546.8z M379.4,514.7h-19.8v-17.3
				h19.8V514.7z M379.4,485.2h-19.8v-19.7h19.8V485.2z M434,539.4h-47.1v-4.9H434V539.4z M434,509.8h-47.1v-4.9H434V509.8z
				 M434,477.8h-47.1v-4.9H434V477.8z"/>
		</g>
	</g>
</g>
</svg>
