<?xml version="1.0" encoding="utf-8"?>
<!-- Generator: Adobe Illustrator 20.0.0, SVG Export Plug-In . SVG Version: 6.00 Build 0)  -->
<svg version="1.1" id="Layer_1" xmlns="http://www.w3.org/2000/svg" xmlns:xlink="http://www.w3.org/1999/xlink" x="0px" y="0px"
      width="100px" height="100px" viewBox="0 0 100 100" style="enable-background:new 0 0 100 100;" xml:space="preserve">
<style type="text/css">
  .st0{fill:#B7CA9D;}
  .st1{fill:#769C3E;}
  .st2{fill:#4D622C;}
  .st3{fill:#3D4A2A;}
</style>
<polygon class="st0" points="31.4,59.5 26.9,58.7 18.9,59.4 23.3,69.7 "/>
<polygon class="st1" points="23,60.3 31.4,59.5 31.4,72 23,73.8 "/>
<polygon class="st0" points="37.8,64.7 31.4,63.2 23,64.3 29,77 "/>
<polygon class="st1" points="23,43.1 31.4,43.7 31.4,56.3 23,56.8 19.8,48.9 "/>
<polygon class="st2" points="18.9,43.7 18.9,56.3 23,56.8 23,43.1 "/>
<polygon class="st3" points="27,41.3 31.4,40.6 23,28.8 18.9,40.6 "/>
<polygon class="st1" points="23,26 31.4,28 31.4,40.6 23,39.7 "/>
<polygon class="st3" points="31.4,36.8 37.8,35.3 29,23 23,35.6 "/>
<polygon class="st1" points="29,23 37.8,25.5 37.8,35.3 29,33.8 "/>
<polygon class="st1" points="29,66.1 37.8,64.7 37.8,74.5 29,77 "/>
<polygon class="st3" points="81,40.6 72.9,41.3 62.2,39.5 71,23 "/>
<polygon class="st2" points="23,64.3 23,60.3 18.9,59.4 18.9,72 29,77 29,66.1 "/>
<polygon class="st0" points="81,59.4 73,58.7 62.2,60.5 71,77 "/>
<polygon class="st2" points="71,23 62.2,25.4 62.2,39.5 71,38.4 "/>
<polygon class="st2" points="71,42.3 62.2,42.9 62.2,57 71,57.7 80.3,50 "/>
<polygon class="st2" points="71,61.6 62.2,60.5 62.2,74.6 71,77 "/>
<polygon class="st3" points="40.8,22.1 32,32.9 40.9,34.6 50,32.5 "/>
<polygon class="st3" points="68,37.8 59,38.9 40.8,35.9 50,12.5 "/>
<polygon class="st2" points="50,60.7 66.6,50.4 50,39.3 40.8,40.6 40.8,59.4 "/>
<polygon class="st1" points="50,39.3 50,60.7 68,58.1 68,41.9 "/>
<polygon class="st0" points="68,62.2 59,61.1 40.8,64.1 50,87.5 "/>
<polygon class="st0" points="49.9,67.5 41,65.4 32,67.1 42.8,75.8 "/>
<polygon class="st2" points="32,67 32,78.5 50,87.5 50,66.1 40.8,64.1 40.8,69.7 "/>
<polygon class="st1" points="50,66.1 50,87.5 68,78.5 68,62.2 "/>
<polygon class="st1" points="81.1,56.3 81.1,43.7 71,42.3 71,57.7 "/>
<polygon class="st1" points="81.1,72 81.1,59.4 71,61.6 71,77 "/>
<polygon class="st2" points="29,33.8 29,23 18.9,28 18.9,40.6 23,39.7 23,35.6 "/>
<polygon class="st1" points="50,12.5 50,33.9 68,37.8 68,21.5 "/>
<polygon class="st2" points="40.8,30.3 40.8,35.9 50,33.9 50,12.5 32,21.5 32,32.9 "/>
<polygon class="st1" points="81.1,40.6 81.1,28 71,23 71,38.4 "/>
</svg>

