<?xml version="1.0" encoding="utf-8"?>
<!-- Generator: Adobe Illustrator 19.1.0, SVG Export Plug-In . SVG Version: 6.00 Build 0)  -->
<!DOCTYPE svg PUBLIC "-//W3C//DTD SVG 1.1//EN" "http://www.w3.org/Graphics/SVG/1.1/DTD/svg11.dtd" [
	<!ENTITY ns_extend "http://ns.adobe.com/Extensibility/1.0/">
	<!ENTITY ns_ai "http://ns.adobe.com/AdobeIllustrator/10.0/">
	<!ENTITY ns_graphs "http://ns.adobe.com/Graphs/1.0/">
	<!ENTITY ns_vars "http://ns.adobe.com/Variables/1.0/">
	<!ENTITY ns_imrep "http://ns.adobe.com/ImageReplacement/1.0/">
	<!ENTITY ns_sfw "http://ns.adobe.com/SaveForWeb/1.0/">
	<!ENTITY ns_custom "http://ns.adobe.com/GenericCustomNamespace/1.0/">
	<!ENTITY ns_adobe_xpath "http://ns.adobe.com/XPath/1.0/">
]>
<svg version="1.1" id="Layer_2" xmlns:x="&ns_extend;" xmlns:i="&ns_ai;" xmlns:graph="&ns_graphs;"
	 xmlns="http://www.w3.org/2000/svg" xmlns:xlink="http://www.w3.org/1999/xlink" x="0px" y="0px" width="100px" height="100px" viewBox="-247 370.9 100 100"
	 style="enable-background:new -247 370.9 100 100;" xml:space="preserve">
<style type="text/css">
	.st0{fill:#4F632D;}
	.st1{fill:#779C3E;}
	.st2{fill:#3E4B2B;}
	.st3{fill:#B7CA9D;}
	.st4{fill:#FFFFFF;}
</style>
	<g i:extraneous="self">
		<g>
			<g>
				<polygon class="st0" points="-206.3,408.6 -175.5,404.1 -175.5,395.1 -206.3,402.6 				"/>
			</g>
			<g>
				<polygon class="st1" points="-167.2,421.4 -196.8,424 -196.8,411.2 -167.2,413.9 				"/>
			</g>
			<g>
				<polygon class="st0" points="-226.4,398.9 -196.8,385.6 -196.8,398.4 -226.4,406.4 				"/>
			</g>
			<g>
				<polygon class="st0" points="-226.4,421.4 -196.8,424 -196.8,411.2 -226.4,413.9 				"/>
			</g>
			<g>
				<polygon class="st1" points="-181,402.7 -196.8,398.4 -196.8,385.6 -181,392.6 				"/>
			</g>
			<g>
				<polygon class="st2" points="-226.4,406.4 -196.8,398.4 -181,402.7 -212,408 				"/>
			</g>
			<g>
				<polygon class="st1" points="-175.5,395.1 -167.2,398.9 -167.2,406.4 -175.5,404.1 				"/>
			</g>
			<g>
				<polygon class="st2" points="-196.8,409.7 -167.2,406.4 -175.5,404.1 -206.3,408.6 				"/>
			</g>
			<g>
				<polygon class="st1" points="-187.3,426.7 -218.1,431.1 -218.1,440.2 -187.3,432.7 				"/>
			</g>
			<g>
				<polygon class="st1" points="-167.2,436.5 -196.8,449.7 -196.8,436.9 -167.2,429 				"/>
			</g>
			<g>
				<polygon class="st0" points="-212.6,432.7 -196.8,436.9 -196.8,449.7 -212.6,442.6 				"/>
			</g>
			<g>
				<polygon class="st3" points="-167.2,429 -196.8,436.9 -212.6,432.7 -181.6,427.3 				"/>
			</g>
			<g>
				<polygon class="st0" points="-218.1,440.2 -226.4,436.5 -226.4,429 -218.1,431.1 				"/>
			</g>
			<g>
				<polygon class="st3" points="-196.8,425.6 -226.4,429 -218.1,431.1 -187.3,426.7 				"/>
			</g>
		</g>
		<g>
			<g>
				<circle class="st4" cx="-179.9" cy="437.2" r="21.7"/>
			</g>
			<g>
				<g>
					<polygon class="st1" points="-187.8,449.6 -198.6,438.9 -187.8,428.1 -185.7,430.2 -194.4,438.9 -185.7,447.5 					"/>
				</g>
				<g>
					<polygon class="st1" points="-171.7,449.6 -173.8,447.5 -165.1,438.9 -173.8,430.2 -171.7,428.1 -160.9,438.9 					"/>
				</g>
				<g>
					<polygon class="st1" points="-179.8,446.2 -187.8,438.2 -185.7,436.1 -179.8,442 -173.8,436.1 -171.7,438.2 					"/>
				</g>
				<g>
					<rect x="-181.4" y="420.9" class="st1" width="3" height="21.8"/>
				</g>
			</g>
		</g>
	</g>
</svg>
