<?xml version="1.0" encoding="utf-8"?>
<!-- Generator: Adobe Illustrator 19.1.0, SVG Export Plug-In . SVG Version: 6.00 Build 0)  -->
<!DOCTYPE svg PUBLIC "-//W3C//DTD SVG 1.1//EN" "http://www.w3.org/Graphics/SVG/1.1/DTD/svg11.dtd" [
	<!ENTITY ns_extend "http://ns.adobe.com/Extensibility/1.0/">
	<!ENTITY ns_ai "http://ns.adobe.com/AdobeIllustrator/10.0/">
	<!ENTITY ns_graphs "http://ns.adobe.com/Graphs/1.0/">
	<!ENTITY ns_vars "http://ns.adobe.com/Variables/1.0/">
	<!ENTITY ns_imrep "http://ns.adobe.com/ImageReplacement/1.0/">
	<!ENTITY ns_sfw "http://ns.adobe.com/SaveForWeb/1.0/">
	<!ENTITY ns_custom "http://ns.adobe.com/GenericCustomNamespace/1.0/">
	<!ENTITY ns_adobe_xpath "http://ns.adobe.com/XPath/1.0/">
]>
<svg version="1.1" id="Layer_3" xmlns:x="&ns_extend;" xmlns:i="&ns_ai;" xmlns:graph="&ns_graphs;"
	 xmlns="http://www.w3.org/2000/svg" xmlns:xlink="http://www.w3.org/1999/xlink" x="0px" y="0px" width="100px" height="100px" viewBox="-247 370.9 100 100"
	 style="enable-background:new -247 370.9 100 100;" xml:space="preserve">
<style type="text/css">
	.st0{fill:#789B40;}
	.st1{fill:#4F632D;}
	.st2{fill:#3C472B;}
	.st3{fill:#BBCA9F;}
	.st4{fill:#FFFFFF;}
	.st5{fill:#769B3F;}
	.st6{fill:#4C612C;}
</style>
	<g i:extraneous="self">
		<g>
			<g>
				<polygon class="st0" points="-202.4,407.8 -217.6,405.6 -217.5,395.6 -202.4,397.7 				"/>
			</g>
			<g>
				<polygon class="st1" points="-175.4,405.7 -190.7,407.9 -190.7,397.8 -175.5,395.7 				"/>
			</g>
			<g>
				<polygon class="st1" points="-225.9,427.3 -225.9,441 -196.4,455.4 -196.5,432.1 				"/>
			</g>
			<g>
				<polygon class="st0" points="-196.5,432.1 -196.4,455.4 -167.4,441.1 -167.3,427.3 				"/>
			</g>
			<g>
				<path class="st1" d="M-225.9,419.9c0.4,0,29.4,0,29.4,0l0.1-11.3l-29.5,4.9L-225.9,419.9z"/>
			</g>
			<g>
				<polygon class="st0" points="-196.5,408.6 -196.4,420 -167.3,420 -167.3,413.5 				"/>
			</g>
			<g>
				<polygon class="st0" points="-196.5,385.6 -196.6,399.3 -182.2,403.5 -182.2,392.2 				"/>
			</g>
			<g>
				<polygon class="st0" points="-175.5,395.7 -175.5,405.6 -167.2,408 -167.4,399.7 				"/>
			</g>
			<g>
				<polygon class="st1" points="-211.2,392.4 -196.5,385.5 -196.5,399.3 -211.2,403.5 				"/>
			</g>
			<g>
				<polygon class="st1" points="-217.5,395.5 -217.5,405.5 -225.9,408 -225.9,399.7 				"/>
			</g>
			<g>
				<path class="st2" d="M-211.2,403.4c0.2,0,14.7-4.2,14.7-4.2l14.1,4.1l-14.2,2.2L-211.2,403.4z"/>
			</g>
			<g>
				<path class="st3" d="M-225.9,427.3c0.2-0.1,28.8-1.9,29.2-1.9s29.3,1.9,29.3,1.9l-29.1,4.7L-225.9,427.3z"/>
			</g>
			<g>
				<polygon class="st2" points="-225.9,408 -217.5,405.5 -202.5,407.8 -213.1,409.4 				"/>
			</g>
			<g>
				<polygon class="st2" points="-167.3,408 -175.5,405.6 -190.7,407.9 -180.1,409.5 				"/>
			</g>
		</g>
		<g>
			<g>
				<circle class="st4" cx="-179.4" cy="437.7" r="21.5"/>
			</g>
			<g>
				<g>
					<rect x="-179.2" y="429.2" class="st5" width="16.7" height="3.7"/>
				</g>
				<g>
					<rect x="-179.2" y="442.5" class="st5" width="16.7" height="3.7"/>
				</g>
				<g>
					<rect x="-179.2" y="435.7" class="st5" width="16.7" height="3.7"/>
				</g>
			</g>
			<g>
				<g>
					<rect x="-184.3" y="429.3" class="st5" width="3.7" height="16.7"/>
				</g>
				<g>
					<rect x="-197.6" y="429.3" class="st5" width="3.7" height="16.7"/>
				</g>
				<g>
					<rect x="-190.8" y="429.3" class="st5" width="3.7" height="16.7"/>
				</g>
			</g>
			<g>
				<g>
					<g>
						<g>
							<rect x="-179.2" y="445.5" class="st6" width="16.7" height="1"/>
						</g>
					</g>
				</g>
				<g>
					<g>
						<g>
							<rect x="-179.2" y="438.8" class="st6" width="16.7" height="1"/>
						</g>
					</g>
				</g>
				<g>
					<g>
						<g>
							<rect x="-179.2" y="432.3" class="st6" width="16.7" height="1"/>
						</g>
					</g>
				</g>
				<g>
					<g>
						<g>
							<rect x="-184.3" y="445.5" class="st6" width="3.7" height="1"/>
						</g>
					</g>
				</g>
				<g>
					<g>
						<g>
							<rect x="-190.8" y="445.5" class="st6" width="3.7" height="1"/>
						</g>
					</g>
				</g>
				<g>
					<g>
						<g>
							<rect x="-197.6" y="445.5" class="st6" width="3.7" height="1"/>
						</g>
					</g>
				</g>
			</g>
		</g>
	</g>
</svg>
