<?xml version="1.0" encoding="utf-8"?>
<!-- Generator: Adobe Illustrator 19.1.0, SVG Export Plug-In . SVG Version: 6.00 Build 0)  -->
<!DOCTYPE svg PUBLIC "-//W3C//DTD SVG 1.1//EN" "http://www.w3.org/Graphics/SVG/1.1/DTD/svg11.dtd" [
	<!ENTITY ns_extend "http://ns.adobe.com/Extensibility/1.0/">
	<!ENTITY ns_ai "http://ns.adobe.com/AdobeIllustrator/10.0/">
	<!ENTITY ns_graphs "http://ns.adobe.com/Graphs/1.0/">
	<!ENTITY ns_vars "http://ns.adobe.com/Variables/1.0/">
	<!ENTITY ns_imrep "http://ns.adobe.com/ImageReplacement/1.0/">
	<!ENTITY ns_sfw "http://ns.adobe.com/SaveForWeb/1.0/">
	<!ENTITY ns_custom "http://ns.adobe.com/GenericCustomNamespace/1.0/">
	<!ENTITY ns_adobe_xpath "http://ns.adobe.com/XPath/1.0/">
]>
<svg version="1.1" id="Layer_3" xmlns:x="&ns_extend;" xmlns:i="&ns_ai;" xmlns:graph="&ns_graphs;"
	 xmlns="http://www.w3.org/2000/svg" xmlns:xlink="http://www.w3.org/1999/xlink" x="0px" y="0px" width="100px" height="100px" viewBox="-247 370.9 100 100"
	 style="enable-background:new -247 370.9 100 100;" xml:space="preserve">
<style type="text/css">
	.st0{fill:#789B40;}
	.st1{fill:#4F632D;}
	.st2{fill:#3C472B;}
	.st3{fill:#BBCA9F;}
	.st4{fill:#FFFFFF;}
</style>
	<g i:extraneous="self">
		<g>
			<g>
				<polygon class="st0" points="-202.4,407.8 -217.6,405.6 -217.5,395.6 -202.4,397.7 				"/>
			</g>
			<g>
				<polygon class="st1" points="-175.4,405.7 -190.7,407.9 -190.7,397.8 -175.5,395.7 				"/>
			</g>
			<g>
				<polygon class="st1" points="-225.9,427.3 -225.9,441 -196.4,455.4 -196.5,432.1 				"/>
			</g>
			<g>
				<polygon class="st0" points="-196.5,432.1 -196.4,455.4 -167.4,441.1 -167.3,427.3 				"/>
			</g>
			<g>
				<path class="st1" d="M-225.9,419.9c0.4,0,29.4,0,29.4,0l0.1-11.3l-29.5,4.9L-225.9,419.9z"/>
			</g>
			<g>
				<polygon class="st0" points="-196.5,408.6 -196.4,420 -167.3,420 -167.3,413.5 				"/>
			</g>
			<g>
				<polygon class="st0" points="-196.5,385.6 -196.6,399.3 -182.2,403.5 -182.2,392.2 				"/>
			</g>
			<g>
				<polygon class="st0" points="-175.5,395.7 -175.5,405.6 -167.2,408 -167.4,399.7 				"/>
			</g>
			<g>
				<polygon class="st1" points="-211.2,392.4 -196.5,385.5 -196.5,399.3 -211.2,403.5 				"/>
			</g>
			<g>
				<polygon class="st1" points="-217.5,395.5 -217.5,405.5 -225.9,408 -225.9,399.7 				"/>
			</g>
			<g>
				<path class="st2" d="M-211.2,403.4c0.2,0,14.7-4.2,14.7-4.2l14.1,4.1l-14.2,2.2L-211.2,403.4z"/>
			</g>
			<g>
				<path class="st3" d="M-225.9,427.3c0.2-0.1,28.8-1.9,29.2-1.9s29.3,1.9,29.3,1.9l-29.1,4.7L-225.9,427.3z"/>
			</g>
			<g>
				<polygon class="st2" points="-225.9,408 -217.5,405.5 -202.5,407.8 -213.1,409.4 				"/>
			</g>
			<g>
				<polygon class="st2" points="-167.3,408 -175.5,405.6 -190.7,407.9 -180.1,409.5 				"/>
			</g>
		</g>
		<g>
			<g>
				<g>
					<circle class="st4" cx="-179.7" cy="437.4" r="21.7"/>
				</g>
			</g>
			<g>
				<circle class="st0" cx="-166.8" cy="437.9" r="5.8"/>
			</g>
			<g>
				<path class="st1" d="M-192.6,433.3c0.7,0,1.3,0.2,1.7,0.5s0.6,0.9,0.6,1.5c0,0.5-0.1,0.9-0.3,1.2s-0.6,0.6-1,0.7v0
					c0.2,0,0.4,0.1,0.6,0.2c0.1,0.1,0.3,0.2,0.3,0.4c0.1,0.1,0.1,0.3,0.2,0.5c0,0.2,0.1,0.4,0.1,0.5c0,0.2,0,0.4,0,0.6
					s0,0.4,0.1,0.6c0,0.2,0.1,0.4,0.1,0.5c0.1,0.2,0.1,0.3,0.2,0.5h-1.2c-0.1-0.1-0.1-0.2-0.1-0.3c0-0.1,0-0.3,0-0.5
					c0-0.2,0-0.4,0-0.6c0-0.2,0-0.4-0.1-0.6c0-0.2-0.1-0.4-0.1-0.5s-0.1-0.3-0.2-0.4c-0.1-0.1-0.2-0.2-0.4-0.3
					c-0.2-0.1-0.4-0.1-0.6-0.1h-2.5v3.3h-1v-7.8L-192.6,433.3L-192.6,433.3z M-192.4,436.8c0.2,0,0.4-0.1,0.6-0.2
					c0.2-0.1,0.3-0.2,0.4-0.4c0.1-0.2,0.1-0.4,0.1-0.7c0-0.4-0.1-0.7-0.3-1s-0.6-0.4-1.1-0.4h-2.6v2.7h2.2
					C-192.8,436.9-192.6,436.9-192.4,436.8z"/>
				<path class="st1" d="M-183.4,433.3v0.9h-4.3v2.5h4v0.9h-4v2.7h4.4v0.9h-5.4v-7.8C-188.8,433.3-183.4,433.3-183.4,433.3z"/>
				<path class="st1" d="M-177.4,434.4c-0.4-0.3-0.9-0.4-1.4-0.4c-0.5,0-0.9,0.1-1.2,0.3c-0.3,0.2-0.6,0.4-0.8,0.7
					c-0.2,0.3-0.4,0.6-0.5,1c-0.1,0.4-0.2,0.8-0.2,1.2c0,0.4,0.1,0.9,0.2,1.3s0.3,0.7,0.5,1c0.2,0.3,0.5,0.5,0.8,0.7
					c0.3,0.2,0.7,0.3,1.2,0.3c0.3,0,0.6-0.1,0.9-0.2c0.3-0.1,0.5-0.3,0.7-0.5c0.2-0.2,0.3-0.4,0.5-0.7c0.1-0.3,0.2-0.6,0.2-0.9h1
					c-0.1,1-0.4,1.7-1,2.3c-0.6,0.5-1.4,0.8-2.4,0.8c-0.6,0-1.1-0.1-1.6-0.3c-0.5-0.2-0.8-0.5-1.1-0.9s-0.5-0.8-0.7-1.3
					c-0.1-0.5-0.2-1-0.2-1.6s0.1-1.1,0.2-1.6c0.2-0.5,0.4-0.9,0.7-1.3c0.3-0.4,0.7-0.7,1.2-0.9c0.5-0.2,1-0.3,1.6-0.3
					c0.4,0,0.8,0.1,1.2,0.2c0.4,0.1,0.7,0.3,1,0.5c0.3,0.2,0.5,0.5,0.7,0.8c0.2,0.3,0.3,0.7,0.4,1.1h-1
					C-176.8,435.1-177,434.7-177.4,434.4z"/>
			</g>
		</g>
	</g>
</svg>
