<?xml version="1.0" encoding="utf-8"?>
<!-- Generator: Adobe Illustrator 19.1.0, SVG Export Plug-In . SVG Version: 6.00 Build 0)  -->
<!DOCTYPE svg PUBLIC "-//W3C//DTD SVG 1.1//EN" "http://www.w3.org/Graphics/SVG/1.1/DTD/svg11.dtd" [
	<!ENTITY ns_extend "http://ns.adobe.com/Extensibility/1.0/">
	<!ENTITY ns_ai "http://ns.adobe.com/AdobeIllustrator/10.0/">
	<!ENTITY ns_graphs "http://ns.adobe.com/Graphs/1.0/">
	<!ENTITY ns_vars "http://ns.adobe.com/Variables/1.0/">
	<!ENTITY ns_imrep "http://ns.adobe.com/ImageReplacement/1.0/">
	<!ENTITY ns_sfw "http://ns.adobe.com/SaveForWeb/1.0/">
	<!ENTITY ns_custom "http://ns.adobe.com/GenericCustomNamespace/1.0/">
	<!ENTITY ns_adobe_xpath "http://ns.adobe.com/XPath/1.0/">
]>
<svg version="1.1" id="Layer_3" xmlns:x="&ns_extend;" xmlns:i="&ns_ai;" xmlns:graph="&ns_graphs;"
	 xmlns="http://www.w3.org/2000/svg" xmlns:xlink="http://www.w3.org/1999/xlink" x="0px" y="0px" width="100px" height="100px" viewBox="-247 370.9 100 100"
	 style="enable-background:new -247 370.9 100 100;" xml:space="preserve">
<style type="text/css">
	.st0{fill:#779C3E;}
	.st1{fill:#526731;}
	.st2{fill:#BBCA9F;}
	.st3{fill:#FFFFFF;}
	.st4{fill:#4F632D;}
</style>
	<g i:extraneous="self">
		<g>
			<polygon class="st0" points="-203.1,422.4 -211.2,422.4 -211.2,390.8 -210.4,389.6 -203.4,392 			"/>
			<polygon class="st0" points="-215.2,422.4 -221.1,422.4 -221.1,394.8 -220.7,394.6 -215.6,395.9 			"/>
			<polygon class="st0" points="-196.6,382.8 -167.2,397.4 -167.3,422.2 -196.6,422.4 			"/>
			<polygon class="st0" points="-196.6,439.5 -196.7,453.5 -167.3,439 -167.2,430.7 			"/>
			<polygon class="st1" points="-226.3,430.8 -196.5,439.5 -196.7,453.5 -226.3,438.9 			"/>
			<polygon class="st1" points="-210.3,422.4 -216.7,422.4 -216.7,392.6 -210.3,389.5 			"/>
			<polygon class="st1" points="-183.6,422.3 -189.9,422.3 -189.9,412.9 -183.6,413.4 			"/>
			<polygon class="st1" points="-171,422.2 -176.7,422.2 -176.7,414 -171,414.5 			"/>
			<polygon class="st1" points="-220.6,422.4 -226.2,422.4 -226.2,397.3 -220.6,394.5 			"/>
			<polygon class="st1" points="-196.6,422.4 -204.2,422.4 -204.2,386.5 -196.6,382.8 			"/>
			<polygon class="st2" points="-226.4,430.8 -196.9,426.6 -167.5,430.8 -196.6,439.5 			"/>
		</g>
		<g>
			<circle class="st3" cx="-179.8" cy="437.3" r="21.7"/>
			<g>
				<g>
					<path class="st4" d="M-166.2,446.5H-188c-0.7,0-1.2-0.5-1.2-1.2v2.7c0,0.1,0,0.2,0.1,0.4c0.1,0.3,0.4,0.6,0.7,0.7
						c0.1,0.1,0.3,0.1,0.5,0.1h21.8c0.7,0,1.2-0.5,1.2-1.8v-2.1C-165,446.6-165.5,446.5-166.2,446.5z"/>
				</g>
				<path class="st0" d="M-166.2,433.8h-2.9h-11.3v-1.4c0-0.6-0.4-1-1-1h-6.8c-0.6,0-1,0.4-1,1v2.6v1.5v3.9v2.7v0.1v3.4
					c0,0.7,0.5,1.2,1.2,1.2h21.8c0.7,0,1.2,0.1,1.2-1.2V435C-165,434.3-165.5,433.8-166.2,433.8z"/>
				<g>
					<path class="st0" d="M-169.1,428.6c0-0.7-0.5-1.2-1.2-1.2h-2.9h-11.2V426c0-0.6-0.4-1-1-1h-6.8c-0.6,0-1,0.4-1,1v2.6v1.5v3.9
						v2.6v0.1v4h1.6v-4.2V435v-2.6c0-0.9,0.3-1.7,0.9-2.3c0.6-0.7,1.6-1.2,2.6-1.2h3.6h3.2c1.5,0,2.9,1,3.3,2.4h8.9L-169.1,428.6z"
						/>
					<path class="st0" d="M-188.5,441.3h18.2c0.6,0,1,0,1.1-0.8h-19.3V441.3z"/>
				</g>
				<path class="st4" d="M-193.2,439.2v1.5c0,0.7,0.5,1.2,1.2,1.2h0.4v-0.2v-1.4h-0.4C-192.7,440.4-193.2,439.9-193.2,439.2z"/>
			</g>
		</g>
	</g>
</svg>
