<?xml version="1.0" encoding="UTF-8"?>
<!-- Generator: Adobe Illustrator 19.0.1, SVG Export Plug-In . SVG Version: 6.00 Build 0)  -->
<svg version="1.1" id="Layer_1" xmlns="http://www.w3.org/2000/svg" xmlns:xlink="http://www.w3.org/1999/xlink" x="0px" y="0px" width="100px" height="100px" viewBox="0 0 100 100" enable-background="new 0 0 100 100" xml:space="preserve">
<polygon fill="#F68635" points="59.49,55.015 28.627,57.502 28.627,75.312 59.49,66.936 "/>
<polygon fill="#F68635" points="43.553,49.979 28.512,49.979 28.512,24.703 43.553,28.771 "/>
<polygon fill="#F26522" points="44.025,33.132 55.795,30.13 75.975,36.184 65.173,37.704 "/>
<polygon fill="#F68635" points="75.975,26.986 58.881,18.44 49.961,13.979 49.961,28.381 49.961,49.979 58.881,49.979   58.881,31.057 75.975,36.184 75.975,49.979 79.783,49.979 79.783,37.326 79.783,28.891 "/>
<linearGradient id="SVGID_1_" gradientUnits="userSpaceOnUse" x1="34.0859" y1="31.9795" x2="49.9609" y2="31.9795">
	<stop offset="0" style="stop-color:#F26533"/>
	<stop offset="0.2401" style="stop-color:#F36F34"/>
	<stop offset="0.67" style="stop-color:#F68635"/>
	<stop offset="1" style="stop-color:#F26522"/>
</linearGradient>
<polygon fill="url(#SVGID_1_)" points="34.086,49.979 49.961,49.979 49.961,13.979 34.086,21.916 "/>
<linearGradient id="SVGID_2_" gradientUnits="userSpaceOnUse" x1="20.2168" y1="37.3814" x2="28.5117" y2="37.3814">
	<stop offset="0" style="stop-color:#F26533"/>
	<stop offset="0.2401" style="stop-color:#F36F34"/>
	<stop offset="0.67" style="stop-color:#F68635"/>
	<stop offset="1" style="stop-color:#F26522"/>
</linearGradient>
<polygon fill="url(#SVGID_2_)" points="28.512,24.743 20.217,28.932 20.217,50.02 28.512,50.02 "/>
<linearGradient id="SVGID_3_" gradientUnits="userSpaceOnUse" x1="65.2246" y1="43.0816" x2="75.9746" y2="43.0816">
	<stop offset="0" style="stop-color:#F26533"/>
	<stop offset="0.2401" style="stop-color:#F36F34"/>
	<stop offset="0.67" style="stop-color:#F68635"/>
	<stop offset="1" style="stop-color:#F26522"/>
</linearGradient>
<polygon fill="url(#SVGID_3_)" points="65.225,49.979 75.975,49.979 75.975,36.184 65.225,37.696 "/>
<polygon fill="#F68635" points="79.783,56.268 49.961,60.714 49.961,85.979 79.783,71.067 "/>
<linearGradient id="SVGID_4_" gradientUnits="userSpaceOnUse" x1="34.0859" y1="72.2197" x2="49.9609" y2="72.2197">
	<stop offset="0" style="stop-color:#F26533"/>
	<stop offset="0.2401" style="stop-color:#F36F34"/>
	<stop offset="0.67" style="stop-color:#F68635"/>
	<stop offset="1" style="stop-color:#F26522"/>
</linearGradient>
<polygon fill="url(#SVGID_4_)" points="34.086,58.42 49.961,60.796 49.961,86.02 34.086,78.082 "/>
<linearGradient id="SVGID_5_" gradientUnits="userSpaceOnUse" x1="20.2168" y1="65.8486" x2="28.627" y2="65.8486">
	<stop offset="0" style="stop-color:#F26533"/>
	<stop offset="0.2401" style="stop-color:#F36F34"/>
	<stop offset="0.67" style="stop-color:#F68635"/>
	<stop offset="1" style="stop-color:#F26522"/>
</linearGradient>
<polygon fill="url(#SVGID_5_)" points="20.217,56.344 28.627,57.583 28.627,75.354 20.217,71.148 "/>
<polygon fill="#F4A773" points="79.783,56.268 65.443,55.382 34.086,58.38 49.82,60.734 "/>
<polygon fill="#F4A773" points="59.49,55.015 50.031,54.431 20.217,56.283 28.627,57.543 "/>
<circle fill="#FFFFFF" cx="78.087" cy="67.486" r="21.938"/>
<g id="Layer_1_11_">
	<g>
		<g>
			<linearGradient id="SVGID_6_" gradientUnits="userSpaceOnUse" x1="59.3222" y1="67.3171" x2="96.8518" y2="67.3171">
				<stop offset="0" style="stop-color:#F26533"/>
				<stop offset="0.2401" style="stop-color:#F36F34"/>
				<stop offset="0.67" style="stop-color:#F68635"/>
				<stop offset="1" style="stop-color:#F26522"/>
			</linearGradient>
			<path fill="url(#SVGID_6_)" d="M78.088,48.692c10.362,0,18.764,8.331,18.764,18.625c0,10.284-8.402,18.625-18.764,18.625     c-10.361,0-18.765-8.341-18.765-18.625C59.322,57.023,67.727,48.692,78.088,48.692z"/>
		</g>
		<g>
			<path fill="#9E5125" d="M94.554,76.252v1.618c-3.186,5.773-9.366,9.688-16.467,9.688c-10.361,0-18.765-8.341-18.765-18.624     v-1.618c0,10.284,8.404,18.625,18.765,18.625C85.188,85.942,91.369,82.024,94.554,76.252"/>
			<path fill="#9E5125" d="M96.852,67.317v1.618c0,0.903-0.065,1.79-0.189,2.662V69.98C96.787,69.108,96.852,68.221,96.852,67.317"/>
			<path fill="#9E5125" d="M96.662,69.979v1.617c-0.151,1.029-0.382,2.032-0.692,3.001v-1.62     C96.28,72.01,96.511,71.007,96.662,69.979"/>
			<path fill="#9E5125" d="M95.97,72.977v1.62c-0.371,1.143-0.842,2.238-1.416,3.273v-1.618     C95.128,75.215,95.599,74.12,95.97,72.977"/>
		</g>
		<path fill="#DF5243" d="M96.852,67.317v1.618c0,10.283-8.402,18.624-18.764,18.624c-10.361,0-18.765-8.341-18.765-18.624v-1.618    c0,10.284,8.404,18.625,18.765,18.625C88.45,85.942,96.852,77.601,96.852,67.317z"/>
		<path fill="#FFFFFF" d="M83.62,66.678v-4.163c-0.292-2.742-2.656-4.873-5.493-4.873c-2.844,0-5.212,2.12-5.493,4.873v4.163h-2.841    v9.227H86.38v-9.227H83.62z M80.934,66.678h-5.651l0.018-4.163c0,0-0.003-2.552,2.826-2.542c2.705,0.008,2.826,2.542,2.826,2.542    L80.934,66.678z"/>
	</g>
</g>
</svg>