<?xml version="1.0" encoding="UTF-8"?>
<!-- Generator: Adobe Illustrator 19.0.1, SVG Export Plug-In . SVG Version: 6.00 Build 0)  -->
<svg version="1.1" id="Layer_1" xmlns="http://www.w3.org/2000/svg" xmlns:xlink="http://www.w3.org/1999/xlink" x="0px" y="0px" width="100px" height="100px" viewBox="0 0 100 100" enable-background="new 0 0 100 100" xml:space="preserve">
<g>
	<line fill="#9D5225" x1="76.424" y1="25.533" x2="76.424" y2="28.139"/>
</g>
<g enable-background="new    ">
	<path fill="#9E5125" d="M52.252,46.496v2.605c-0.051,0.09-0.094,0.186-0.125,0.279v-2.606   C52.158,46.682,52.201,46.588,52.252,46.496"/>
	<path fill="#9E5125" d="M52.127,46.775v2.606c-0.014,0.047-0.028,0.094-0.04,0.141v-2.605   C52.099,46.867,52.113,46.822,52.127,46.775"/>
</g>
<path fill="#DF5243" d="M76.1,47.797c-3.736-1.236-7.828-1.399-11.307-1.399c-5.078,0-11.496,1.164-12.742,2.891l-0.049-2.379  c0.461-2.094,6.451-3.873,11.734-3.873c1.785,0,9.818,0.816,12.389,2.146"/>
<path fill="#C33F27" d="M27.748,74.484v2.605c-2.219,0-4.019-1.785-4.144-4.002v-2.605C23.729,72.697,25.529,74.484,27.748,74.484z"/>
<g>
	<polygon fill="#C33F27" points="53.602,74.459 53.602,77.062 27.56,77.09 27.56,74.484  "/>
</g>
<linearGradient id="SVGID_1_" gradientUnits="userSpaceOnUse" x1="23.5742" y1="48.0079" x2="76.2969" y2="48.0079">
	<stop offset="0" style="stop-color:#F26533"/>
	<stop offset="0.2401" style="stop-color:#F36F34"/>
	<stop offset="0.67" style="stop-color:#F68635"/>
	<stop offset="1" style="stop-color:#F26522"/>
</linearGradient>
<path fill="url(#SVGID_1_)" d="M76.139,45.514c-3.807-1.328-10.059-1.377-11.844-1.354c-5.219,0.07-11.164,1.307-12.16,2.854  l-0.041,0.307l0.016,0.951l-0.016,24.83c0,0.457,0.963,0.953,1.367,1.357l-25.867,0.025c-2.22,0-4.02-1.787-4.02-4.002V25.523  c0-2.203,1.8-3.988,4.02-3.988l44.682-0.004c2.221,0,4.021,1.787,4.021,4.002"/>
<circle fill="#FFFFFF" stroke="#C33F27" stroke-width="3" stroke-miterlimit="10" cx="66.945" cy="59.646" r="21.098"/>
<path fill="#F68635" d="M77.396,64.516c-0.031-0.367-0.123-0.751-0.249-1.141c-0.053-6.641,2.007-9.387,2.007-9.387  s-3.099,0.074-6.681,2.046c-0.076-0.108-0.15-0.215-0.227-0.322c0.11-2.692,0.63-5.38,1.389-7.368  c-0.447,0.245-2.345,1.048-4.257,2.481c-0.983-2.349-1.289-4.778-0.119-7.212c-9.1,6.523-14.523,13.8-14.523,19.653  c-0.005,4.56,1.134,11.702,12.159,11.702c6.492,0,9.802-2.487,10.415-7.312l0.144,0.145c-0.028-0.218-0.04-0.417-0.065-0.628  C77.459,66.347,77.474,65.471,77.396,64.516z M71.976,69.697c-0.71,1.237-1.065,1.602-5.635,1.731  c-4.57,0.129-5.418-0.864-6.261-2.417c-2.404-4.435,0.632-7.232,0.457-6.908c-0.171,0.323-1.094,3.174,3.307,5.506  c-2.163-2.695,1.769-5.916,3.227-7.406c0,3.821,1.55,7.406,1.55,7.406s2.508-1.473,4.317-6.78  C73.887,64.953,74.051,66.085,71.976,69.697z"/>
</svg>