<?xml version="1.0" encoding="utf-8"?>
<!-- Generator: Adobe Illustrator 16.0.4, SVG Export Plug-In . SVG Version: 6.00 Build 0)  -->
<!DOCTYPE svg PUBLIC "-//W3C//DTD SVG 1.1//EN" "http://www.w3.org/Graphics/SVG/1.1/DTD/svg11.dtd">
<svg version="1.1" id="Layer_1" xmlns="http://www.w3.org/2000/svg" xmlns:xlink="http://www.w3.org/1999/xlink" x="0px" y="0px"
	 width="100px" height="100px" viewBox="0 0 100 100" enable-background="new 0 0 100 100" xml:space="preserve">
<g>
	<g>
		<line fill="none" x1="76.424" y1="25.533" x2="76.424" y2="28.139"/>
	</g>
	<g enable-background="new    ">
		<path fill="#9E5125" d="M52.252,46.496v2.605c-0.051,0.09-0.094,0.186-0.125,0.279v-2.606
			C52.158,46.682,52.201,46.588,52.252,46.496"/>
		<path fill="#9E5125" d="M52.127,46.775v2.606c-0.014,0.047-0.027,0.094-0.04,0.141v-2.605
			C52.1,46.867,52.113,46.822,52.127,46.775"/>
	</g>
	<path fill="#DF5243" d="M76.1,47.797c-3.736-1.236-7.828-1.399-11.307-1.399c-5.078,0-11.496,1.164-12.742,2.891l-0.049-2.379
		c0.461-2.094,6.451-3.873,11.734-3.873c1.785,0,9.818,0.816,12.389,2.146"/>
	<g enable-background="new    ">
		<path fill="#9E5125" d="M76.236,51.252v2.801c0,0.016-0.002,0.031-0.002,0.047v-2.803C76.234,51.281,76.236,51.268,76.236,51.252"
			/>
		<path fill="#9E5125" d="M76.234,51.297V54.1c-0.002,0.02-0.008,0.039-0.017,0.06v-2.804
			C76.227,51.336,76.232,51.316,76.234,51.297"/>
	</g>
	<path fill="#DF5243" d="M27.748,74.484v2.604c-2.219,0-4.019-1.784-4.144-4.002v-2.604C23.729,72.697,25.529,74.484,27.748,74.484z
		"/>
	<g>
		<polygon fill="#DF5243" points="53.602,74.459 53.602,77.062 27.56,77.09 27.56,74.484 		"/>
	</g>
	
		<linearGradient id="SVGID_2_" gradientUnits="userSpaceOnUse" x1="23.5742" y1="52.9922" x2="76.2969" y2="52.9922" gradientTransform="matrix(1 0 0 -1 0 101)">
		<stop  offset="0" style="stop-color:#F26533"/>
		<stop  offset="0.2401" style="stop-color:#F36F34"/>
		<stop  offset="0.67" style="stop-color:#F68635"/>
		<stop  offset="1" style="stop-color:#F26522"/>
	</linearGradient>
	<path fill="url(#SVGID_2_)" d="M76.139,45.514c-3.807-1.328-10.059-1.377-11.844-1.354c-5.219,0.07-11.164,1.307-12.16,2.854
		l-0.041,0.307l0.016,0.951l-0.016,24.83c0,0.457,0.963,0.953,1.367,1.357l-25.867,0.025c-2.22,0-4.02-1.787-4.02-4.002V25.523
		c0-2.203,1.8-3.988,4.02-3.988l44.681-0.004c2.222,0,4.021,1.787,4.021,4.002"/>
</g>
<circle fill="#FFFFFF" stroke="#DF5243" stroke-width="3.1195" stroke-miterlimit="10" cx="67.785" cy="60.486" r="21.938"/>
<g>
	<g enable-background="new    ">
		<g>
			<g>
				<path id="SVGID_1_" fill="#9D5125" d="M84.742,62.735v1.21c0,2.713-2.959,5.455-6.597,5.455v-1.209
					C81.784,68.191,84.742,65.448,84.742,62.735z"/>
			</g>
			<g>
				<defs>
					<path id="SVGID_4_" d="M84.742,62.735v1.21c0,2.713-2.959,5.455-6.597,5.455v-1.209C81.784,68.191,84.742,65.448,84.742,62.735
						z"/>
				</defs>
				<clipPath id="SVGID_5_">
					<use xlink:href="#SVGID_4_"  overflow="visible"/>
				</clipPath>
				<g clip-path="url(#SVGID_5_)" enable-background="new    ">
					<path fill="#9D5125" d="M84.742,62.735v1.21c0,0.186-0.014,0.369-0.039,0.552v-1.208C84.729,63.105,84.742,62.92,84.742,62.735
						"/>
					<path fill="#9D5125" d="M84.703,63.289v1.208c-0.035,0.231-0.088,0.461-0.161,0.688v-1.209
						C84.615,63.748,84.668,63.52,84.703,63.289"/>
					<path fill="#9D5125" d="M84.542,63.977v1.209c-0.095,0.293-0.221,0.582-0.376,0.861v-1.209
						C84.322,64.557,84.447,64.269,84.542,63.977"/>
					<path fill="#9D5125" d="M84.166,64.838v1.209c-1.031,1.866-3.342,3.354-6.021,3.354v-1.209
						C80.824,68.191,83.135,66.703,84.166,64.838"/>
				</g>
			</g>
		</g>
		<g>
			<polygon fill="#9D5125" points="78.473,67.982 78.146,69.4 58.723,69.4 58.384,67.963 			"/>
		</g>
		<g>
			<g>
				<path id="SVGID_3_" fill="#9D5125" d="M58.723,68.191V69.4c-3.645,0-6.596-2.742-6.596-5.455v-1.21
					C52.127,65.448,55.078,68.191,58.723,68.191z"/>
			</g>
			<g>
				<defs>
					<path id="SVGID_6_" d="M58.723,68.191V69.4c-3.645,0-6.596-2.742-6.596-5.455v-1.21C52.127,65.448,55.078,68.191,58.723,68.191
						z"/>
				</defs>
				<clipPath id="SVGID_7_">
					<use xlink:href="#SVGID_6_"  overflow="visible"/>
				</clipPath>
				<g clip-path="url(#SVGID_7_)" enable-background="new    ">
					<path fill="#9D5125" d="M58.723,68.191V69.4c-3.645,0-6.596-2.742-6.596-5.455v-1.21
						C52.127,65.448,55.078,68.191,58.723,68.191"/>
				</g>
			</g>
		</g>
		<g>
			<linearGradient id="SVGID_8_" gradientUnits="userSpaceOnUse" x1="52.127" y1="58.0996" x2="84.7422" y2="58.0996">
				<stop  offset="0" style="stop-color:#F26533"/>
				<stop  offset="0.2401" style="stop-color:#F36F34"/>
				<stop  offset="0.67" style="stop-color:#F68635"/>
				<stop  offset="1" style="stop-color:#F26522"/>
			</linearGradient>
			<path fill="url(#SVGID_8_)" d="M64.678,48.008c3.386,0,6.301,2.014,7.607,4.895c0.678-0.462,1.502-0.736,2.393-0.736
				c2.287,0,4.146,1.803,4.217,4.06c3.291,0.274,5.848,3.442,5.848,5.962v0.548c0,2.713-2.959,5.456-6.597,5.456H58.723
				c-3.645,0-6.596-2.743-6.596-5.456v-0.548c0-2.084,1.759-4.959,4.228-5.662c-0.007-0.08-0.013-0.162-0.013-0.243
				C56.342,51.711,60.073,48.008,64.678,48.008z"/>
		</g>
	</g>
</g>
</svg>
