<?xml version="1.0" encoding="utf-8"?>
<!-- Generator: Adobe Illustrator 16.0.4, SVG Export Plug-In . SVG Version: 6.00 Build 0)  -->
<svg version="1.2" baseProfile="tiny" id="Layer_1" xmlns="http://www.w3.org/2000/svg" xmlns:xlink="http://www.w3.org/1999/xlink"
	 x="0px" y="0px" width="100px" height="100px" viewBox="0 0 100 100" xml:space="preserve">
<g>
	<polygon fill="#F58536" points="59.49,55.015 28.627,57.502 28.627,75.312 59.49,66.936 	"/>
	<polygon fill="#F58536" points="43.553,49.979 28.512,49.979 28.512,24.703 43.553,28.771 	"/>
	<polygon fill="#6B3A19" points="44.025,33.132 55.795,30.13 75.975,36.184 65.173,37.704 	"/>
	<polygon fill="#F58536" points="58.881,49.979 49.961,49.979 49.961,13.979 58.881,18.439 	"/>
	<polygon fill="#F58536" points="75.975,49.979 79.783,49.979 79.783,28.891 75.975,26.986 	"/>
	<polygon fill="#F58536" points="79.783,37.326 49.961,28.381 49.961,13.979 79.783,28.891 	"/>
	<polygon fill="#9D5025" points="34.086,49.979 49.961,49.979 49.961,13.979 34.086,21.916 	"/>
	<polygon fill="#9D5025" points="28.512,24.743 20.217,28.932 20.217,50.02 28.512,50.02 	"/>
	<polygon fill="#9D5025" points="65.225,49.979 75.975,49.979 75.975,36.184 65.225,37.696 	"/>
	<polygon fill="#F58536" points="79.783,56.268 49.961,60.714 49.961,85.979 79.783,71.067 	"/>
	<polygon fill="#9D5025" points="34.086,58.42 49.961,60.796 49.961,86.02 34.086,78.082 	"/>
	<polygon fill="#9D5025" points="20.217,56.344 28.627,57.583 28.627,75.354 20.217,71.148 	"/>
	<polygon fill="#FBBF93" points="79.783,56.268 65.443,55.382 34.086,58.38 49.82,60.734 	"/>
	<polygon fill="#FBBF93" points="59.49,55.015 50.031,54.431 20.217,56.283 28.627,57.543 	"/>
</g>
<g id="nyt_x5F_exporter_x5F_info" display="none">
</g>
<circle fill="#FFFFFF" cx="67.475" cy="67.69" r="21.938"/>
<g id="Layer_1_1_">
	<g>
		<g>
			<g>
				<path fill="#8C3123" d="M54.479,60.979c-0.052-0.102-0.103-0.255-0.103-0.356L54.479,60.979z"/>
			</g>
			<g>
				<path fill="#8C3123" d="M82.23,60.979l0.103-0.356C82.333,60.725,82.281,60.878,82.23,60.979z"/>
			</g>
			<g>
				<polygon fill="#8C3123" points="82.333,59.449 82.333,60.623 82.23,60.979 82.23,59.807 				"/>
			</g>
			<g>
				<polygon fill="#8C3123" points="54.479,59.807 54.479,60.979 54.376,60.623 54.376,59.449 				"/>
			</g>
			<g>
				<path fill="#8C3123" d="M82.333,57.153v1.174c0,0.051,0,0.102,0,0.152v-1.173C82.281,57.256,82.333,57.204,82.333,57.153"/>
				<path fill="#8C3123" d="M82.281,57.307v1.173c0,0.052,0,0.102-0.051,0.153V57.46C82.281,57.409,82.281,57.357,82.281,57.307"/>
				<path fill="#8C3123" d="M82.281,57.46v1.173c0,0.052-0.051,0.153-0.101,0.204v-1.173C82.181,57.562,82.23,57.51,82.281,57.46"/>
				<path fill="#8C3123" d="M82.181,57.664v1.173c-1.021,1.581-6.837,2.806-13.826,2.806c-7.703,0-13.979-1.479-13.979-3.265v-1.174
					c0,1.837,6.224,3.266,13.979,3.266C75.344,60.47,81.16,59.245,82.181,57.664"/>
			</g>
			<path fill="#9D5025" d="M82.333,57.153v1.174c0,1.837-6.275,3.266-13.979,3.266s-13.979-1.48-13.979-3.266v-1.174
				c0,1.837,6.224,3.265,13.979,3.265C76.058,60.47,82.333,58.99,82.333,57.153z"/>
			<g>
				<path fill="#F58536" d="M68.354,53.889c7.703,0,13.979,1.479,13.979,3.265c0,1.837-6.275,3.265-13.979,3.265
					s-13.979-1.479-13.979-3.265C54.376,55.367,60.651,53.889,68.354,53.889z"/>
			</g>
			<g>
				<polygon fill="#8C3123" points="82.23,59.807 82.23,60.979 77.64,80.468 77.64,79.295 				"/>
			</g>
			<g>
				<polygon fill="#8C3123" points="59.069,79.295 59.069,80.468 54.479,60.979 54.479,59.807 				"/>
			</g>
			<g>
				<path fill="#8C3123" d="M77.64,79.295v1.173c0,0.052,0,0.052,0,0.103v-1.174C77.64,79.346,77.64,79.295,77.64,79.295"/>
				<path fill="#8C3123" d="M77.64,79.396v1.174c0,0.051,0,0.051,0,0.102v-1.173C77.64,79.448,77.64,79.396,77.64,79.396"/>
				<path fill="#8C3123" d="M77.64,79.448v1.173c0,0.051-0.052,0.103-0.052,0.154v-1.175C77.588,79.55,77.588,79.499,77.64,79.448"
					/>
				<path fill="#8C3123" d="M77.537,79.601v1.175c-0.662,1.071-4.54,1.887-9.234,1.887c-5.152,0-9.285-0.97-9.285-2.194v-1.173
					c0,1.225,4.185,2.194,9.285,2.194C73.048,81.489,76.925,80.672,77.537,79.601"/>
			</g>
			<path fill="#9D5025" d="M77.64,79.295v1.173c0,1.225-4.185,2.194-9.285,2.194c-5.152,0-9.285-0.97-9.285-2.194v-1.173
				c0,1.225,4.183,2.194,9.285,2.194C73.507,81.489,77.64,80.52,77.64,79.295z"/>
			<g>
				<path fill="#F58536" d="M68.354,62.714c7.193,0,13.111-1.275,13.876-2.907l-4.54,19.488c0,1.225-4.184,2.194-9.284,2.194
					c-5.154,0-9.285-0.97-9.285-2.194L54.58,59.807C55.243,61.438,61.16,62.714,68.354,62.714z"/>
			</g>
		</g>
	</g>
</g>
</svg>
