<?xml version="1.0" encoding="UTF-8" standalone="no"?>
<svg
   xmlns:svg="http://www.w3.org/2000/svg"
   xmlns="http://www.w3.org/2000/svg"
   version="1.1"
   width="100px"
   height="100px"
   viewBox="0 0 100 100"
   id="Layer_1"
   xml:space="preserve">
<linearGradient
   x1="18.054701"
   y1="49.996101"
   x2="25.5352"
   y2="49.996101"
   id="SVGID_1_"
   gradientUnits="userSpaceOnUse">
	<stop
   id="stop4"
   style="stop-color:#072e4b;stop-opacity:1"
   offset="0" />
	<stop
   id="stop6"
   style="stop-color:#1a52a4;stop-opacity:1"
   offset="0" />
	<stop
   id="stop8"
   style="stop-color:#2d72b8;stop-opacity:1"
   offset="1" />
</linearGradient>
<circle
   cx="69.856003"
   cy="68.992996"
   r="21.938"
   transform="matrix(1.8691675,0,0,1.8691675,-79.784365,-79.034267)"
   id="circle20"
   style="fill:#be202e" />
<g
   transform="matrix(1.8691675,0,0,1.8691675,16526.163,-56556.37)"
   id="g17038">
	<path
   d="m -8822.22,30280.879 c -0.914,0 -1.649,0.734 -1.649,1.648 v 13.191 c 0,0.914 0.735,1.65 1.649,1.65 h 15.871 c 0.914,0 1.648,-0.736 1.648,-1.65 v -13.191 c 0,-0.914 -0.734,-1.648 -1.648,-1.648 h -15.871 z m 7.936,4.475 c 1.224,0 2.214,0.99 2.214,2.213 0,0.854 -0.481,1.592 -1.187,1.963 v 3.582 c 0,0.57 -0.458,1.027 -1.027,1.027 -0.568,0 -1.026,-0.457 -1.026,-1.027 v -3.582 c -0.706,-0.371 -1.188,-1.109 -1.188,-1.963 0,-1.223 0.991,-2.213 2.214,-2.213 z"
   id="rect10076"
   style="fill:#ffffff" />
	<path
   d="m -8814.284,30271.086 c -3.809,0 -7.151,2.729 -7.151,6.377 v 2.707 h 3.286 v -2.707 c 0,-1.598 1.572,-3.092 3.865,-3.092 2.293,0 3.863,1.494 3.863,3.092 v 2.707 h 3.286 v -2.707 c 0,-3.649 -3.341,-6.377 -7.149,-6.377 z"
   id="rect10867"
   style="fill:#ffffff" />
</g>
</svg>
