<?xml version="1.0" encoding="utf-8"?>
<!-- Generator: Adobe Illustrator 19.2.1, SVG Export Plug-In . SVG Version: 6.00 Build 0)  -->
<svg version="1.1" id="Layer_1" xmlns:svg="http://www.w3.org/2000/svg"
	 xmlns="http://www.w3.org/2000/svg" xmlns:xlink="http://www.w3.org/1999/xlink" x="0px" y="0px" width="100px" height="100px" viewBox="0 0 100 100"
	 style="enable-background:new 0 0 100 100;" xml:space="preserve">
<style type="text/css">
	.st0{fill:#9D5025;}
	.st1{fill:#9D5125;}
	.st2{fill:#F58536;}
	.st3{fill:#FFFFFF;}
	.st4{enable-background:new    ;}
</style>
<g id="nyt_x5F_exporter_x5F_info">
</g>
<g>
	<g>
		<polygon class="st0" points="79.4,82 79.4,85.4 49.9,85.4 48.6,81 		"/>
	</g>
	<g>
		<g>
			<polygon class="st0" points="55.8,25.8 55.8,29.2 33.8,29.2 30.7,25 			"/>
		</g>
		<g>
			<path class="st0" d="M33.8,25.8v3.3c-1.3,0-2.3,0.7-2.8,1.7v-3.3C31.5,26.5,32.5,25.8,33.8,25.8"/>
			<path class="st0" d="M31,27.5v3.3c-0.1,0.2-0.2,0.3-0.2,0.6v-3.3C30.8,27.9,30.8,27.7,31,27.5"/>
			<path class="st0" d="M30.7,28.1v3.3c0,0.1-0.1,0.3-0.1,0.5v-3.3C30.6,28.4,30.7,28.2,30.7,28.1"/>
			<path class="st0" d="M30.6,28.5v3.3c0,0.1,0,0.3,0,0.5V29C30.6,28.9,30.6,28.8,30.6,28.5"/>
		</g>
		<path class="st0" d="M33.8,25.8v3.3c-1.7,0-3.2,1.5-3.2,3.2V29C30.6,27.3,32.1,25.8,33.8,25.8z"/>
		<g>
			<polygon class="st0" points="69,41.2 69,44.5 46.8,44.5 44.9,40.7 			"/>
		</g>
		<g>
			<path class="st0" d="M47,41.2v3.3c-1.3,0-2.3,0.7-2.8,1.7v-3.3C44.7,41.9,45.8,41.2,47,41.2"/>
			<path class="st0" d="M44.2,42.9v3.3c-0.1,0.2-0.2,0.3-0.2,0.6v-3.3C44.1,43.2,44.1,43,44.2,42.9"/>
			<path class="st0" d="M43.9,43.5v3.3c0,0.1-0.1,0.3-0.1,0.6V44C43.8,43.8,43.9,43.6,43.9,43.5"/>
			<path class="st0" d="M43.8,43.9v3.3c0,0.1,0,0.3,0,0.5v-3.3C43.8,44.3,43.8,44,43.8,43.9"/>
		</g>
		<path class="st0" d="M47,41.2v3.3c-1.8,0-3.2,1.5-3.2,3.2v-3.3C43.8,42.7,45.2,41.2,47,41.2z"/>
		<g>
			<polygon class="st0" points="30.6,51.2 30.6,54.5 23.3,54.5 22.1,50.5 			"/>
		</g>
		<g>
			<path class="st0" d="M23.3,51.2v3.3c-1.7,0-3.2-1.4-3.2-3.2V48C20,49.9,21.5,51.2,23.3,51.2"/>
		</g>
		<path class="st0" d="M23.3,51.2v3.3c-1.7,0-3.2-1.4-3.2-3.2V48C20,49.9,21.5,51.2,23.3,51.2z"/>
		<g>
			<rect x="36.2" y="66.6" class="st0" width="7.5" height="3.3"/>
		</g>
		<g>
			<path class="st0" d="M36.4,66.6v3.3c-1.8,0-3.2-1.4-3.2-3.2v-3.3C33.2,65.2,34.7,66.6,36.4,66.6"/>
		</g>
		<path class="st0" d="M36.4,66.6v3.3c-1.8,0-3.2-1.4-3.2-3.2v-3.3C33.2,65.2,34.7,66.6,36.4,66.6z"/>
		<g>
			<path class="st1" d="M49.9,82v3.3c-1.8,0-3.2-1.5-3.2-3.2v-3.3C46.7,80.6,48,82,49.9,82"/>
		</g>
		<path class="st1" d="M49.9,82v3.3c-1.8,0-3.2-1.5-3.2-3.2v-3.3C46.7,80.6,48,82,49.9,82z"/>
		<g>
			<path class="st0" d="M82.3,78.9v3.3c0,0.1,0,0.3,0,0.5v-3.3C82.3,79.1,82.3,79,82.3,78.9"/>
			<path class="st0" d="M82.2,79.4v3.3c0,0.2-0.1,0.3-0.1,0.5v-3.3C82.2,79.7,82.2,79.5,82.2,79.4"/>
			<path class="st0" d="M82.1,79.8v3.3c-0.1,0.2-0.1,0.3-0.2,0.6v-3.3C82,80.2,82.1,80.1,82.1,79.8"/>
			<path class="st0" d="M81.9,80.4v3.3c-0.6,1-1.6,1.7-2.8,1.7v-3.3C80.3,82,81.4,81.4,81.9,80.4"/>
		</g>
		<path class="st0" d="M82.3,78.9v3.3c0,1.7-1.5,3.2-3.2,3.2v-3.3C80.9,82,82.3,80.6,82.3,78.9z"/>
		<g>
			<path class="st2" d="M52.6,15.1c1.8,0,3.2,1.4,3.2,3.2v7.5h-22c-1.7,0-3.2,1.5-3.2,3.2v22.2h-7.3c-1.7,0-3.2-1.4-3.2-3.2V18.3
				c0-1.7,1.5-3.2,3.2-3.2H52.6z"/>
		</g>
		<g>
			<path class="st2" d="M65.8,30.5c1.7,0,3.2,1.5,3.2,3.2v7.5H47c-1.8,0-3.2,1.5-3.2,3.2v22.2h-7.3c-1.8,0-3.2-1.4-3.2-3.2V33.7
				c0-1.7,1.5-3.2,3.2-3.2C36.5,30.5,65.8,30.5,65.8,30.5z"/>
		</g>
		<g>
			<path class="st2" d="M79.2,45.9c1.7,0,3.2,1.4,3.2,3.2v29.7c0,1.7-1.5,3.2-3.2,3.2H49.9c-1.8,0-3.2-1.5-3.2-3.2V49.1
				c0-1.7,1.5-3.2,3.2-3.2H79.2z"/>
		</g>
	</g>
</g>
<g>
	<path class="st3" d="M75.3,94.4c-10.5,0-19-8.5-19-19s8.5-19,19-19s19,8.5,19,19C94.3,85.8,85.8,94.4,75.3,94.4z"/>
	<g id="Layer_1_2_">
		<g>
			<g>
				<path class="st2" d="M75.7,64.1c6.2,0,11.2,5,11.2,11.1s-5,11.1-11.2,11.1s-11.2-5-11.2-11.1S69.5,64.1,75.7,64.1z"/>
			</g>
			<g>
				<g class="st4">
					<path class="st0" d="M85.5,80.6v1c-1.9,3.4-5.6,5.8-9.8,5.8c-6.2,0-11.2-5-11.2-11.1v-1c0,6.1,5,11.1,11.2,11.1
						C79.9,86.3,83.6,84,85.5,80.6"/>
					<path class="st0" d="M86.9,75.2v1c0,0.5,0,1.1-0.1,1.6v-1C86.8,76.3,86.9,75.8,86.9,75.2"/>
					<path class="st0" d="M86.8,76.8v1c-0.1,0.6-0.2,1.2-0.4,1.8v-1C86.5,78,86.7,77.4,86.8,76.8"/>
					<path class="st0" d="M86.3,78.6v1c-0.2,0.7-0.5,1.3-0.8,2v-1C85.8,79.9,86.1,79.3,86.3,78.6"/>
				</g>
			</g>
			<path class="st3" d="M79,74.8v-2.5c-0.2-1.6-1.6-2.9-3.3-2.9c-1.7,0-3.1,1.3-3.3,2.9v2.5h-1.7v5.5h9.9v-5.5H79z M77.4,74.8H74
				v-2.5c0,0,0-1.5,1.7-1.5c1.6,0,1.7,1.5,1.7,1.5L77.4,74.8z"/>
		</g>
	</g>
</g>
</svg>
