<?xml version="1.0" encoding="UTF-8"?>
<!-- Generator: Adobe Illustrator 19.0.1, SVG Export Plug-In . SVG Version: 6.00 Build 0)  -->
<svg version="1.1" id="Layer_1" xmlns="http://www.w3.org/2000/svg" xmlns:xlink="http://www.w3.org/1999/xlink" x="0px" y="0px" width="100px" height="100px" viewBox="0 0 100 100" enable-background="new 0 0 100 100" xml:space="preserve">
<g>
	<path fill="#FFFFFF" d="M49.922,10.983c0.477,0,0.941,0.204,1.044,0.328c4.447,5.03,8.918,6.706,12.91,6.706   c8.007,0,13.766-6.423,14.069-6.759l12.201,15.801c-0.32,0.378-6.442,7.542-6.1,15.959c0.4,9.889,9.639,13.474,7.365,24.687   c-4.115,20.205-23.861,12.039-39.847,25.187c-0.309,0.248-0.559,0.332-0.762,0.332c-0.403,0-0.582-0.318-0.594-0.332   c-9.692-11.698-39.612-1.938-43.312-25.187c-2.041-12.736,5.648-14.295,6.083-23.861c0.338-7.38-5.762-15.039-6.083-15.442   l14.201-17.144c0.312,0.313,6.227,6.234,14.534,6.234c4.156,0,8.833-1.556,13.513-6.234C49.36,11.05,49.639,10.983,49.922,10.983z"/>
</g>
<g enable-background="new    ">
	<path fill="#9E5125" d="M50.166,91.3v3.34C40.852,83.394,12.1,92.779,8.544,70.437c-0.229-1.432-0.331-2.711-0.331-3.878v-3.34   c0,1.169,0.102,2.447,0.331,3.877C12.1,89.438,40.852,80.059,50.166,91.3"/>
</g>
<path fill="#FFFFFF" d="M8.213,66.559v-3.34c0,1.169,0.102,2.447,0.331,3.877C12.1,89.438,40.852,80.059,50.166,91.3v3.34  C40.852,83.394,12.1,92.779,8.544,70.437C8.315,69.005,8.213,67.726,8.213,66.559z"/>
<g>
	<linearGradient id="SVGID_1_" gradientUnits="userSpaceOnUse" x1="8.2131" y1="52.1035" x2="90.1068" y2="52.1035">
		<stop offset="0" style="stop-color:#F26533"/>
		<stop offset="0.2401" style="stop-color:#F36F34"/>
		<stop offset="0.67" style="stop-color:#F68635"/>
		<stop offset="1" style="stop-color:#F26522"/>
	</linearGradient>
	<path fill="url(#SVGID_1_)" d="M49.892,12.587c0.458,0,0.905,0.196,1.003,0.315c4.274,4.833,8.57,6.445,12.406,6.445   c7.694,0,13.229-6.172,13.52-6.496l11.725,15.185c-0.308,0.363-6.19,7.247-5.862,15.336c0.384,9.503,9.263,12.949,7.078,23.724   C85.807,86.512,66.832,78.665,51.469,91.3c-0.297,0.239-0.537,0.319-0.732,0.319c-0.387,0-0.56-0.305-0.571-0.319   C40.852,80.059,12.1,89.438,8.544,67.096c-1.962-12.239,5.427-13.737,5.846-22.93c0.325-7.092-5.537-14.453-5.846-14.84   l13.647-16.475c0.3,0.301,5.984,5.991,13.966,5.991c3.994,0,8.488-1.495,12.986-5.991C49.352,12.652,49.62,12.587,49.892,12.587z"/>
</g>
<g enable-background="new    ">
	<path fill="#9E5125" d="M90.106,63.809v3.338c0,0.721-0.051,1.475-0.17,2.275v-3.341C90.055,65.284,90.106,64.528,90.106,63.809"/>
	<path fill="#9E5125" d="M89.937,66.081v3.341c-0.048,0.331-0.105,0.668-0.175,1.015c-0.198,0.964-0.432,1.86-0.698,2.694v-3.338   c0.266-0.837,0.5-1.731,0.698-2.696C89.832,66.751,89.889,66.412,89.937,66.081"/>
	<path fill="#9E5125" d="M89.063,69.792v3.338c-0.407,1.263-0.893,2.387-1.447,3.391V73.18   C88.17,72.178,88.656,71.056,89.063,69.792"/>
	<path fill="#9E5125" d="M87.616,73.18v3.341c-6.484,11.692-22.701,7.059-36.147,18.119c-0.297,0.242-0.537,0.318-0.732,0.318   c-0.387,0-0.56-0.305-0.571-0.318V91.3c0.011,0.014,0.184,0.319,0.571,0.319c0.195,0,0.435-0.081,0.732-0.319   C64.915,80.24,81.132,84.873,87.616,73.18"/>
</g>
<path fill="#FFFFFF" d="M90.106,63.809v3.338c0,1.02-0.11,2.11-0.345,3.29C85.807,89.85,66.832,82.004,51.469,94.64  c-0.297,0.242-0.537,0.318-0.732,0.318c-0.387,0-0.56-0.305-0.571-0.318V91.3c0.011,0.014,0.184,0.319,0.571,0.319  c0.195,0,0.435-0.081,0.732-0.319c15.363-12.635,34.338-4.788,38.292-24.204C89.996,65.917,90.106,64.828,90.106,63.809z"/>
<g>
	<g>
		<rect x="3.062" y="36.904" fill="#F68635" width="93.75" height="22.404"/>
	</g>
	<g>
		<rect x="3.062" y="59.308" fill="#F15A29" width="93.75" height="3.663"/>
	</g>
	<path fill="#FFFFFF" d="M14.62,54.814h-2.153V44.9H9.689v-1.429h0.209c1.286,0,2.779-0.304,3.155-2.045v-0.268h1.566V54.814z    M26.694,43.167c-2.097,2.793-3.912,7.539-4.214,11.647h-2.268c0.302-4.071,2.268-8.62,4.401-11.417h-5.858v-1.971h7.939V43.167z    M36.269,54.814h-7.824c0-5.94,5.612-5.805,5.612-10.048c0-1.122-0.473-2.063-1.665-2.063c-1.607,0-1.868,1.465-1.868,2.855h-2.043   c0-2.721,1.097-4.4,3.95-4.4c2.741,0,3.78,1.66,3.78,3.645c0,4.534-4.35,4.824-5.367,8.159h5.425V54.814z M40.797,54.814h-2.153   V52.27h2.153V54.814z M48.616,54.814h-2.154V44.9h-2.777v-1.429h0.208c1.286,0,2.777-0.304,3.157-2.045v-0.268h1.566V54.814z    M56.679,55.084c-3.383,0-4.025-2.623-4.025-6.538c0-4.09,0.739-7.389,4.272-7.389c2.347,0,3.609,1.081,3.609,3.318h-2.154   c0-0.789-0.358-1.773-1.436-1.773c-2.021,0-2.135,2.718-2.135,4.705l0.059,0.038C55.394,46.465,56.3,46,57.473,46   c1.834,0,3.307,1.351,3.307,4.069C60.78,53.213,59.515,55.084,56.679,55.084z M65.162,54.814h-2.154V52.27h2.154V54.814z    M71.451,55.084c-2.572,0-4.008-1.658-4.008-6.965c0-5.302,1.436-6.962,4.008-6.962c2.569,0,4.005,1.66,4.005,6.962   C75.456,53.427,74.02,55.084,71.451,55.084z M79.89,54.814h-2.153V52.27h2.153V54.814z M86.181,55.084   c-2.573,0-4.006-1.658-4.006-6.965c0-5.302,1.433-6.962,4.006-6.962c2.57,0,4.006,1.66,4.006,6.962   C90.187,53.427,88.751,55.084,86.181,55.084z"/>
	<path fill="#F68635" d="M71.451,42.903c-1.476,0-1.852,1.447-1.852,5.419c0,3.973,0.376,5.419,1.852,5.419   c1.474,0,1.849-1.446,1.849-5.419C73.3,44.35,72.926,42.903,71.451,42.903z"/>
	<path fill="#F68635" d="M86.181,42.903c-1.475,0-1.853,1.447-1.853,5.419c0,3.973,0.379,5.419,1.853,5.419   c1.473,0,1.852-1.446,1.852-5.419C88.033,44.35,87.654,42.903,86.181,42.903z"/>
	<path fill="#F68635" d="M56.852,53.741c1.321,0,1.773-1.331,1.773-2.933c0-1.889-0.547-2.949-1.773-2.949   c-1.57,0-1.855,1.407-1.855,3.049C54.997,52.488,55.585,53.741,56.852,53.741z"/>
</g>
</svg>