<?xml version="1.0" encoding="utf-8"?>
<!-- Generator: Adobe Illustrator 19.2.1, SVG Export Plug-In . SVG Version: 6.00 Build 0)  -->
<svg version="1.1" id="Layer_1" xmlns:svg="http://www.w3.org/2000/svg"
	 xmlns="http://www.w3.org/2000/svg" xmlns:xlink="http://www.w3.org/1999/xlink" x="0px" y="0px" width="100px" height="100px" viewBox="0 0 100 100"
	 style="enable-background:new 0 0 100 100;" xml:space="preserve">
<style type="text/css">
	.st0{display:none;}
	.st1{fill:#9D5025;}
	.st2{fill:#F58536;}
	.st3{fill:#6B3A19;}
	.st4{fill:#FBBF93;}
	.st5{display:inline;}
	.st6{fill:#342074;stroke:#FFFFFF;stroke-width:2.0571;stroke-miterlimit:10;}
	.st7{fill:#FFFFFF;stroke:#444444;stroke-width:1.3714;stroke-miterlimit:10;}
	.st8{fill:#33385A;stroke:#FFFFFF;stroke-width:1.3714;stroke-miterlimit:10;}
	.st9{display:inline;fill:#F58435;}
	.st10{display:inline;fill:#9D5025;}
	.st11{display:inline;fill:#6B3B19;}
	.st12{fill:#FFFFFF;}
	.st13{fill:#146EB4;}
</style>
<g id="nyt_x5F_exporter_x5F_info" class="st0">
</g>
<g>
	<g>
		<polygon class="st1" points="33.4,32.3 39,30.8 63.6,35.5 57.9,36.4 		"/>
		<polygon class="st1" points="29.2,70.3 34.3,71.8 63.6,66.4 58.2,65.5 		"/>
		<polygon class="st2" points="30.7,77.3 22,79.3 22,22.7 30.7,24.7 		"/>
		<polygon class="st1" points="26.1,20.7 30.7,18.4 30.7,83.6 26.1,81.4 		"/>
		<polygon class="st1" points="22,22.7 18.3,24.6 18.3,77.4 22,79.3 		"/>
		<polygon class="st2" points="39.7,81.2 30.7,83.6 30.7,18.4 39.7,21 		"/>
		<polygon class="st2" points="69.7,65.3 30.7,72.5 30.7,83.6 69.7,72.6 		"/>
		<polygon class="st2" points="69.7,36.6 30.7,29.3 30.7,18.4 69.7,29.5 		"/>
		<polygon class="st2" points="63.6,27.8 69.8,29.5 69.8,72.6 63.6,74.4 		"/>
		<polygon class="st1" points="57.8,65.5 63.6,66.4 63.6,35.5 57.8,36.4 		"/>
		<polygon class="st2" points="82.5,44.8 88.2,45.3 88.2,33.8 82.5,32.1 		"/>
		<polygon class="st1" points="65.5,45.8 82.5,44.8 82.5,32.1 65.5,34.8 		"/>
		<polygon class="st2" points="75.4,44.1 66.7,43.2 66.7,27.4 75.4,30 		"/>
		<polygon class="st1" points="49.6,44.7 66.7,43.3 66.7,27.4 49.6,31.4 		"/>
		<polygon class="st3" points="49.6,44.7 67.6,43.3 75.4,44.1 57.7,45.2 		"/>
		<polygon class="st3" points="88.2,45.3 71.5,46.1 65.5,45.8 82.8,44.8 		"/>
		<polygon class="st2" points="82.5,57.6 88.2,57 88.2,68.5 82.5,70.3 		"/>
		<polygon class="st1" points="65.5,56.6 82.5,57.4 82.5,70.3 65.5,67.5 		"/>
		<polygon class="st2" points="75.4,58.3 66.7,59.1 66.7,75 75.4,72.3 		"/>
		<polygon class="st1" points="49.6,57.7 66.7,59 66.7,75 49.6,71 		"/>
		<polygon class="st4" points="49.6,57.7 67.6,59.1 75.4,58.3 57.7,57.1 		"/>
		<polygon class="st4" points="88.2,57 71.5,56.2 65.5,56.6 82.8,57.6 		"/>
	</g>
	<g class="st0">
		<g class="st5">
			<g>
				<polygon class="st6" points="56.9,76.8 24.3,57.4 24.9,19.5 58,1 90.5,20.5 90.1,58.4 				"/>
				<polygon class="st6" points="24.9,19.5 24.9,19.5 57.5,39 90.5,20.5 90.5,20.5 58,1 				"/>
				<polygon class="st6" points="24.9,19.5 24.9,19.5 25,57.4 57.8,76.4 57.8,76.4 57.7,38.4 				"/>
			</g>
		</g>
		<g class="st5">
			<g>
				<polygon class="st7" points="31.3,88.9 12,77.6 12.1,55.4 31.3,44.3 50.6,55.4 50.6,77.6 				"/>
				<polygon class="st7" points="12.1,55.4 12.1,55.4 31.3,66.5 50.6,55.4 50.6,55.4 31.3,44.3 				"/>
				<polygon class="st7" points="12.1,55.4 12,55.4 12.5,77.6 31.9,88.5 31.9,88.5 31.5,66.2 				"/>
			</g>
		</g>
		<g class="st5">
			<g>
				<polygon class="st8" points="51.7,91.3 40.3,84.8 40.3,71.6 51.7,65 63.2,71.6 63.2,84.8 				"/>
				<polygon class="st8" points="40.3,71.6 40.3,71.6 51.7,78.2 63.2,71.6 63.2,71.6 51.7,65 				"/>
				<polygon class="st8" points="40.3,71.6 40.3,71.6 40.5,84.8 52.1,91.2 52.1,91.2 51.8,78 				"/>
			</g>
		</g>
	</g>
</g>
<g class="st0">
	<polygon class="st9" points="45.8,46 13,46 13,68.6 45.8,61.2 	"/>
	<polygon class="st9" points="55.6,46 20,46 20,72.1 55.6,62 	"/>
	<polygon class="st9" points="63.3,46 28.7,46 28.7,76.5 63.3,63.8 	"/>
	<polygon class="st9" points="39.8,82 39.8,46 69.6,46 69.6,67.1 	"/>
	<polygon class="st10" points="13,46 13,68.6 10,67.1 10,46 	"/>
	<polygon class="st10" points="20,46 20,72.1 16.3,70.3 16.3,46 	"/>
	<polygon class="st10" points="28.7,46 28.7,76.5 24.1,74.2 24.1,46 	"/>
	<polygon class="st10" points="33.9,79.1 33.9,46 39.8,46 39.8,82 	"/>
	<polygon class="st9" points="69.6,38.8 39.8,33.6 39.8,10 69.6,24.9 	"/>
	<polygon class="st10" points="10,38.8 39.8,33.6 39.8,10 10,24.9 	"/>
	<polygon class="st11" points="69.6,38.8 39.8,40.9 10,38.8 39.8,33.6 	"/>
</g>
<path class="st12" d="M75.3,94.4c-10.5,0-19-8.5-19-19s8.5-19,19-19s19,8.5,19,19C94.3,85.8,85.8,94.4,75.3,94.4z"/>
<g id="Layer_1_1_">
	<g>
		<g>
			<g>
				<path class="st1" d="M64.3,70.5c0-0.1-0.1-0.2-0.1-0.3L64.3,70.5z"/>
			</g>
			<g>
				<path class="st1" d="M85.7,70.5l0.1-0.3C85.7,70.4,85.7,70.5,85.7,70.5z"/>
			</g>
			<g>
				<polygon class="st1" points="85.7,69.4 85.7,70.3 85.7,70.5 85.7,69.6 				"/>
			</g>
			<g>
				<polygon class="st1" points="64.3,69.6 64.3,70.5 64.2,70.3 64.2,69.4 				"/>
			</g>
			<g>
				<path class="st1" d="M85.7,67.6v0.9v0.1V67.6C85.7,67.7,85.7,67.7,85.7,67.6"/>
				<path class="st1" d="M85.7,67.7v0.9v0.1V67.7L85.7,67.7"/>
				<path class="st1" d="M85.7,67.8v0.9c0,0.1-0.1,0.1-0.1,0.2V68C85.6,67.9,85.7,67.8,85.7,67.8"/>
				<path class="st1" d="M85.6,68v0.9c-0.8,1.2-5.2,2.2-10.6,2.2c-6,0-10.7-1.1-10.7-2.6v-0.9c0,1.4,4.9,2.6,10.7,2.6
					C80.4,70.1,84.8,69.2,85.6,68"/>
			</g>
			<path class="st1" d="M85.7,67.6v0.9c0,1.4-4.9,2.6-10.7,2.6c-6,0-10.7-1.1-10.7-2.6v-0.9c0,1.4,4.9,2.6,10.7,2.6
				C80.9,70.1,85.7,69,85.7,67.6z"/>
			<g>
				<path class="st2" d="M75,65.1c6,0,10.7,1.1,10.7,2.6c0,1.4-4.9,2.6-10.7,2.6c-6,0-10.7-1.1-10.7-2.6S69,65.1,75,65.1z"/>
			</g>
			<g>
				<polygon class="st1" points="85.7,69.6 85.7,70.5 82.1,85.5 82.1,84.6 				"/>
			</g>
			<g>
				<polygon class="st1" points="67.8,84.6 67.8,85.5 64.3,70.5 64.3,69.6 				"/>
			</g>
			<g>
				<path class="st1" d="M82.1,84.6v0.9v0.1V84.6C82.1,84.7,82.1,84.7,82.1,84.6"/>
				<path class="st1" d="M82.1,84.7v0.9v0.1V84.7C82.1,84.8,82.1,84.7,82.1,84.7"/>
				<path class="st1" d="M82.1,84.8v0.9c0,0,0,0.1-0.1,0.1L82.1,84.8C82.1,84.9,82.1,84.9,82.1,84.8"/>
				<path class="st1" d="M82,84.9v0.9c-0.5,0.9-3.5,1.4-7.1,1.4c-3.9,0-7.2-0.8-7.2-1.7v-0.9c0,0.9,3.2,1.7,7.2,1.7
					C78.5,86.3,81.5,85.7,82,84.9"/>
			</g>
			<path class="st1" d="M82.1,84.6v0.9c0,0.9-3.2,1.7-7.2,1.7s-7.2-0.8-7.2-1.7v-0.9c0,0.9,3.2,1.7,7.2,1.7
				C79,86.3,82.1,85.5,82.1,84.6z"/>
			<g>
				<path class="st2" d="M75,71.8c5.5,0,10.1-0.9,10.7-2.2l-3.5,15c0,0.9-3.2,1.7-7.2,1.7s-7.2-0.8-7.2-1.7l-3.5-15
					C64.9,70.9,69.4,71.8,75,71.8z"/>
			</g>
		</g>
	</g>
	<path class="st13" d="M85.8,69.4L85.8,69.4L85.8,69.4L85.8,69.4z"/>
	<path class="st13" d="M85.8,69.3C85.7,69.3,85.7,69.3,85.8,69.3C85.7,69.3,85.7,69.3,85.8,69.3z"/>
</g>
</svg>
