<?xml version="1.0" encoding="UTF-8"?>
<!-- Generator: Adobe Illustrator 19.0.1, SVG Export Plug-In . SVG Version: 6.00 Build 0)  -->
<svg version="1.1" id="Layer_1" xmlns="http://www.w3.org/2000/svg" xmlns:xlink="http://www.w3.org/1999/xlink" x="0px" y="0px" width="100px" height="100px" viewBox="0 0 100 100" enable-background="new 0 0 100 100" xml:space="preserve">
<g id="Layer_1_13_">
	<g>
		<g>
			<g enable-background="new    ">
				<g>
					<rect x="18" y="73.669" fill="#3B4729" width="49.5" height="2.412"/>
				</g>
			</g>
		</g>
		<linearGradient id="SVGID_1_" gradientUnits="userSpaceOnUse" x1="18" y1="46.1036" x2="67.5" y2="46.1036">
			<stop offset="0" style="stop-color:#4C632D"/>
			<stop offset="0.1897" style="stop-color:#536D30"/>
			<stop offset="0.5293" style="stop-color:#648837"/>
			<stop offset="0.5982" style="stop-color:#698E38"/>
			<stop offset="1" style="stop-color:#4C632D"/>
		</linearGradient>
		<path fill="url(#SVGID_1_)" d="M18,18.538v55.131h49.5V18.538H18z M34.488,66.164h-9.214v-9.151h9.214V66.164z M34.488,51.296    h-9.214v-8.011h9.214V51.296z M34.488,37.568h-9.214v-9.149h9.214V37.568z M59.826,62.732H37.943v-2.287h21.883V62.732z     M59.826,49.005H37.943v-2.289h21.883V49.005z M59.826,34.136H37.943v-2.287h21.883V34.136z"/>
	</g>
</g>
<circle fill="#FFFFFF" stroke="#3B4729" stroke-width="3.1195" stroke-miterlimit="10" cx="69.428" cy="68.986" r="21.938"/>
<g id="Layer_166_1_">
	<g enable-background="new    ">
		<path fill="#50642D" d="M78.556,55.13v1.364C74.037,63.747,65.537,66.84,65.454,66.87c-0.062,0.022-0.125,0.091-0.179,0.184v-1.36    c0.054-0.096,0.117-0.165,0.179-0.187C65.537,65.479,74.037,62.383,78.556,55.13"/>
		<path fill="#50642D" d="M65.275,65.694v1.36c-0.045,0.081-0.088,0.179-0.122,0.286v-1.363    C65.187,65.869,65.23,65.772,65.275,65.694"/>
		<path fill="#50642D" d="M65.153,65.977v1.363c-0.048,0.141-0.085,0.295-0.106,0.436v-1.363    C65.068,66.272,65.106,66.116,65.153,65.977"/>
		<path fill="#50642D" d="M65.047,66.413v1.362c-0.014,0.097-0.022,0.185-0.022,0.261v-1.363    C65.025,66.596,65.033,66.507,65.047,66.413"/>
	</g>
	<path fill="#395225" d="M65.025,68.036v-1.363c0-0.384,0.197-1.089,0.429-1.166c0.084-0.028,8.583-3.124,13.102-10.377v1.364   C74.037,63.747,65.537,66.84,65.454,66.87C65.222,66.948,65.025,67.653,65.025,68.036z"/>
	<g enable-background="new    ">
		<path fill="#50642D" d="M79.24,56.753v1.363c-0.071,0.778-0.172,1.638-0.301,2.512v-1.363    C79.068,58.386,79.169,57.528,79.24,56.753"/>
		<path fill="#50642D" d="M78.939,59.265v1.363c-0.211,1.388-0.504,2.815-0.902,4.005V63.27    C78.435,62.082,78.728,60.653,78.939,59.265"/>
		<path fill="#50642D" d="M78.037,63.27v1.363c-0.197,0.593-0.421,1.126-0.673,1.566v-1.36C77.616,64.394,77.84,63.859,78.037,63.27    "/>
		<path fill="#50642D" d="M77.364,64.839v1.36c-0.179,0.315-0.374,0.585-0.584,0.796c-1.365,1.348-4.962,2.082-8.839,2.4V68.03    c3.876-0.315,7.473-1.049,8.839-2.405C76.99,65.421,77.185,65.151,77.364,64.839"/>
	</g>
	<path fill="#395225" d="M79.24,56.753v1.363c-0.285,3.059-0.987,7.409-2.46,8.879c-1.365,1.348-4.962,2.082-8.839,2.4v-1.364   c3.876-0.315,7.473-1.049,8.839-2.405C78.253,64.163,78.955,59.812,79.24,56.753z"/>
	<g>
		
			<linearGradient id="SVGID_2_" gradientUnits="userSpaceOnUse" x1="63.6168" y1="32.9324" x2="79.2397" y2="32.9324" gradientTransform="matrix(1 0 0 -1 0 102)">
			<stop offset="0" style="stop-color:#769C3E"/>
			<stop offset="1" style="stop-color:#45642F"/>
		</linearGradient>
		<path fill="url(#SVGID_2_)" d="M65.948,67.433c0.36-0.118,8.556-2.979,13.291-10.68c-0.285,3.06-0.987,7.41-2.46,8.873    c-1.365,1.356-4.962,2.09-8.839,2.405v14.975h-4.324V68.049c0.33-3.425,0.567-6.203,3.55-8.858    c2.105-1.88,7.828-3.602,11.389-4.061c-4.518,7.254-13.018,10.349-13.102,10.377c-0.275,0.092-0.502,1.068-0.407,1.342    c0.076,0.218,0.515,0.615,0.733,0.615C65.835,67.464,65.893,67.459,65.948,67.433z"/>
	</g>
	<g>
		<rect x="63.617" y="83.005" fill="#395225" width="4.324" height="1.364"/>
	</g>
</g>
</svg>