<?xml version="1.0" encoding="utf-8"?>
<!-- Generator: Adobe Illustrator 19.2.1, SVG Export Plug-In . SVG Version: 6.00 Build 0)  -->
<svg version="1.1" id="Layer_1" xmlns:svg="http://www.w3.org/2000/svg"
	 xmlns="http://www.w3.org/2000/svg" xmlns:xlink="http://www.w3.org/1999/xlink" x="0px" y="0px" width="100px" height="100px" viewBox="0 0 100 100"
	 style="enable-background:new 0 0 100 100;" xml:space="preserve">
<style type="text/css">
	.st0{fill:#B7CA9D;}
	.st1{fill:#759C3E;}
	.st2{fill:#4B612C;}
	.st3{fill:#FFFFFF;}
	.st4{fill:#9D5125;}
	.st5{clip-path:url(#SVGID_2_);fill:#4B612C;}
	.st6{clip-path:url(#SVGID_4_);fill:#4B612C;}
	.st7{clip-path:url(#SVGID_6_);fill:#4B612C;}
	.st8{clip-path:url(#SVGID_8_);fill:#4B612C;}
	.st9{clip-path:url(#SVGID_10_);fill:#4B612C;}
</style>
<g>
	<polygon class="st0" points="83.7,63.6 51.9,59 20.1,63.6 51.9,74.9 	"/>
	<polygon class="st1" points="67.8,62 42.4,68 42.4,14.1 67.8,24 	"/>
	<polygon class="st1" points="50.9,61.4 31.9,64.8 31.9,26 50.9,30.2 	"/>
	<polygon class="st2" points="45.1,68.8 51.9,70.8 51.9,55 45.1,54.3 	"/>
	<polygon class="st2" points="42.4,67.9 35,65.7 35,17.8 42.4,14.1 	"/>
	<polygon class="st2" points="51.9,74.9 20.1,63.6 20.1,70.2 51.9,86.1 	"/>
	<polygon class="st1" points="83.7,70.2 51.9,86.1 51.9,74.9 83.7,63.6 	"/>
	<polygon class="st2" points="26.5,63.1 31.9,64.7 31.9,25.9 26.5,28 	"/>
	<polygon class="st1" points="74.8,52.8 51.9,55 51.9,70.8 74.8,63.9 	"/>
	<polygon class="st0" points="74.8,52.8 67.1,52.8 45.1,54.3 51.9,55 	"/>
</g>
<g id="nyt_x5F_exporter_x5F_info">
</g>
<path class="st3" d="M75.3,94.4c-10.5,0-19-8.5-19-19s8.5-19,19-19s19,8.5,19,19C94.3,85.8,85.8,94.4,75.3,94.4z"/>
<g>
	<path class="st4" d="M88.8,77.3v1c0,2.2-2.4,4.5-5.4,4.5v-1C86.4,81.8,88.8,79.5,88.8,77.3z"/>
	<path class="st2" d="M88.8,77.3v1c0,2.2-2.4,4.5-5.4,4.5v-1C86.4,81.8,88.8,79.5,88.8,77.3z"/>
	<g>
		<defs>
			<path id="SVGID_1_" d="M88.8,77.3v1c0,2.2-2.4,4.5-5.4,4.5v-1C86.4,81.8,88.8,79.5,88.8,77.3z"/>
		</defs>
		<clipPath id="SVGID_2_">
			<use xlink:href="#SVGID_1_"  style="overflow:visible;"/>
		</clipPath>
		<path class="st5" d="M88.8,77.3v1c0,0.2,0,0.3,0,0.5v-1C88.8,77.6,88.8,77.5,88.8,77.3"/>
	</g>
	<g>
		<defs>
			<path id="SVGID_3_" d="M88.8,77.3v1c0,2.2-2.4,4.5-5.4,4.5v-1C86.4,81.8,88.8,79.5,88.8,77.3z"/>
		</defs>
		<clipPath id="SVGID_4_">
			<use xlink:href="#SVGID_3_"  style="overflow:visible;"/>
		</clipPath>
		<path class="st6" d="M88.8,77.8v1c0,0.2-0.1,0.4-0.1,0.6v-1C88.7,78.1,88.8,77.9,88.8,77.8"/>
	</g>
	<g>
		<defs>
			<path id="SVGID_5_" d="M88.8,77.3v1c0,2.2-2.4,4.5-5.4,4.5v-1C86.4,81.8,88.8,79.5,88.8,77.3z"/>
		</defs>
		<clipPath id="SVGID_6_">
			<use xlink:href="#SVGID_5_"  style="overflow:visible;"/>
		</clipPath>
		<path class="st7" d="M88.7,78.3v1c-0.1,0.2-0.2,0.5-0.3,0.7v-1C88.5,78.8,88.6,78.6,88.7,78.3"/>
	</g>
	<g>
		<defs>
			<path id="SVGID_7_" d="M88.8,77.3v1c0,2.2-2.4,4.5-5.4,4.5v-1C86.4,81.8,88.8,79.5,88.8,77.3z"/>
		</defs>
		<clipPath id="SVGID_8_">
			<use xlink:href="#SVGID_7_"  style="overflow:visible;"/>
		</clipPath>
		<path class="st8" d="M88.4,79v1c-0.8,1.5-2.7,2.7-4.9,2.7v-1C85.6,81.8,87.5,80.6,88.4,79"/>
	</g>
	<polygon class="st2" points="83.7,81.6 83.4,82.8 67.5,82.8 67.2,81.6 	"/>
	<path class="st4" d="M67.5,81.8v1c-3,0-5.4-2.2-5.4-4.5v-1C62.1,79.5,64.5,81.8,67.5,81.8z"/>
	<path class="st2" d="M67.5,81.8v1c-3,0-5.4-2.2-5.4-4.5v-1C62.1,79.5,64.5,81.8,67.5,81.8z"/>
	<g>
		<defs>
			<path id="SVGID_9_" d="M67.5,81.8v1c-3,0-5.4-2.2-5.4-4.5v-1C62.1,79.5,64.5,81.8,67.5,81.8z"/>
		</defs>
		<clipPath id="SVGID_10_">
			<use xlink:href="#SVGID_9_"  style="overflow:visible;"/>
		</clipPath>
		<path class="st9" d="M67.5,81.8v1c-3,0-5.4-2.2-5.4-4.5v-1C62.1,79.5,64.5,81.8,67.5,81.8"/>
	</g>
	<path class="st1" d="M72.4,65.2c2.8,0,5.2,1.7,6.2,4c0.6-0.4,1.2-0.6,2-0.6c1.9,0,3.4,1.5,3.5,3.3c2.7,0.2,4.8,2.8,4.8,4.9v0.4
		c0,2.2-2.4,4.5-5.4,4.5h-16c-3,0-5.4-2.2-5.4-4.5v-0.4c0-1.7,1.4-4.1,3.5-4.6c0-0.1,0-0.1,0-0.2C65.6,68.3,68.6,65.2,72.4,65.2z"/>
	<path class="st3" d="M68.8,73.2L67,79.4h1l0.4-1.5h1.8l0.4,1.5h1l-1.7-6.2C70.1,73.2,68.8,73.2,68.8,73.2z M68.7,77.1l0.7-3.1
		l0.7,3.1H68.7z"/>
	<polygon class="st3" points="76.2,78 76.2,78 75.4,73.2 74.3,73.2 73.5,78 72.6,73.2 71.6,73.2 72.8,79.4 74,79.4 74.8,74.7
		75.6,79.4 76.8,79.4 78,73.2 77,73.2 	"/>
	<path class="st3" d="M81.3,76l-0.7-0.2c-0.7-0.3-0.9-0.5-0.9-1.1c0-0.7,0.4-0.9,0.8-0.9c0.6,0,0.9,0.3,0.9,0.9v0.1h1v-0.1
		c0-0.6-0.2-1.6-1.8-1.6c-1.2,0-2,0.6-2,1.8c0,0.9,0.4,1.4,1.3,1.7l0.7,0.2c0.6,0.2,0.9,0.5,0.9,1.1c0,0.5-0.3,0.9-1,0.9
		s-1-0.4-1-1.1v-0.2h-1v0.1c0,0.9,0.4,1.9,1.9,1.9c1.3,0,2.1-0.5,2.1-1.9C82.5,76.8,82.2,76.3,81.3,76z"/>
</g>
</svg>
