<?xml version="1.0" encoding="utf-8"?>
<!-- Generator: Adobe Illustrator 19.2.1, SVG Export Plug-In . SVG Version: 6.00 Build 0)  -->
<svg version="1.1" id="Layer_1" xmlns:svg="http://www.w3.org/2000/svg"
	 xmlns="http://www.w3.org/2000/svg" xmlns:xlink="http://www.w3.org/1999/xlink" x="0px" y="0px" width="100px" height="100px" viewBox="0 0 100 100"
	 style="enable-background:new 0 0 100 100;" xml:space="preserve">
<style type="text/css">
	.st0{fill:#F58435;}
	.st1{fill:#9D5025;}
	.st2{fill:#6B3B19;}
	.st3{fill:#FFFFFF;}
	.st4{fill:#9D5125;}
	.st5{fill:#F58536;}
</style>
<g>
	<polygon class="st0" points="56.8,50 24,50 24,72.6 56.8,65.2 	"/>
	<polygon class="st0" points="66.6,50 31,50 31,76.1 66.6,66 	"/>
	<polygon class="st0" points="74.3,50 39.7,50 39.7,80.5 74.3,67.8 	"/>
	<polygon class="st0" points="50.8,86 50.8,50 80.6,50 80.6,71.1 	"/>
	<polygon class="st1" points="24,50 24,72.6 21,71.1 21,50 	"/>
	<polygon class="st1" points="31,50 31,76.1 27.3,74.3 27.3,50 	"/>
	<polygon class="st1" points="39.7,50 39.7,80.5 35.1,78.2 35.1,50 	"/>
	<polygon class="st1" points="44.9,83.1 44.9,50 50.8,50 50.8,86 	"/>
	<polygon class="st0" points="80.6,42.8 50.8,37.6 50.8,14 80.6,28.9 	"/>
	<polygon class="st1" points="21,42.8 50.8,37.6 50.8,14 21,28.9 	"/>
	<polygon class="st2" points="80.6,42.8 50.8,44.9 21,42.8 50.8,37.6 	"/>
</g>
<g id="nyt_x5F_exporter_x5F_info">
</g>
<path class="st3" d="M75.3,94.4c-10.5,0-19-8.5-19-19s8.5-19,19-19s19,8.5,19,19C94.3,85.8,85.8,94.4,75.3,94.4z"/>
<g>
	<g>
		<polygon class="st1" points="85,86.9 85,88.1 74.5,88.1 74.1,86.6 		"/>
	</g>
	<g>
		<g>
			<polygon class="st1" points="76.6,66.9 76.6,68.1 68.8,68.1 67.7,66.7 			"/>
		</g>
		<g>
			<path class="st1" d="M68.8,66.9v1.2c-0.4,0-0.8,0.2-1,0.6v-1.2C68,67.2,68.4,66.9,68.8,66.9"/>
			<path class="st1" d="M67.8,67.6v1.2c0,0.1-0.1,0.1-0.1,0.2v-1.2C67.7,67.7,67.8,67.6,67.8,67.6"/>
			<path class="st1" d="M67.7,67.8v1.2c0,0.1,0,0.1,0,0.2v-1.2C67.7,67.9,67.7,67.8,67.7,67.8"/>
			<path class="st1" d="M67.7,67.9v1.2c0,0.1,0,0.1,0,0.2v-1.2C67.7,67.9,67.7,67.9,67.7,67.9"/>
		</g>
		<path class="st1" d="M68.8,66.9v1.2c-0.6,0-1.1,0.5-1.1,1.1v-1.2C67.7,67.4,68.2,66.9,68.8,66.9z"/>
		<g>
			<polygon class="st1" points="81.3,72.4 81.3,73.6 73.4,73.6 72.8,72.2 			"/>
		</g>
		<g>
			<path class="st1" d="M73.5,72.4v1.2c-0.4,0-0.8,0.2-1,0.6v-1.2C72.7,72.6,73.1,72.4,73.5,72.4"/>
			<path class="st1" d="M72.5,72.9v1.2c0,0.1-0.1,0.1-0.1,0.2v-1.2C72.5,73.1,72.5,73.1,72.5,72.9"/>
			<path class="st1" d="M72.4,73.1v1.2c0,0.1,0,0.1,0,0.2v-1.2C72.4,73.2,72.4,73.2,72.4,73.1"/>
			<path class="st1" d="M72.4,73.4v1.2c0,0.1,0,0.1,0,0.2v-1.2C72.4,73.4,72.4,73.4,72.4,73.4"/>
		</g>
		<path class="st1" d="M73.5,72.4v1.2c-0.6,0-1.1,0.5-1.1,1.1v-1.2C72.4,72.9,72.9,72.4,73.5,72.4z"/>
		<g>
			<polygon class="st1" points="67.7,75.9 67.7,77.1 65.1,77.1 64.7,75.8 			"/>
		</g>
		<g>
			<path class="st1" d="M65.1,75.9v1.2c-0.6,0-1.1-0.5-1.1-1.1v-1.2C63.9,75.4,64.4,75.9,65.1,75.9"/>
		</g>
		<path class="st1" d="M65.1,75.9v1.2c-0.6,0-1.1-0.5-1.1-1.1v-1.2C63.9,75.4,64.4,75.9,65.1,75.9z"/>
		<g>
			<rect x="69.7" y="81.4" class="st1" width="2.7" height="1.2"/>
		</g>
		<g>
			<path class="st1" d="M69.8,81.4v1.2c-0.6,0-1.1-0.5-1.1-1.1v-1.2C68.6,80.9,69.1,81.4,69.8,81.4"/>
		</g>
		<path class="st1" d="M69.8,81.4v1.2c-0.6,0-1.1-0.5-1.1-1.1v-1.2C68.6,80.9,69.1,81.4,69.8,81.4z"/>
		<g>
			<path class="st4" d="M74.5,86.9v1.2c-0.6,0-1.1-0.5-1.1-1.1v-1.2C73.4,86.4,73.9,86.9,74.5,86.9"/>
		</g>
		<path class="st4" d="M74.5,86.9v1.2c-0.6,0-1.1-0.5-1.1-1.1v-1.2C73.4,86.4,73.9,86.9,74.5,86.9z"/>
		<g>
			<path class="st1" d="M86.1,85.8v1.2c0,0.1,0,0.1,0,0.2v-1.2C86.1,85.9,86.1,85.9,86.1,85.8"/>
			<path class="st1" d="M86.1,85.9v1.2c0,0.1,0,0.1,0,0.2v-1.2C86.1,86.1,86.1,86.1,86.1,85.9"/>
			<path class="st1" d="M86,86.1v1.2c0,0.1-0.1,0.1-0.1,0.2v-1.2C86,86.2,86,86.2,86,86.1"/>
			<path class="st1" d="M86,86.4v1.2c-0.2,0.4-0.6,0.6-1,0.6v-1.2C85.4,86.9,85.8,86.6,86,86.4"/>
		</g>
		<path class="st1" d="M86.1,85.8v1.2c0,0.6-0.5,1.1-1.1,1.1v-1.1C85.6,86.9,86.1,86.4,86.1,85.8z"/>
		<g>
			<path class="st5" d="M75.5,63c0.6,0,1.1,0.5,1.1,1.1v2.7h-7.8c-0.6,0-1.1,0.5-1.1,1.1v7.9h-2.6c-0.6,0-1.1-0.5-1.1-1.1V64.2
				c0-0.6,0.5-1.1,1.1-1.1C65.1,63,75.5,63,75.5,63z"/>
		</g>
		<g>
			<path class="st5" d="M80.2,68.6c0.6,0,1.1,0.5,1.1,1.1v2.7h-7.8c-0.6,0-1.1,0.5-1.1,1.1v7.9h-2.6c-0.6,0-1.1-0.5-1.1-1.1V69.7
				c0-0.6,0.5-1.1,1.1-1.1H80.2L80.2,68.6z"/>
		</g>
		<g>
			<path class="st5" d="M85,74.1c0.6,0,1.1,0.5,1.1,1.1v10.6c0,0.6-0.5,1.1-1.1,1.1H74.6c-0.6,0-1.1-0.5-1.1-1.1V75.1
				c0-0.6,0.5-1.1,1.1-1.1H85z"/>
		</g>
	</g>
</g>
</svg>
