<?xml version="1.0" encoding="utf-8"?>
<!-- Generator: Adobe Illustrator 19.2.1, SVG Export Plug-In . SVG Version: 6.00 Build 0)  -->
<svg version="1.1" id="Layer_1" xmlns:svg="http://www.w3.org/2000/svg"
	 xmlns="http://www.w3.org/2000/svg" xmlns:xlink="http://www.w3.org/1999/xlink" x="0px" y="0px" width="100px" height="100px" viewBox="0 0 100 100"
	 style="enable-background:new 0 0 100 100;" xml:space="preserve">
<style type="text/css">
	.st0{fill:#F58435;}
	.st1{fill:#9D5025;}
	.st2{fill:#6B3B19;}
	.st3{fill:#FFFFFF;}
	.st4{fill:#F58536;}
	.st5{enable-background:new    ;}
</style>
<g>
	<polygon class="st0" points="56.8,50 24,50 24,72.6 56.8,65.2 	"/>
	<polygon class="st0" points="66.6,50 31,50 31,76.1 66.6,66 	"/>
	<polygon class="st0" points="74.3,50 39.7,50 39.7,80.5 74.3,67.8 	"/>
	<polygon class="st0" points="50.8,86 50.8,50 80.6,50 80.6,71.1 	"/>
	<polygon class="st1" points="24,50 24,72.6 21,71.1 21,50 	"/>
	<polygon class="st1" points="31,50 31,76.1 27.3,74.3 27.3,50 	"/>
	<polygon class="st1" points="39.7,50 39.7,80.5 35.1,78.2 35.1,50 	"/>
	<polygon class="st1" points="44.9,83.1 44.9,50 50.8,50 50.8,86 	"/>
	<polygon class="st0" points="80.6,42.8 50.8,37.6 50.8,14 80.6,28.9 	"/>
	<polygon class="st1" points="21,42.8 50.8,37.6 50.8,14 21,28.9 	"/>
	<polygon class="st2" points="80.6,42.8 50.8,44.9 21,42.8 50.8,37.6 	"/>
</g>
<g id="nyt_x5F_exporter_x5F_info">
</g>
<path class="st3" d="M75.3,94.4c-10.5,0-19-8.5-19-19s8.5-19,19-19s19,8.5,19,19C94.3,85.8,85.8,94.4,75.3,94.4z"/>
<g>
	<path class="st4" d="M64.1,63.5V87h21.1V63.5H64.1z M71.1,83.8h-3.9v-3.9h3.9V83.8z M71.1,77.5h-3.9v-3.4h3.9V77.5z M71.1,71.6
		h-3.9v-3.9h3.9V71.6z M81.9,82.3h-9.3v-1h9.3V82.3z M81.9,76.5h-9.3v-1h9.3V76.5z M81.9,70.2h-9.3v-1h9.3V70.2z"/>
	<g>
		<g class="st5">
			<g>
				<rect x="64.1" y="87" class="st1" width="21.1" height="1"/>
			</g>
		</g>
	</g>
</g>
</svg>
