<?xml version="1.0" encoding="utf-8"?>
<!-- Generator: Adobe Illustrator 19.2.1, SVG Export Plug-In . SVG Version: 6.00 Build 0)  -->
<svg version="1.1" id="Layer_1" xmlns:svg="http://www.w3.org/2000/svg"
	 xmlns="http://www.w3.org/2000/svg" xmlns:xlink="http://www.w3.org/1999/xlink" x="0px" y="0px" width="100px" height="100px" viewBox="0 0 100 100"
	 style="enable-background:new 0 0 100 100;" xml:space="preserve">
<style type="text/css">
	.st0{fill:#F58435;}
	.st1{fill:#9D5025;}
	.st2{fill:#6B3B19;}
	.st3{fill:#FFFFFF;}
</style>
<g id="nyt_x5F_exporter_x5F_info">
</g>
<g>
	<polygon class="st0" points="56.8,50 24,50 24,72.6 56.8,65.2 	"/>
	<polygon class="st0" points="66.6,50 31,50 31,76.1 66.6,66 	"/>
	<polygon class="st0" points="74.3,50 39.7,50 39.7,80.5 74.3,67.8 	"/>
	<polygon class="st0" points="50.8,86 50.8,50 80.6,50 80.6,71.1 	"/>
	<polygon class="st1" points="24,50 24,72.6 21,71.1 21,50 	"/>
	<polygon class="st1" points="31,50 31,76.1 27.3,74.3 27.3,50 	"/>
	<polygon class="st1" points="39.7,50 39.7,80.5 35.1,78.2 35.1,50 	"/>
	<polygon class="st1" points="44.9,83.1 44.9,50 50.8,50 50.8,86 	"/>
	<polygon class="st0" points="80.6,42.8 50.8,37.6 50.8,14 80.6,28.9 	"/>
	<polygon class="st1" points="21,42.8 50.8,37.6 50.8,14 21,28.9 	"/>
	<polygon class="st2" points="80.6,42.8 50.8,44.9 21,42.8 50.8,37.6 	"/>
</g>
<path class="st3" d="M75.3,94.4c-10.5,0-19-8.5-19-19s8.5-19,19-19s19,8.5,19,19C94.3,85.8,85.8,94.4,75.3,94.4z"/>
<g>
	<path class="st0" d="M89,80.6c-0.3,0.1-0.5,0.1-0.8,0.2c-3.9,1.7-7.9,3.3-11.8,5c-0.3,0.1-0.6,0.2-0.9,0.4c0-2,0-3.9,0-5.8
		c0-0.2,0.3-0.4,0.5-0.4c1.9-0.8,3.8-1.6,5.7-2.4c0.5-0.2,0.8-0.5,0.8-1.1c-0.1-1.6,0-3.3,0-4.9c0-0.6,0.2-0.9,0.7-1.1
		c1.9-0.8,3.9-1.6,5.8-2.4C89,72.2,89,76.4,89,80.6z"/>
	<path class="st1" d="M61.6,75.6c4.3,1.5,8.6,2.9,12.9,4.4c0.2,0.1,0.5,0.3,0.5,0.5c0,1.9,0,3.7,0,5.7c-4.5-1.5-8.9-3-13.4-4.6
		C61.6,79.6,61.6,77.6,61.6,75.6z"/>
	<path class="st1" d="M68.6,66.2c2.2,0.8,4.4,1.5,6.6,2.3c2.1,0.7,4.1,1.4,6.2,2.2c0.2,0.1,0.5,0.4,0.6,0.5c0,1.9,0,3.7,0,5.7
		c-1.5-0.5-2.9-1-4.3-1.5c-2.8-1-5.7-2-8.5-2.9c-0.4-0.1-0.6-0.3-0.6-0.8C68.6,69.8,68.6,68,68.6,66.2z"/>
	<path class="st0" d="M81.5,77.2c-2,0.9-4,1.7-6,2.5c-0.2,0.1-0.4,0.1-0.6,0c-4.2-1.4-8.3-2.9-12.5-4.3c-0.1,0-0.1-0.1-0.2-0.2
		c2-0.9,4-1.7,6-2.5c0.2-0.1,0.4,0,0.6,0c4.2,1.4,8.3,2.9,12.5,4.3C81.3,77,81.3,77.1,81.5,77.2z"/>
	<path class="st0" d="M88.4,67.8c-2.1,0.9-4,1.7-6,2.5c-0.2,0.1-0.4,0.1-0.6,0c-4.2-1.4-8.3-2.9-12.5-4.3c-0.1,0-0.1-0.1-0.2-0.2
		c2-0.9,4-1.7,6-2.5c0.2-0.1,0.4,0,0.6,0c4.2,1.4,8.3,2.9,12.5,4.3C88.3,67.6,88.3,67.6,88.4,67.8z"/>
</g>
</svg>
