<?xml version="1.0" encoding="utf-8"?>
<!-- Generator: Adobe Illustrator 19.2.1, SVG Export Plug-In . SVG Version: 6.00 Build 0)  -->
<svg version="1.1" id="Layer_1" xmlns:svg="http://www.w3.org/2000/svg"
	 xmlns="http://www.w3.org/2000/svg" xmlns:xlink="http://www.w3.org/1999/xlink" x="0px" y="0px" width="100px" height="100px" viewBox="0 0 100 100"
	 style="enable-background:new 0 0 100 100;" xml:space="preserve">
<style type="text/css">
	.st0{fill:#692F56;}
	.st1{fill:#AD688B;}
	.st2{fill:#512843;}
	.st3{fill:#CFB2C1;}
	.st4{fill:#FFFFFF;}
</style>
<polygon class="st0" points="55.5,37.2 66.6,35.4 66.6,20.8 55.5,24.3 "/>
<polygon class="st1" points="81,56.7 49.9,61.4 49.9,38.7 81,43.4 "/>
<polygon class="st1" points="61.3,34.2 49.9,31.4 49.9,12.5 61.3,18.2 "/>
<polygon class="st1" points="61.4,65.8 50.1,68.6 50.1,87.5 61.4,81.8 "/>
<polygon class="st1" points="73.6,37.2 66.5,35.4 66.5,20.8 73.6,24.3 "/>
<polygon class="st2" points="73.7,37.2 62.9,38.6 55.5,37.2 66.7,35.4 "/>
<polygon class="st1" points="44.5,37.2 33.4,35.4 33.4,20.8 44.5,24.3 "/>
<polygon class="st0" points="19,56.7 50.1,61.4 50.1,38.7 19,43.4 "/>
<polygon class="st0" points="38.7,34.2 50.1,31.4 50.1,12.5 38.7,18.2 "/>
<polygon class="st0" points="38.7,65.8 50.1,68.6 50.1,87.5 38.7,81.8 "/>
<polygon class="st0" points="26.4,37.2 33.5,35.4 33.5,20.8 26.4,24.3 "/>
<polygon class="st2" points="26.4,37.2 37.2,38.6 44.6,37.2 33.4,35.4 "/>
<polygon class="st2" points="61.4,34.2 50.1,36.3 38.7,34.2 50.1,31.4 "/>
<polygon class="st3" points="61.4,65.8 50.1,63.7 38.7,65.8 50.1,68.6 "/>
<path class="st4" d="M75.3,94.4c-10.5,0-19-8.5-19-19s8.5-19,19-19s19,8.5,19,19C94.3,85.8,85.8,94.4,75.3,94.4z"/>
<g>
	<g>
		<path class="st0" d="M85.9,82.5H68.5c-0.5,0-1-0.4-1-1v2.2c0,0.1,0,0.2,0,0.3c0.1,0.3,0.3,0.5,0.5,0.6c0.1,0,0.2,0.1,0.4,0.1h17.4
			c0.5,0,1-0.4,1-1.4v-1.7C86.9,82.6,86.5,82.5,85.9,82.5z"/>
	</g>
	<path class="st1" d="M85.9,72.3h-2.3h-9v-1.1c0-0.4-0.4-0.8-0.8-0.8h-5.5c-0.4,0-0.8,0.4-0.8,0.8v2.1v1.2v3.1v2.1v0.1v2.7
		c0,0.5,0.4,1,1,1h17.4c0.5,0,1,0.1,1-1v-9.2C86.9,72.7,86.5,72.3,85.9,72.3z"/>
	<g>
		<path class="st1" d="M83.6,68.1c0-0.5-0.4-1-1-1h-2.3h-9V66c0-0.4-0.4-0.8-0.8-0.8H65c-0.4,0-0.8,0.4-0.8,0.8v2.1v1.2v3.1v2.1v0.1
			v3.2h1.3v-3.4v-1.2v-2.1c0-0.7,0.3-1.4,0.7-1.9c0.5-0.6,1.3-1,2.1-1h2.9h2.6c1.2,0,2.3,0.8,2.7,1.9h7.1L83.6,68.1z"/>
	</g>
	<path class="st0" d="M64.3,76.6v1.2c0,0.5,0.4,1,1,1h0.3v-0.1v-1.1h-0.3C64.7,77.6,64.3,77.2,64.3,76.6z"/>
</g>
<path class="st0" d="M69.1,72.4l8.8,2.7l-4.6,7.6l-0.2-3.4c0,0-5.4-0.4-11.3,4.4c0,0,3.6-4.4,10-8.4L69.1,72.4z"/>
</svg>
