<?xml version="1.0" encoding="utf-8"?>
<!-- Generator: Adobe Illustrator 19.2.1, SVG Export Plug-In . SVG Version: 6.00 Build 0)  -->
<svg version="1.1" id="Layer_1" xmlns:svg="http://www.w3.org/2000/svg"
	 xmlns="http://www.w3.org/2000/svg" xmlns:xlink="http://www.w3.org/1999/xlink" x="0px" y="0px" width="100px" height="100px" viewBox="0 0 100 100"
	 style="enable-background:new 0 0 100 100;" xml:space="preserve">
<style type="text/css">
	.st0{fill:#692F56;}
	.st1{fill:#AD688B;}
	.st2{fill:#512843;}
	.st3{fill:#CFB2C1;}
	.st4{fill:#FFFFFF;}
	.st5{fill:none;}
</style>
<polygon class="st0" points="55.5,37.2 66.6,35.4 66.6,20.8 55.5,24.3 "/>
<polygon class="st1" points="81,56.7 49.9,61.4 49.9,38.7 81,43.4 "/>
<polygon class="st1" points="61.3,34.2 49.9,31.4 49.9,12.5 61.3,18.2 "/>
<polygon class="st1" points="61.4,65.8 50.1,68.6 50.1,87.5 61.4,81.8 "/>
<polygon class="st1" points="73.6,37.2 66.5,35.4 66.5,20.8 73.6,24.3 "/>
<polygon class="st2" points="73.7,37.2 62.9,38.6 55.5,37.2 66.7,35.4 "/>
<polygon class="st1" points="44.5,37.2 33.4,35.4 33.4,20.8 44.5,24.3 "/>
<polygon class="st0" points="19,56.7 50.1,61.4 50.1,38.7 19,43.4 "/>
<polygon class="st0" points="38.7,34.2 50.1,31.4 50.1,12.5 38.7,18.2 "/>
<polygon class="st0" points="38.7,65.8 50.1,68.6 50.1,87.5 38.7,81.8 "/>
<polygon class="st0" points="26.4,37.2 33.5,35.4 33.5,20.8 26.4,24.3 "/>
<polygon class="st2" points="26.4,37.2 37.2,38.6 44.6,37.2 33.4,35.4 "/>
<polygon class="st2" points="61.4,34.2 50.1,36.3 38.7,34.2 50.1,31.4 "/>
<polygon class="st3" points="61.4,65.8 50.1,63.7 38.7,65.8 50.1,68.6 "/>
<path class="st4" d="M75.3,94.4c-10.5,0-19-8.5-19-19s8.5-19,19-19s19,8.5,19,19C94.3,85.8,85.8,94.4,75.3,94.4z"/>
<path class="st5" d="M75.6,73.8c0.3,0.1,0.6,0.1,0.9,0.2c-0.2-0.5-0.3-1-0.5-1.5C75.9,72.9,75.7,73.4,75.6,73.8z"/>
<path class="st5" d="M73.4,74.5c0-0.5,0.3-0.9,0.9-0.9c0.2,0,0.4-0.2,0.5-0.4c0.3-0.6,0.5-1.2,0.7-1.8c0-0.1,0.1-0.1,0.1-0.2
	c-0.2-0.4-0.6-0.6-1.1-0.7c-2.7-0.4-5.4-0.5-8.1,0c-0.4,0.1-1,0.3-1.1,0.7c-0.5,1.2-0.9,2.4-1.4,3.8c3.5,0.8,6.8,0.9,10.2,0.5
	c0-0.1,0-0.2,0-0.3C73.8,75,73.4,74.7,73.4,74.5z"/>
<path class="st5" d="M82.9,76.8c0,0.1,0.2,0.3,0.4,0.3c0.3,0,0.6,0,0.8,0c0,0,0,0,0,0.1c0.4-0.1,0.8-0.1,1.2-0.2
	c0.5-0.1,0.4-0.6,0.3-1c0-0.2-0.4-0.5-0.6-0.4c-0.7,0.2-1.3,0.5-2,0.8C82.9,76.4,82.9,76.6,82.9,76.8z"/>
<path class="st5" d="M77.3,70.7c-0.1,0-0.3,0.1-0.5,0.2c0,0.1,0.1,0.2,0.2,0.4c0.2,0.9,0.7,1.8,1,2.7c0,0.1,0.1,0.2,0.1,0.2
	c2.2,0.2,4.3,0.1,6.6-0.4c-0.3-0.8-0.5-1.5-0.7-2.3c-0.1-0.5-0.5-0.8-1-0.8c-0.2,0-0.3,0-0.5-0.1c-0.1,0.3-0.2,0.6-0.3,0.9
	c-0.5,0-0.9,0-1.4,0c-0.1-0.1-0.2-0.2-0.2-0.3c0-0.2,0-0.5,0-0.7C79.5,70.5,78.4,70.5,77.3,70.7z"/>
<path class="st5" d="M87.8,68.3c-0.4,0.1-0.9,0.3-1.3,0.5c-0.1,0-0.1,0.2-0.1,0.3c0,0.1,0.1,0.2,0.2,0.2c0.2,0,0.4,0,0.5,0
	c0,0,0,0,0,0c0.3,0,0.5,0,0.7-0.1c0.3-0.1,0.3-0.4,0.2-0.6C88.1,68.5,87.8,68.3,87.8,68.3z"/>
<path class="st5" d="M81.6,68.4c-0.2-0.1-0.5-0.1-0.6,0.2c-0.1,0.4,0,0.7,0.4,0.7c0.2,0,0.3,0,0.5,0c0,0,0,0,0,0c0.2,0,0.3,0,0.5,0
	c0.1,0,0.2-0.1,0.4-0.2c-0.1-0.1-0.1-0.3-0.2-0.4C82.2,68.6,81.9,68.5,81.6,68.4z"/>
<path class="st5" d="M65.9,78.4c-0.7-0.3-1.4-0.6-2.1-0.9c-0.5-0.2-1.1-0.3-1.4,0.5c-0.3,1,0.1,1.5,1,1.6c0.4,0,0.7,0,1.1,0
	c0,0,0,0,0,0c0.3,0,0.7,0.1,1,0c0.3-0.1,0.5-0.3,0.8-0.5C66.2,78.9,66.1,78.5,65.9,78.4z"/>
<path class="st5" d="M87,65.7c-0.1-0.3-0.3-0.5-0.6-0.6c-1.2-0.2-2.4-0.2-3.7,0c-0.2,0-0.4,0.2-0.5,0.3c-0.2,0.5-0.4,1.1-0.6,1.7
	c2,0.4,3.9,0.4,5.9,0C87.3,66.7,87.2,66.2,87,65.7z"/>
<path class="st0" d="M77,71.2c0-0.1-0.1-0.2-0.2-0.4c-0.1,0.1-0.3,0.2-0.3,0.3c-0.2,0.4-0.3,0.9-0.5,1.3c0.2,0.5,0.3,1,0.5,1.5
	c0.5,0.1,1,0.2,1.6,0.2c0-0.1-0.1-0.1-0.1-0.2C77.7,73.1,77.2,72.2,77,71.2z"/>
<path class="st0" d="M77.7,79.5c-0.3,0.1-0.7,0.1-1,0.2c-0.1,0.3-0.2,0.6-0.3,0.8c-0.7,0-1.4,0-2.1,0C74.2,80.3,74,80.1,74,80
	c0-1.5,0-3.1,0-4.6c-3.4,0.4-6.8,0.3-10.2-0.5c0.5-1.3,0.8-2.6,1.4-3.8c0.1-0.3,0.7-0.6,1.1-0.7c2.7-0.5,5.4-0.4,8.1,0
	c0.5,0.1,0.9,0.3,1.1,0.7c0.2-0.5,0.5-0.8,0.9-1c-0.5-0.6-1.1-0.9-1.9-1c-2.7-0.5-5.5-0.5-8.2,0c-1.3,0.2-2.3,0.9-2.7,2.3
	c-0.2,0.9-0.6,1.8-1,2.7c-0.1,0.3-0.4,0.6-0.7,0.6c-0.9,0-1.4,0.5-1.4,1.3c0,0.3,0.6,0.6,0.9,0.8c0,2.3,0,4.6,0,7
	c0,0.2,0.2,0.5,0.4,0.7c1,0,2,0,3,0c0.2-0.6,0.5-1.2,0.8-2c3,0,6.3,0,9.4,0c0.3,0.7,0.5,1.3,0.7,2c1,0,2,0,3,0
	c0.1-0.3,0.4-0.5,0.4-0.8c0-1.5,0-3,0-4.6c-0.3,0-0.7,0-1,0C78.1,79.3,78,79.4,77.7,79.5z M65.6,79.6c-0.3,0.1-0.7,0-1,0
	c0,0,0,0,0,0c-0.4,0-0.8,0-1.1,0c-0.9-0.1-1.3-0.6-1-1.6c0.2-0.8,0.8-0.7,1.4-0.5c0.7,0.2,1.4,0.5,2.1,0.9c0.2,0.1,0.4,0.5,0.5,0.8
	C66.1,79.3,65.9,79.5,65.6,79.6z"/>
<path class="st1" d="M82.4,70.7c0.2,0,0.3,0,0.5,0.1c0.5,0.1,0.8,0.3,1,0.8c0.2,0.7,0.5,1.4,0.7,2.3c-2.2,0.5-4.4,0.6-6.6,0.4
	c0.2,0.3,0.4,0.5,0.8,0.5c0.3,0,0.7,0.2,0.9,0.4c0.7,0.8,0.4,1.4-0.6,1.5c0,0.8,0,1.6,0,2.5c1.4,0,2.8,0,4.2,0
	c0.2,0.5,0.3,0.9,0.5,1.4c0.7,0,1.4,0,2.1,0c0.1-0.2,0.2-0.4,0.3-0.6c0-1.6,0-3.2,0-4.9c0.7-0.1,0.9-0.5,0.4-1.1
	c-0.1-0.2-0.4-0.3-0.6-0.3c-0.4,0-0.5-0.2-0.6-0.5c-0.2-0.6-0.5-1.3-0.7-1.9c-0.1-0.2-0.2-0.5-0.3-0.6
	C83.8,70.6,83.1,70.6,82.4,70.7C82.4,70.6,82.4,70.6,82.4,70.7z M85,75.6c0.1,0,0.5,0.2,0.6,0.4c0.1,0.3,0.2,0.8-0.3,1
	c-0.4,0.1-0.8,0.1-1.2,0.2c0,0,0,0,0-0.1c-0.3,0-0.6,0-0.8,0c-0.1,0-0.3-0.2-0.4-0.3c0-0.1,0.1-0.4,0.2-0.4
	C83.7,76,84.4,75.8,85,75.6z"/>
<path class="st1" d="M77.3,70.7c1.1-0.2,2.2-0.2,3.3-0.2c0-0.3,0-0.7,0-1c-1.1,0-2.2,0-3.3,0.2c-0.3,0.1-0.6,0.2-0.9,0.3
	c0.2,0.2,0.3,0.5,0.5,0.8C77,70.8,77.2,70.7,77.3,70.7z"/>
<path class="st0" d="M79.8,75.1c-0.2-0.2-0.6-0.4-0.9-0.4c-0.4,0-0.7-0.2-0.8-0.5c-0.5-0.1-1-0.1-1.6-0.2c0.1,0.3,0.2,0.6,0.3,1
	c-1,0.2-1.9,0.4-2.8,0.5c0,1.5,0,3,0,4.6c0,0.2,0.2,0.3,0.2,0.5c0.7,0,1.4,0,2.1,0c0.1-0.3,0.2-0.6,0.3-0.8c-0.2,0-0.4,0-0.6,0.1
	c0,0,0-0.1,0-0.1c-0.4,0-0.8,0-1.2,0c-0.2,0-0.5-0.2-0.5-0.4c-0.1-0.2,0.1-0.6,0.2-0.6c0.9-0.4,1.9-0.8,2.9-1.1
	c0.2-0.1,0.8,0.3,0.8,0.6c0.1,0.3,0.2,0.8,0,1.1c0.3,0,0.6,0,1,0c0-0.8,0-1.6,0-2.5C80.2,76.5,80.5,75.9,79.8,75.1z"/>
<path class="st0" d="M75.5,71.1c0.1,0.2,0.2,0.3,0.2,0.5c0.1,0.3,0.2,0.5,0.3,0.8c0.2-0.4,0.3-0.9,0.5-1.3c0.1-0.1,0.2-0.2,0.3-0.3
	c-0.1-0.3-0.3-0.6-0.5-0.8C76,70.3,75.7,70.7,75.5,71.1z"/>
<path class="st2" d="M88.8,67.3c-0.1-0.1-0.3-0.2-0.4-0.2c-0.2,0-0.3-0.1-0.4-0.3c-0.1-0.4-0.3-0.8-0.4-1.2c-0.2-0.6-0.6-0.9-1.1-1
	c-1.2-0.2-2.5-0.2-3.7,0c-0.6,0.1-1,0.4-1.2,1c-0.1,0.4-0.3,0.8-0.4,1.2c0,0.1-0.2,0.3-0.3,0.3c-0.4,0-0.6,0.2-0.6,0.6
	c0,0.1,0.3,0.3,0.4,0.4c0,0.5,0,1,0,1.5c0.8,0,1.6,0.1,2.4,0.2c0.6,0.1,1.2,0.4,1.5,0.9c0.7,0,1.5,0,2.2,0c0.1,0.3,0.2,0.6,0.3,0.9
	c0.5,0,0.9,0,1.4,0c0.1-0.1,0.2-0.2,0.2-0.4c0-1.1,0-2.1,0-3.2C89,67.9,89.1,67.7,88.8,67.3z M82.4,69.3c-0.1,0-0.3,0-0.5,0
	c0,0,0,0,0,0c-0.2,0-0.3,0-0.5,0C81,69.2,80.9,69,81,68.6c0.1-0.4,0.4-0.3,0.6-0.2c0.3,0.1,0.6,0.2,0.9,0.4c0.1,0.1,0.2,0.2,0.2,0.4
	C82.7,69.2,82.5,69.3,82.4,69.3z M81.6,67.2c0.2-0.6,0.4-1.2,0.6-1.7c0.1-0.2,0.3-0.3,0.5-0.3c1.2-0.2,2.4-0.2,3.7,0
	c0.3,0.1,0.5,0.2,0.6,0.6c0.1,0.5,0.3,0.9,0.5,1.5C85.5,67.6,83.6,67.6,81.6,67.2z M87.9,69.2c-0.2,0.1-0.5,0.1-0.7,0.1c0,0,0,0,0,0
	c-0.2,0-0.4,0-0.5,0c-0.1,0-0.2-0.1-0.2-0.2c0-0.1,0-0.3,0.1-0.3c0.4-0.2,0.8-0.4,1.3-0.5c0.1,0,0.3,0.2,0.4,0.3
	C88.2,68.8,88.3,69.1,87.9,69.2z"/>
<path class="st1" d="M83,69.8c-0.8-0.1-1.6-0.2-2.4-0.2c0,0.3,0,0.7,0,1c0.6,0,1.2,0.1,1.9,0.2c0,0,0,0,0,0c0.7,0,1.3,0,2,0
	C84.2,70.1,83.6,69.9,83,69.8z"/>
</svg>
