<?xml version="1.0" encoding="utf-8"?>
<!-- Generator: Adobe Illustrator 19.2.1, SVG Export Plug-In . SVG Version: 6.00 Build 0)  -->
<svg version="1.1" id="Layer_1" xmlns:svg="http://www.w3.org/2000/svg"
	 xmlns="http://www.w3.org/2000/svg" xmlns:xlink="http://www.w3.org/1999/xlink" x="0px" y="0px" width="100px" height="100px" viewBox="0 0 100 100"
	 style="enable-background:new 0 0 100 100;" xml:space="preserve">
<style type="text/css">
	.st0{fill:#692F56;}
	.st1{fill:#AD688B;}
	.st2{fill:#512843;}
	.st3{fill:#CFB2C1;}
	.st4{fill:#FFFFFF;}
</style>
<polygon class="st0" points="55.5,37.2 66.6,35.4 66.6,20.8 55.5,24.3 "/>
<polygon class="st1" points="81,56.7 49.9,61.4 49.9,38.7 81,43.4 "/>
<polygon class="st1" points="61.3,34.2 49.9,31.4 49.9,12.5 61.3,18.2 "/>
<polygon class="st1" points="61.4,65.8 50.1,68.6 50.1,87.5 61.4,81.8 "/>
<polygon class="st1" points="73.6,37.2 66.5,35.4 66.5,20.8 73.6,24.3 "/>
<polygon class="st2" points="73.7,37.2 62.9,38.6 55.5,37.2 66.7,35.4 "/>
<polygon class="st1" points="44.5,37.2 33.4,35.4 33.4,20.8 44.5,24.3 "/>
<polygon class="st0" points="19,56.7 50.1,61.4 50.1,38.7 19,43.4 "/>
<polygon class="st0" points="38.7,34.2 50.1,31.4 50.1,12.5 38.7,18.2 "/>
<polygon class="st0" points="38.7,65.8 50.1,68.6 50.1,87.5 38.7,81.8 "/>
<polygon class="st0" points="26.4,37.2 33.5,35.4 33.5,20.8 26.4,24.3 "/>
<polygon class="st2" points="26.4,37.2 37.2,38.6 44.6,37.2 33.4,35.4 "/>
<polygon class="st2" points="61.4,34.2 50.1,36.3 38.7,34.2 50.1,31.4 "/>
<polygon class="st3" points="61.4,65.8 50.1,63.7 38.7,65.8 50.1,68.6 "/>
<path class="st4" d="M75.3,94.4c-10.5,0-19-8.5-19-19s8.5-19,19-19s19,8.5,19,19C94.3,85.8,85.8,94.4,75.3,94.4z"/>
<path class="st1" d="M66.4,84.7c-0.2-0.1-0.4-0.2-0.5-0.2c-1.7-0.9-2.1-1.9-1.4-3.7c0.3-0.7,0.9-1.3,1.3-2c0.2-0.3,0.3-0.5,0.5-0.8
	c0.6-1.4,0.6-2.9,1.1-4.3c0.5-1.5,1.2-3,2.2-4.4c1.6-2.4,4-3.5,6.8-3.8c2.1-0.3,3.9,0.4,5.7,1.5c2.5,1.5,4.1,3.7,4.7,6.5
	c0.2,0.8,0.4,1.6,0.8,2.4c0.1,0.1,0.1,0.3,0.2,0.4c0.8,0.9,0.8,1.7,0,2.5C87,79.7,86,80.4,85,80.9c-2.3,1.3-4.6,2.5-6.9,3.7
	c-0.6,0.3-1.3,0.6-2,0.8C73.1,86.5,68.4,85.5,66.4,84.7z M86.6,75.8c-0.1-0.2-0.2-0.4-0.2-0.6c-0.1-0.1-0.2-0.3-0.2-0.5
	c-0.1-0.4-0.1-0.8-0.2-1.1c0-0.2,0-0.4-0.1-0.6c-0.4-1.3-1.1-2.5-1.9-3.5c-0.3-0.4-0.8-0.7-1.2-1.1c-1-0.8-2.1-1.6-3.4-2
	c-0.2-0.1-0.4-0.1-0.6-0.2c-0.1,0-0.1-0.1-0.2-0.1c-1,0-2.1,0-3.1,0.1c-0.9,0.1-1.7,0.3-2.4,0.9c-0.5,0.4-1,1-1.4,1.5
	c-1.1,1.5-1.9,3.2-2.5,4.9c-0.4,0.9-0.6,1.9-0.8,2.9c-0.2,0.5-0.3,1.1-0.5,1.6c-0.1,0.2-0.3,0.5-0.5,0.5c-0.1,0-0.3-0.3-0.5-0.4
	c-0.2,0.4,0,0.9,0.2,1.3c0.7,1.1,1.7,1.7,3,2c1.5,0.4,3,0.7,4.6,0.5c1.3-0.2,2.6-0.2,3.9-0.3c0.5,0,0.9-0.1,1.4-0.1
	c-1.5,0.6-3.1,1.2-4.8,1.1c-1.5,0-2.9-0.3-4.4-0.5c-1.3-0.2-2.6-0.3-3.9-0.5c-0.4,0-0.7,0.1-0.9,0.5c-0.2,0.8,0.4,1.9,1.1,2.2
	c1.7,0.6,3.4,0.9,5.2,1c1.6,0.1,3.1-0.3,4.4-1c1.9-1,3.7-2,5.6-3c0.6-0.3,1.2-0.6,1.9-1c-0.7-0.4-0.9-0.9-0.6-1.5
	c0.3,0.1,0.5,0.1,0.8,0.2c0,0.4-0.1,0.8-0.1,1.3c1.2-0.6,2.2-1.3,2.9-2.2c0.3-0.4,0.2-0.9-0.1-1.3C87.1,76.4,86.9,76.1,86.6,75.8z"
	/>
<path class="st3" d="M79.5,66.4c1.3,0.4,2.4,1.1,3.4,2c-0.4,0-0.7-0.1-1.1,0c-1.3,0.2-2.2,1-3,2.1c-1.1,1.4-1.3,3.1-1.2,4.8
	c0,0.8,0.2,1.6,0.7,2.4c0.1-0.5,0.1-1,0.2-1.4c0.2-1.4,0.6-2.8,1.5-4c1.4-1.9,4.2-1.9,5.5,0c0.3,0.4,0.5,0.9,0.7,1.3
	c0,0.4,0.1,0.8,0.2,1.1c0,0.2,0.2,0.3,0.2,0.5c-0.1,1.1-0.9,1.6-1.7,2.1c-1,0.6-2.1,1.1-3.2,1.6c-1.9,0.7-3.9,1.2-5.9,1.4
	c-1.1,0.1-2.2,0.1-3.3,0c-1.2-0.1-2.3-0.4-3.5-0.6c-0.3,0-0.5,0-0.8,0c0,0.1,0,0.1,0,0.2c0.6,0.2,1.2,0.4,1.8,0.5
	c1.4,0.4,2.9,0.9,4.4,0.7c1.3-0.2,2.5-0.4,3.8-0.6c2.8-0.5,5.4-1.5,7.7-3.3c0.5-0.4,0.9-0.7,0.9-1.4c0.2,0.3,0.4,0.7,0.7,1
	c0.3,0.4,0.4,0.8,0.1,1.3c-0.7,1-1.7,1.6-2.9,2.2c0-0.5,0.1-0.9,0.1-1.3c0.6-0.4,1.2-0.8,1.7-1.2c0,0,0-0.1-0.1-0.1
	c-0.3,0-0.6,0-0.8,0.1c-0.6,0.3-1.1,0.7-1.7,1c-0.3,0.7-0.1,1.2,0.6,1.5c-0.7,0.4-1.3,0.7-1.9,1c-1.9,1-3.7,2-5.6,3
	c-1.4,0.7-2.9,1.1-4.4,1c-1.8-0.1-3.5-0.4-5.2-1c-0.8-0.3-1.4-1.5-1.1-2.2c0.1-0.4,0.5-0.6,0.9-0.5c1.3,0.1,2.6,0.3,3.9,0.5
	c1.5,0.2,2.9,0.5,4.4,0.5c1.6,0,3.2-0.5,4.8-1.1c-0.5,0-0.9,0.1-1.4,0.1c-1.3,0.1-2.6,0.1-3.9,0.3c-1.6,0.2-3.1-0.1-4.6-0.5
	c-1.2-0.3-2.2-1-3-2c-0.3-0.4-0.4-0.9-0.2-1.3c0.2,0.2,0.4,0.4,0.5,0.4c0.2,0,0.4-0.3,0.5-0.5c0.2-0.5,0.3-1.1,0.5-1.6
	c0.3-1,0.5-2,0.8-2.9c0.7-1.7,1.4-3.4,2.5-4.9c0.4-0.5,0.9-1.1,1.4-1.5c0.7-0.6,1.6-0.8,2.4-0.9c1-0.1,2.1,0,3.1-0.1
	c0.1,0,0.1,0.1,0.2,0.1c-0.6,0-1.2,0.2-1.7,0.6s-0.9,0.8-1.3,1.3c-1.8,2.2-2.3,4.8-2.4,7.6c0,0.9,0.2,1.9,0.8,2.7
	c0.3,0.4,0.7,0.7,1.3,0.7c-0.1-0.2-0.1-0.3-0.2-0.4c-0.5-1.1-0.7-2.3-0.8-3.5c0-2.1,0.7-4,1.7-5.9C77.1,67.9,78,66.8,79.5,66.4z"/>
<path class="st1" d="M86,73.6c-0.2-0.4-0.4-0.9-0.7-1.3c-1.3-1.9-4.1-1.9-5.5,0c-0.9,1.2-1.3,2.6-1.5,4c-0.1,0.4-0.1,0.9-0.2,1.4
	c-0.5-0.8-0.6-1.6-0.7-2.4c-0.1-1.7,0.2-3.4,1.2-4.8c0.8-1,1.7-1.9,3-2.1c0.3-0.1,0.7,0,1.1,0c0.4,0.4,0.9,0.6,1.2,1.1
	c0.8,1.1,1.5,2.2,1.9,3.5C86,73.2,86,73.4,86,73.6z"/>
<path class="st1" d="M79.5,66.4c-1.5,0.4-2.4,1.5-3.1,2.8c-1,1.8-1.7,3.7-1.7,5.9c0,1.2,0.3,2.4,0.8,3.5c0.1,0.1,0.1,0.2,0.2,0.4
	c-0.6,0-1-0.2-1.3-0.7c-0.6-0.8-0.8-1.7-0.8-2.7c0.1-2.7,0.6-5.4,2.4-7.6c0.4-0.5,0.8-0.9,1.3-1.3s1-0.6,1.7-0.6
	C79.1,66.3,79.3,66.3,79.5,66.4z"/>
<path class="st1" d="M86.6,75.8c0,0.7-0.5,1-0.9,1.4C83.4,79,80.8,80,78,80.5c-1.2,0.2-2.5,0.4-3.8,0.6c-1.5,0.2-3-0.3-4.4-0.7
	c-0.6-0.2-1.2-0.3-1.8-0.5c0-0.1,0-0.1,0-0.2c0.3,0,0.5,0,0.8,0c1.2,0.2,2.3,0.5,3.5,0.6c1.1,0.1,2.2,0.1,3.3,0c2-0.2,4-0.6,5.9-1.4
	c1.1-0.4,2.2-1,3.2-1.6c0.8-0.5,1.6-1,1.7-2.1C86.5,75.4,86.6,75.6,86.6,75.8z"/>
<path class="st1" d="M83.8,78.8c0.6-0.3,1.1-0.7,1.7-1c0.2-0.1,0.5-0.1,0.8-0.1c0,0,0,0.1,0.1,0.1c-0.6,0.4-1.2,0.8-1.7,1.2
	C84.4,79,84.1,78.9,83.8,78.8z"/>
</svg>
