<?xml version="1.0" encoding="utf-8"?>
<!-- Generator: Adobe Illustrator 19.0.1, SVG Export Plug-In . SVG Version: 6.00 Build 0)  -->
<svg version="1.1" id="Layer_1" xmlns="http://www.w3.org/2000/svg" xmlns:xlink="http://www.w3.org/1999/xlink" x="0px" y="0px" width="100px" height="100px"
	 viewBox="0 0 100 100" enable-background="new 0 0 100 100" xml:space="preserve">
<g>
	<rect x="17.68" y="17.25" fill="#FFFFFF" width="54.514" height="61.375"/>
	<g id="Layer_1_9_">
		<g>
			<g>
				<g enable-background="new    ">
					<g>
						<linearGradient id="SVGID_1_" gradientUnits="userSpaceOnUse" x1="21.1687" y1="74.6849" x2="68.9831" y2="74.6849">
							<stop  offset="0" style="stop-color:#072E4B"/>
							<stop  offset="1" style="stop-color:#2D72B8"/>
						</linearGradient>
						<rect x="21.169" y="73.52" fill="url(#SVGID_1_)" width="47.814" height="2.33"/>
					</g>
				</g>
			</g>
			<linearGradient id="SVGID_2_" gradientUnits="userSpaceOnUse" x1="21.1687" y1="46.8932" x2="68.9831" y2="46.8932">
				<stop  offset="0" style="stop-color:#072E4B"/>
				<stop  offset="0" style="stop-color:#1A52A4"/>
				<stop  offset="1" style="stop-color:#2D72B8"/>
			</linearGradient>
			<path fill="url(#SVGID_2_)" d="M21.169,20.266V73.52h47.814V20.266H21.169z M37.095,66.27h-8.9v-8.839h8.9V66.27z M37.095,51.909
				h-8.9v-7.739h8.9V51.909z M37.095,38.648h-8.9v-8.837h8.9V38.648z M61.571,62.956H40.433v-2.209h21.138V62.956z M61.571,49.696
				H40.433v-2.211h21.138V49.696z M61.571,35.333H40.433v-2.209h21.138V35.333z"/>
		</g>
	</g>
	<g>
		<path fill="#4A8FCC" d="M44.457,26.502c0,0.312-0.11,0.579-0.329,0.799l-8.506,8.506l-1.599,1.599
			c-0.219,0.219-0.485,0.329-0.799,0.329c-0.314,0-0.581-0.11-0.799-0.329l-1.599-1.599l-4.253-4.253
			c-0.219-0.219-0.329-0.485-0.329-0.799c0-0.314,0.11-0.579,0.329-0.799l1.597-1.599c0.219-0.219,0.487-0.329,0.8-0.329
			c0.312,0,0.579,0.11,0.799,0.329l3.455,3.467l7.708-7.72c0.219-0.219,0.487-0.329,0.799-0.329c0.314,0,0.581,0.11,0.8,0.329
			l1.597,1.597C44.347,25.921,44.457,26.188,44.457,26.502z"/>
	</g>
</g>
<path fill="#072D4A" d="M82.013,71.678c-0.906-1.815-2.973-3.83-8.565-4.99c-5.594-1.157-6.249-2.166-5.997-4.081
	c1.764-1.612,2.369-4.988,2.62-6.702c1.36-0.705,1.663-1.915,1.916-3.376c0.251-1.461-0.052-1.461-0.253-1.461l-0.362,0.017
	c0.16-0.43,0.221-1.178,0.134-2.088c0.618-6.312-3.647-7.931-4.901-7.932c-1.431-0.968-4.911-2.638-9.382-1.033
	c-6.381,2.291-4.508,9.929-4.507,9.929c0.001,0.582,0.061,1.004,0.151,1.191c0,0-0.166-0.041-0.383-0.033
	c-0.557,0.02-0.654,0.354-0.503,1.461c0.15,1.109,0.957,2.772,2.116,3.427c0.504,2.823,2.015,5.796,2.873,6.626
	c0.149,2.747-1.512,3-6.603,4.259c-5.089,1.26-6.738,2.869-8.012,4.838c-0.923,1.428-0.706,6.149-0.253,6.803
	c0.454,0.655,7.963,5.139,20.057,5.139c12.095,0,19.098-4.131,19.854-4.989C82.77,77.825,82.921,73.492,82.013,71.678z"/>
</svg>
