<?xml version="1.0" encoding="utf-8"?>
<!-- Generator: Adobe Illustrator 19.0.1, SVG Export Plug-In . SVG Version: 6.00 Build 0)  -->
<svg version="1.1" id="Layer_1" xmlns="http://www.w3.org/2000/svg" xmlns:xlink="http://www.w3.org/1999/xlink" x="0px" y="0px" width="100px" height="100px"
	 viewBox="0 0 100 100" enable-background="new 0 0 100 100" xml:space="preserve">
<g>
	<rect x="22.68" y="19.25" fill="#FFFFFF" width="54.514" height="61.375"/>
	<g id="Layer_1_9_">
		<g>
			<g>
				<g enable-background="new    ">
					<g>
						<linearGradient id="SVGID_1_" gradientUnits="userSpaceOnUse" x1="26.1687" y1="76.6849" x2="73.9831" y2="76.6849">
							<stop  offset="0" style="stop-color:#072E4B"/>
							<stop  offset="1" style="stop-color:#2D72B8"/>
						</linearGradient>
						<rect x="26.169" y="75.52" fill="url(#SVGID_1_)" width="47.814" height="2.33"/>
					</g>
				</g>
			</g>
			<linearGradient id="SVGID_2_" gradientUnits="userSpaceOnUse" x1="26.1687" y1="48.8932" x2="73.9831" y2="48.8932">
				<stop  offset="0" style="stop-color:#072E4B"/>
				<stop  offset="0" style="stop-color:#1A52A4"/>
				<stop  offset="1" style="stop-color:#2D72B8"/>
			</linearGradient>
			<path fill="url(#SVGID_2_)" d="M26.169,22.266V75.52h47.814V22.266H26.169z M42.095,68.27h-8.9v-8.839h8.9V68.27z M42.095,53.909
				h-8.9v-7.739h8.9V53.909z M42.095,40.648h-8.9v-8.837h8.9V40.648z M66.571,64.956H45.433v-2.209h21.138V64.956z M66.571,51.696
				H45.433v-2.211h21.138V51.696z M66.571,37.333H45.433v-2.209h21.138V37.333z"/>
		</g>
	</g>
	<g>
		<path fill="#4A8FCC" d="M49.457,28.502c0,0.312-0.11,0.579-0.329,0.799l-8.506,8.506l-1.599,1.599
			c-0.219,0.219-0.485,0.329-0.799,0.329c-0.314,0-0.581-0.11-0.799-0.329l-1.599-1.599l-4.253-4.253
			c-0.219-0.219-0.329-0.485-0.329-0.799s0.11-0.579,0.329-0.799l1.597-1.599c0.219-0.219,0.487-0.329,0.8-0.329
			c0.312,0,0.579,0.11,0.799,0.329l3.455,3.467l7.708-7.72c0.219-0.219,0.487-0.329,0.799-0.329c0.314,0,0.581,0.11,0.8,0.329
			l1.597,1.597C49.347,27.921,49.457,28.188,49.457,28.502z"/>
	</g>
</g>
</svg>
