<?xml version="1.0" encoding="UTF-8"?>
<!-- Generator: Adobe Illustrator 19.0.1, SVG Export Plug-In . SVG Version: 6.00 Build 0)  -->
<svg version="1.1" id="Layer_1" xmlns="http://www.w3.org/2000/svg" xmlns:xlink="http://www.w3.org/1999/xlink" x="0px" y="0px" width="100px" height="100px" viewBox="0 0 100 100" enable-background="new 0 0 100 100" xml:space="preserve">
<linearGradient id="SVGID_1_" gradientUnits="userSpaceOnUse" x1="22.75" y1="43.3214" x2="62.6071" y2="43.3214">
	<stop offset="0" style="stop-color:#4C632D"/>
	<stop offset="0.1897" style="stop-color:#536D30"/>
	<stop offset="0.5293" style="stop-color:#648837"/>
	<stop offset="0.5982" style="stop-color:#698E38"/>
	<stop offset="1" style="stop-color:#4C632D"/>
</linearGradient>
<path fill="url(#SVGID_1_)" d="M47.714,50.277c0.571-1.611,4.929-7.161,4.929-16.919c0-5.504-4.461-9.964-9.964-9.964  s-9.964,4.461-9.964,9.964c0,9.758,4.361,15.308,4.929,16.919c-5.085,0.465-14.893,3.71-14.893,9.652  c0,1.402,1.116,3.321,3.321,3.321h33.214c2.205,0,3.321-1.92,3.321-3.321C62.607,53.987,52.799,50.742,47.714,50.277z"/>
<linearGradient id="SVGID_2_" gradientUnits="userSpaceOnUse" x1="48.1679" y1="33.8571" x2="71.8929" y2="33.8571">
	<stop offset="0" style="stop-color:#4C632D"/>
	<stop offset="0.1897" style="stop-color:#536D30"/>
	<stop offset="0.5293" style="stop-color:#648837"/>
	<stop offset="0.5982" style="stop-color:#698E38"/>
	<stop offset="1" style="stop-color:#4C632D"/>
</linearGradient>
<path fill="url(#SVGID_2_)" d="M60.759,40.426c0.8-2.345,4.491-8.91,4.491-13.011c0-5.338-3.464-9.664-8.964-9.664  c-2.79,0-6.311,1.115-8.118,2.906c4.295,2.919,7.118,7.744,7.118,13.201c0,4.9-0.986,8.952-2.142,12.074  c2.574,0.989,5.072,2.329,7.128,4.033h8.3c1.92,0,3.321-1.459,3.321-3.221C71.893,42.69,63.848,40.98,60.759,40.426z"/>
<circle fill="#FFFFFF" stroke="#3B4729" stroke-width="3.1195" stroke-miterlimit="10" cx="69.428" cy="68.986" r="21.938"/>
<g id="Layer_166_2_">
	<g enable-background="new    ">
		<path fill="#50642D" d="M77.556,55.13v1.364C73.037,63.747,64.537,66.84,64.454,66.87c-0.062,0.022-0.125,0.091-0.179,0.184v-1.36    c0.054-0.096,0.117-0.165,0.179-0.187C64.537,65.479,73.037,62.383,77.556,55.13"/>
		<path fill="#50642D" d="M64.275,65.694v1.36c-0.045,0.081-0.088,0.179-0.122,0.286v-1.363    C64.187,65.869,64.23,65.772,64.275,65.694"/>
		<path fill="#50642D" d="M64.153,65.977v1.363c-0.048,0.141-0.085,0.295-0.106,0.436v-1.363    C64.068,66.272,64.106,66.116,64.153,65.977"/>
		<path fill="#50642D" d="M64.047,66.413v1.362c-0.014,0.097-0.022,0.185-0.022,0.261v-1.363    C64.025,66.596,64.033,66.507,64.047,66.413"/>
	</g>
	<path fill="#395225" d="M64.025,68.036v-1.363c0-0.384,0.197-1.089,0.429-1.166c0.084-0.028,8.583-3.124,13.102-10.377v1.364   C73.037,63.747,64.537,66.84,64.454,66.87C64.222,66.948,64.025,67.653,64.025,68.036z"/>
	<g enable-background="new    ">
		<path fill="#50642D" d="M78.24,56.753v1.363c-0.071,0.778-0.172,1.638-0.301,2.512v-1.363    C78.068,58.386,78.169,57.528,78.24,56.753"/>
		<path fill="#50642D" d="M77.939,59.265v1.363c-0.211,1.388-0.504,2.815-0.902,4.005V63.27    C77.435,62.082,77.728,60.653,77.939,59.265"/>
		<path fill="#50642D" d="M77.037,63.27v1.363c-0.197,0.593-0.421,1.126-0.673,1.566v-1.36C76.616,64.394,76.84,63.859,77.037,63.27    "/>
		<path fill="#50642D" d="M76.364,64.839v1.36c-0.179,0.315-0.374,0.585-0.584,0.796c-1.365,1.348-4.962,2.082-8.839,2.4V68.03    c3.876-0.315,7.473-1.049,8.839-2.405C75.99,65.421,76.185,65.151,76.364,64.839"/>
	</g>
	<path fill="#395225" d="M78.24,56.753v1.363c-0.285,3.059-0.987,7.409-2.46,8.879c-1.365,1.348-4.962,2.082-8.839,2.4v-1.364   c3.876-0.315,7.473-1.049,8.839-2.405C77.253,64.163,77.955,59.812,78.24,56.753z"/>
	<g>
		
			<linearGradient id="SVGID_3_" gradientUnits="userSpaceOnUse" x1="62.6168" y1="32.9324" x2="78.2397" y2="32.9324" gradientTransform="matrix(1 0 0 -1 0 102)">
			<stop offset="0" style="stop-color:#769C3E"/>
			<stop offset="1" style="stop-color:#45642F"/>
		</linearGradient>
		<path fill="url(#SVGID_3_)" d="M64.948,67.433c0.36-0.118,8.556-2.979,13.291-10.68c-0.285,3.06-0.987,7.41-2.46,8.873    c-1.365,1.356-4.962,2.09-8.839,2.405v14.975h-4.324V68.049c0.33-3.425,0.567-6.203,3.55-8.858    c2.105-1.88,7.828-3.602,11.389-4.061c-4.518,7.254-13.018,10.349-13.102,10.377c-0.275,0.092-0.502,1.068-0.407,1.342    c0.076,0.218,0.515,0.615,0.733,0.615C64.835,67.464,64.893,67.459,64.948,67.433z"/>
	</g>
	<g>
		<rect x="62.617" y="83.005" fill="#395225" width="4.324" height="1.364"/>
	</g>
</g>
</svg>