<?xml version="1.0" encoding="utf-8"?>
<!-- Generator: Adobe Illustrator 19.1.0, SVG Export Plug-In . SVG Version: 6.00 Build 0)  -->
<!DOCTYPE svg PUBLIC "-//W3C//DTD SVG 1.1//EN" "http://www.w3.org/Graphics/SVG/1.1/DTD/svg11.dtd" [
	<!ENTITY ns_extend "http://ns.adobe.com/Extensibility/1.0/">
	<!ENTITY ns_ai "http://ns.adobe.com/AdobeIllustrator/10.0/">
	<!ENTITY ns_graphs "http://ns.adobe.com/Graphs/1.0/">
	<!ENTITY ns_vars "http://ns.adobe.com/Variables/1.0/">
	<!ENTITY ns_imrep "http://ns.adobe.com/ImageReplacement/1.0/">
	<!ENTITY ns_sfw "http://ns.adobe.com/SaveForWeb/1.0/">
	<!ENTITY ns_custom "http://ns.adobe.com/GenericCustomNamespace/1.0/">
	<!ENTITY ns_adobe_xpath "http://ns.adobe.com/XPath/1.0/">
]>
<svg version="1.1" id="Layer_3" xmlns:x="&ns_extend;" xmlns:i="&ns_ai;" xmlns:graph="&ns_graphs;"
	 xmlns="http://www.w3.org/2000/svg" xmlns:xlink="http://www.w3.org/1999/xlink" x="0px" y="0px" width="100px" height="100px" viewBox="-247 370.9 100 100"
	 style="enable-background:new -247 370.9 100 100;" xml:space="preserve">
<style type="text/css">
	.st0{fill:#779C3E;}
	.st1{fill:#4F632D;}
	.st2{fill:#FFFFFF;}
	.st3{fill:none;}
</style>
	<g i:extraneous="self">
		<g>
			<g>
				<polygon class="st0" points="-213.8,406.9 -220.3,405.9 -220.3,396.5 -211.5,398.9 				"/>
			</g>
			<g>
				<polygon class="st1" points="-213.3,408.2 -226.2,409.4 -226.2,399.4 -220.3,396.5 				"/>
			</g>
			<g>
				<polygon class="st1" points="-179.6,406.9 -173.1,405.9 -173.1,396.5 -181.9,398.9 				"/>
			</g>
			<g>
				<polygon class="st0" points="-180.1,408.2 -167.2,409.4 -167.2,399.4 -173.1,396.5 				"/>
			</g>
			<g>
				<polygon class="st1" points="-209.2,390.9 -215.9,404.7 -215.9,404.7 -226.2,407.8 -226.2,416.6 -214.3,442.1 -196.8,455.8 
					-196.8,441.6 -196.8,398.9 -196.8,384.6 				"/>
			</g>
			<g>
				<polygon class="st0" points="-167.2,416.6 -167.2,407.8 -177.5,404.7 -177.5,404.7 -184.3,390.9 -196.8,384.6 -196.8,398.9 
					-196.8,441.6 -196.8,455.8 -179.2,442.1 				"/>
			</g>
		</g>
		<g>
			<g>
				<g>
					<circle class="st2" cx="-179.7" cy="437.3" r="21.6"/>
				</g>
			</g>
			<g>
				<g>
					<path class="st3" d="M-191.7,435c-1.2,0-2.3,0.8-2.7,1.9c0.4,1.1,1.5,1.9,2.7,1.9s2.3-0.8,2.7-1.9
						C-189.4,435.8-190.4,435-191.7,435z"/>
				</g>
				<g>
					<path class="st1" d="M-185.9,437.4c-0.7,2.6-3.1,4.5-5.8,4.5c-3.3,0-6-2.7-6-6l0,0v2c0,0,0,0,0,0c0,0,0,0,0,0v0.1h0
						c0.1,3.3,2.8,5.9,6,5.9c2.7,0,5.1-1.9,5.8-4.5h14.7v-2.1H-185.9z"/>
				</g>
				<g>
					<rect x="-166.9" y="442.8" class="st1" width="3.2" height="2.1"/>
				</g>
				<g>
					<rect x="-171.1" y="442.8" class="st1" width="3.2" height="2.1"/>
				</g>
				<g>
					<rect x="-167.9" y="440.6" class="st1" width="1" height="2.1"/>
				</g>
				<g>
					<path class="st1" d="M-191.7,432.9c-1.6,0-2.9,1.3-2.9,2.9c0,0.4,0.1,0.7,0.2,1c0.4-1.1,1.5-1.9,2.7-1.9s2.3,0.8,2.7,1.9
						c0.1-0.3,0.2-0.7,0.2-1C-188.8,434.2-190.1,432.9-191.7,432.9z"/>
				</g>
				<g>
					<path class="st1" d="M-161.7,436c0,0.8-0.6,1.4-1.4,1.4h-0.5v2.1h0.5c0.7,0,1.4-0.6,1.4-1.3h0V438c0,0,0,0,0,0c0,0,0,0,0,0
						L-161.7,436L-161.7,436z"/>
				</g>
				<g>
					<g>
						<path class="st0" d="M-163.1,434.5h-22.7c-0.6-2.8-3-4.7-5.9-4.7c-3.3,0-6,2.7-6,6s2.7,6,6,6c2.7,0,5.1-1.9,5.8-4.5h14.7v5.4
							h3.2v-2.2h1v2.2h3.2v-5.4h0.5c0.8,0,1.4-0.6,1.4-1.4C-161.7,435.2-162.3,434.5-163.1,434.5z M-188.8,435.9
							c0,1.6-1.3,2.9-2.9,2.9s-2.9-1.3-2.9-2.9c0-1.6,1.3-2.9,2.9-2.9C-190.1,432.9-188.8,434.2-188.8,435.9z"/>
					</g>
				</g>
			</g>
		</g>
	</g>
</svg>
