<?xml version="1.0" encoding="utf-8"?>
<!-- Generator: Adobe Illustrator 16.0.4, SVG Export Plug-In . SVG Version: 6.00 Build 0)  -->
<!DOCTYPE svg PUBLIC "-//W3C//DTD SVG 1.1//EN" "http://www.w3.org/Graphics/SVG/1.1/DTD/svg11.dtd">
<svg version="1.1" id="Layer_1" xmlns="http://www.w3.org/2000/svg" xmlns:xlink="http://www.w3.org/1999/xlink" x="0px" y="0px"
	 width="120px" height="144px" viewBox="0 0 120 144" enable-background="new 0 0 120 144" xml:space="preserve">
<polygon fill="#759C3E" points="43.1,58.3 36.5,57.3 36.5,47.8 45.4,50.2 "/>
<polygon fill="#4B612C" points="43.6,59.6 30.5,60.8 30.5,50.7 36.5,47.8 "/>
<polygon fill="#4B612C" points="77.6,58.3 84.2,57.3 84.2,47.8 75.3,50.2 "/>
<polygon fill="#759C3E" points="77.1,59.6 90.2,60.8 90.2,50.7 84.2,47.8 "/>
<polygon fill="#4B612C" points="47.7,42.1 40.9,56.1 40.9,56.1 30.5,59.2 30.5,68.1 42.6,93.9 60.3,107.8 60.3,93.4 60.3,50.2 
	60.3,35.8 "/>
<polygon fill="#759C3E" points="90.2,68.1 90.2,59.2 79.8,56.1 79.8,56.1 72.9,42.1 60.3,35.8 60.3,50.2 60.3,93.4 60.3,107.8 
	78.1,93.9 "/>
</svg>
