<?xml version="1.0" encoding="utf-8"?>
<!-- Generator: Adobe Illustrator 16.0.4, SVG Export Plug-In . SVG Version: 6.00 Build 0)  -->
<!DOCTYPE svg PUBLIC "-//W3C//DTD SVG 1.1//EN" "http://www.w3.org/Graphics/SVG/1.1/DTD/svg11.dtd">
<svg version="1.1" id="Amazon_CloudSearch" xmlns="http://www.w3.org/2000/svg" xmlns:xlink="http://www.w3.org/1999/xlink" x="0px"
	 y="0px" width="100px" height="100px" viewBox="0 0 100 100" enable-background="new 0 0 100 100" xml:space="preserve">
<g>
	<polygon fill="#F58536" points="31.3,28.8 24,27 24,73 31.3,71.3 	"/>
	<polygon fill="#F58536" points="45.5,74.3 34.1,78 34.1,21.9 45.5,25.6 	"/>
	<polygon fill="#6B3A19" points="53.7,32.3 58.9,29.6 76.2,36.3 71.6,36.9 	"/>
	<polygon fill="#FBBF93" points="53.9,67.7 59,70.4 76.3,63.7 71.7,63.1 	"/>
	<polygon fill="#9D5025" points="55.2,60.3 64.3,61.5 64.3,38.5 55.2,39.7 	"/>
	<polygon fill="#F58536" points="58.9,81.5 50,86 50,14 58.9,18.5 	"/>
	<polygon fill="#F58536" points="79.8,62.7 50,71.6 50,86 79.8,71.1 	"/>
	<polygon fill="#F58536" points="76,27 79.8,28.9 79.8,71.1 76,73 	"/>
	<polygon fill="#F58536" points="50,28.4 79.8,37.3 79.8,28.9 50,14 	"/>
	<polygon fill="#9D5025" points="41.1,81.5 50,86 50,14 41.1,18.5 	"/>
	<polygon fill="#9D5025" points="28.5,24.7 34.1,21.9 34.1,78.1 28.5,75.3 	"/>
	<polygon fill="#9D5025" points="20.2,71.1 24,73 24,27 20.2,28.9 	"/>
	<polygon fill="#9D5025" points="71.4,36.9 76,36.3 76,63.8 71.4,63.2 	"/>
	<polygon fill="#F58536" points="64.3,38.5 64.3,61.6 73.8,50 	"/>
</g>
<g>
	<circle fill="#FFFFFF" cx="67.5" cy="66.7" r="21.9"/>
	<g id="Page-1_4_">
		<g id="Core" transform="translate(-296.000000, -380.000000)">
			<g id="schedule" transform="translate(296.000000, 380.000000)">
				<path id="Shape" fill="#F58536" fill-opacity="0.9" d="M67,48c-10.5,0-19,8.5-19,19s8.5,19,19,19s19-8.5,19-19S77.4,48,67,48
					L67,48z M67,82.2c-8.4,0-15.2-6.8-15.2-15.2S58.6,51.8,67,51.8S82.2,58.7,82.2,67S75.4,82.2,67,82.2L67,82.2z"/>
				<path id="Shape_1_" fill="#F58536" fill-opacity="0.9" d="M67.9,57.5h-2.9v11.4L75,75l1.5-2.5l-8.5-5.1V57.5z"/>
			</g>
		</g>
	</g>
</g>
</svg>
