<?xml version="1.0" encoding="utf-8"?>
<!-- Generator: Adobe Illustrator 16.0.4, SVG Export Plug-In . SVG Version: 6.00 Build 0)  -->
<!DOCTYPE svg PUBLIC "-//W3C//DTD SVG 1.1//EN" "http://www.w3.org/Graphics/SVG/1.1/DTD/svg11.dtd">
<svg version="1.1" id="Amazon_CloudSearch" xmlns="http://www.w3.org/2000/svg" xmlns:xlink="http://www.w3.org/1999/xlink" x="0px"
	 y="0px" width="100px" height="100px" viewBox="0 0 100 100" enable-background="new 0 0 100 100" xml:space="preserve">
<g>
	<polygon fill="#F58536" points="31.3,28.8 24,27 24,73 31.3,71.3 	"/>
	<polygon fill="#F58536" points="45.5,74.3 34.1,78 34.1,21.9 45.5,25.6 	"/>
	<polygon fill="#6B3A19" points="53.7,32.3 58.9,29.6 76.2,36.3 71.6,36.9 	"/>
	<polygon fill="#FBBF93" points="53.9,67.7 59,70.4 76.3,63.7 71.7,63.1 	"/>
	<polygon fill="#9D5025" points="55.2,60.3 64.3,61.5 64.3,38.5 55.2,39.7 	"/>
	<polygon fill="#F58536" points="58.9,81.5 50,86 50,14 58.9,18.5 	"/>
	<polygon fill="#F58536" points="79.8,62.7 50,71.6 50,86 79.8,71.1 	"/>
	<polygon fill="#F58536" points="76,27 79.8,28.9 79.8,71.1 76,73 	"/>
	<polygon fill="#F58536" points="50,28.4 79.8,37.3 79.8,28.9 50,14 	"/>
	<polygon fill="#9D5025" points="41.1,81.5 50,86 50,14 41.1,18.5 	"/>
	<polygon fill="#9D5025" points="28.5,24.7 34.1,21.9 34.1,78.1 28.5,75.3 	"/>
	<polygon fill="#9D5025" points="20.2,71.1 24,73 24,27 20.2,28.9 	"/>
	<polygon fill="#9D5025" points="71.4,36.9 76,36.3 76,63.8 71.4,63.2 	"/>
	<polygon fill="#F58536" points="64.3,38.5 64.3,61.6 73.8,50 	"/>
</g>
<circle fill="#FFFFFF" cx="67.5" cy="67.7" r="21.9"/>
<g id="CloudTrail">
	<g id="Permissions">
		<g>
			<path fill="#9D5025" d="M76.5,64.6v-7.4c0-3.1-2.4-5.5-5.4-5.5h-7.2c-3,0-5.4,2.5-5.4,5.5v7.4h-3.6v16.6h25.4V64.6H76.5z
				 M72.9,64.6H62v-5.9c0-1.8,1.5-3.3,3.3-3.3h4.3c1.8,0,3.3,1.5,3.3,3.3V64.6L72.9,64.6z"/>
		</g>
		<g>
			<path fill="#F58536" d="M76.5,62.9v-7.4c0-3.1-2.4-5.5-5.4-5.5h-7.2c-3,0-5.4,2.5-5.4,5.5v7.4h-3.6v16.6h25.4V62.9H76.5z
				 M72.9,62.9H62V57c0-1.8,1.5-3.3,3.3-3.3h4.3c1.8,0,3.3,1.5,3.3,3.3V62.9L72.9,62.9z"/>
		</g>
	</g>
</g>
</svg>
