<?xml version="1.0" encoding="utf-8"?>
<!-- Generator: Adobe Illustrator 19.1.0, SVG Export Plug-In . SVG Version: 6.00 Build 0)  -->
<svg version="1.1" id="Amazon_CloudSearch" xmlns="http://www.w3.org/2000/svg" xmlns:xlink="http://www.w3.org/1999/xlink" x="0px"
	 y="0px" width="100px" height="100px" viewBox="-99 101 100 100" style="enable-background:new -99 101 100 100;" xml:space="preserve">
<style type="text/css">
	.st0{fill:#769A43;}
	.st1{fill:none;stroke:#769A43;stroke-width:1.25;stroke-linecap:square;stroke-miterlimit:10;}
	.st2{fill:#FFFFFF;}
	.st3{fill:#769B3F;}
</style>
<g>
	<polygon class="st3" points="-46.4,145 -46.4,145 -46.4,145 	"/>
	<polygon class="st3" points="-63,179.9 -63,179.9 -63,179.9 	"/>
	<path class="st3" d="M-14.8,141.5c-3.1-5.9-9.2-7.2-9.2-7.2s-0.3-2.3-2.1-4.2c-1.8-1.9-3.1-2.6-5.3-2.8s-3.1,0.1-3.1,0.1
		s-1.2-2.1-2.8-3.7c-2-2.1-3.5-4-10.6-5.8c-7.3-1.8-13.5,0.7-19.1,5.3c-5.6,4.6-6.3,11.4-6.3,11.4s-2.6,0.7-4.5,1.8
		c-1.9,1-9.2,5.9-6.8,16c2.4,10.1,13.2,11.5,14.4,11.5s4.2,0,7.1,0c2.9,0,3,0.9,3,3.2c0,0.9,0,6.7,0,10.2h-3.1l5.2,6.8l5.3-6.8h-3.1
		c0-3.4-0.1-9.2-0.1-12.8c0-4.6-4.2-5-6.8-5c-1.2,0-3,0-5.4-0.1s-3.6,0.1-6.1-1s-5.2-3.1-6.1-7.6c-0.9-4.5,1.3-7.7,3.9-9.9
		s7.6-2.6,7.6-2.6s-0.2-7.2,4.7-11.5c4.9-4.3,9.5-5.6,16.7-4s10.7,9.9,10.7,9.9c2.2-1.1,4.7-1.4,6.7,0.2c2,1.6,1.5,5.1,1.5,5.1
		s2.3,0,6.4,2.3c4.1,2.4,5.7,7.8,3.5,13.1c-2.3,5.3-8.7,6.1-9.6,6.1s-16,0-18.5,0s-2.7-0.5-2.7-1.6c0-1,0-11.2,0-12.9h3l-5.2-6.8
		l-5.3,6.8h3.1c0,1.8,0,8.6,0,13c0,5.1,3.5,5.9,4.7,5.9s17.8,0,21.2,0c3.4,0,6.3-1.5,9.4-3.5c3.2-2,5.1-6.7,5.2-8.1
		C-13.1,150.4-12.2,146.5-14.8,141.5z"/>
</g>
</svg>
