<?xml version="1.0" encoding="utf-8"?>
<!-- Generator: Adobe Illustrator 19.1.0, SVG Export Plug-In . SVG Version: 6.00 Build 0)  -->
<svg version="1.1" id="Amazon_CloudSearch" xmlns="http://www.w3.org/2000/svg" xmlns:xlink="http://www.w3.org/1999/xlink" x="0px"
	 y="0px" width="100px" height="100px" viewBox="-99 101 100 100" style="enable-background:new -99 101 100 100;" xml:space="preserve">
<style type="text/css">
	.st0{fill:#769A43;}
	.st1{fill:none;stroke:#769A43;stroke-width:1.25;stroke-linecap:square;stroke-miterlimit:10;}
	.st2{fill:#FFFFFF;}
	.st3{fill:none;}
</style>
<g>
	<circle class="st3" cx="-49.2" cy="133.2" r="9.6"/>
	<path class="st0" d="M-55.5,162.5c3.5,6.5,6.4,11.5,6.4,11.5s18.1-30.8,18.1-40.8c0-10-8.1-18.1-18.1-18.1
		c-10,0-18.1,8.1-18.1,18.1c0,5.9,6.3,19,11.4,28.8h0.3V162.5z M-58.8,133.2c0-5.3,4.3-9.6,9.6-9.6c5.3,0,9.6,4.3,9.6,9.6
		c0,5.3-4.3,9.6-9.6,9.6C-54.5,142.8-58.8,138.5-58.8,133.2z"/>
	<path class="st0" d="M-55.5,162.5c-0.1-0.2-0.2-0.4-0.3-0.6h0L-55.5,162.5L-55.5,162.5z"/>
	<polygon class="st0" points="-28,161.8 -38.6,161.8 -40.8,165.7 -30.5,165.7 -22.2,183 -76,183 -67.8,165.8 -57.5,165.8 -59.7,162 
		-70.3,162 -82.2,186.9 -16.1,186.9 	"/>
	<path class="st0" d="M-55.5,162h-0.3c0.1,0.2,0.2,0.4,0.3,0.6V162z"/>
</g>
</svg>
