<?xml version="1.0" encoding="utf-8"?>
<!-- Generator: Adobe Illustrator 19.1.0, SVG Export Plug-In . SVG Version: 6.00 Build 0)  -->
<svg version="1.1" id="Amazon_CloudSearch" xmlns="http://www.w3.org/2000/svg" xmlns:xlink="http://www.w3.org/1999/xlink" x="0px"
	 y="0px" width="100px" height="100px" viewBox="-99 101 100 100" style="enable-background:new -99 101 100 100;" xml:space="preserve">
<style type="text/css">
	.st0{fill:#769A43;}
	.st1{fill:none;stroke:#769A43;stroke-width:1.25;stroke-linecap:square;stroke-miterlimit:10;}
	.st2{fill:#FFFFFF;}
</style>
<g>
	<rect x="-42.2" y="152.1" class="st0" width="11.6" height="11.6"/>
	<rect x="-70.3" y="138.1" class="st0" width="11.6" height="11.6"/>
	<rect x="-56.2" y="152.1" class="st0" width="11.6" height="11.6"/>
	<rect x="-42.2" y="138.1" class="st0" width="11.6" height="11.6"/>
	<rect x="-56.3" y="138.1" class="st0" width="11.6" height="11.6"/>
	<rect x="-70.3" y="152.1" class="st0" width="11.6" height="11.6"/>
	<path class="st0" d="M-14.5,159.7l-2.8-7.8l-7.6,3.3l3.5,1.5c-3.5,9.5-15.3,16.3-28.9,16.3c-16.5,0-29.9-9.9-29.9-22.1
		c0-12.2,13.4-22.1,29.9-22.1c12.2,0,23,5.4,27.7,13.7c0.5,0.9,1.6,1.2,2.6,0.7c0.9-0.5,1.2-1.6,0.7-2.6c-5.3-9.5-17.5-15.6-31-15.6
		c-18.6,0-33.7,11.6-33.7,25.9c0,14.3,15.1,25.9,33.7,25.9c15,0,28.2-7.7,32.3-18.6L-14.5,159.7z"/>
</g>
</svg>
