<?xml version="1.0" encoding="utf-8"?>
<svg version="1.1" id="Layer_1" xmlns="http://www.w3.org/2000/svg" xmlns:xlink="http://www.w3.org/1999/xlink" x="0px" y="0px"
	 viewBox="0 0 100 100" width="100px" height="100px"  xml:space="preserve">
<linearGradient id="SVGID_1_" gradientUnits="userSpaceOnUse" x1="18.0547" y1="49.9961" x2="25.5352" y2="49.9961">
	<stop  offset="0" style="stop-color:#072E4B"/>
	<stop  offset="0" style="stop-color:#1A52A4"/>
	<stop  offset="1" style="stop-color:#2D72B8"/>
</linearGradient>
<polygon fill="url(#SVGID_1_)" points="18.055,70.088 25.535,78.854 25.535,21.138 18.055,29.901 "/>
<polygon fill="#2D72B8" points="25.536,78.854 39.829,86 39.839,13.999 25.536,21.122 "/>
<polygon fill="#4A8FCC" points="81.945,29.901 74.463,21.138 74.463,78.854 81.945,70.089 "/>
<polygon fill="#63ACDF" points="60.17,86 74.463,78.854 74.463,21.122 60.16,13.999 "/>
<rect x="39.839" y="13.999" fill="#4A8FCC" width="20.321" height="72.002"/>
<circle fill="#BE202E" cx="69.856" cy="68.993" r="21.938"/>
<g id="g17038" transform="translate(8884.1409,-30215.235)">
	<path id="rect10076" fill="#FFFFFF" d="M-8822.22,30280.879c-0.914,0-1.649,0.734-1.649,1.648v13.191
		c0,0.914,0.735,1.65,1.649,1.65h15.871c0.914,0,1.648-0.736,1.648-1.65v-13.191c0-0.914-0.734-1.648-1.648-1.648H-8822.22z
		 M-8814.284,30285.354c1.224,0,2.214,0.99,2.214,2.213c0,0.854-0.481,1.592-1.187,1.963v3.582c0,0.57-0.458,1.027-1.027,1.027
		c-0.568,0-1.026-0.457-1.026-1.027v-3.582c-0.706-0.371-1.188-1.109-1.188-1.963
		C-8816.498,30286.344-8815.507,30285.354-8814.284,30285.354z"/>
	<path id="rect10867" fill="#FFFFFF" d="M-8814.284,30271.086c-3.809,0-7.151,2.729-7.151,6.377v2.707h3.286v-2.707
		c0-1.598,1.572-3.092,3.865-3.092s3.863,1.494,3.863,3.092v2.707h3.286v-2.707
		C-8807.135,30273.814-8810.476,30271.086-8814.284,30271.086z"/>
</g>
</svg>
