<?xml version="1.0" encoding="utf-8"?>
<svg version="1.1" id="Layer_1" xmlns="http://www.w3.org/2000/svg" xmlns:xlink="http://www.w3.org/1999/xlink" x="0px" y="0px"
	 viewBox="0 0 100 100" width="100px" height="100px" xml:space="preserve">
<g id="Layer_208">
	<g enable-background="new    ">
		<g>
			<path id="SVGID_352_" fill="#4A8FCC" d="M40.977,24.37v-3.105c0,0.113,0.02,0.22,0.083,0.323v3.103
				C40.995,24.588,40.977,24.48,40.977,24.37z"/>
		</g>
		<g>
			<defs>
				<path id="SVGID_1_" d="M40.977,24.37v-3.105c0,0.113,0.02,0.22,0.083,0.323v3.103C40.995,24.588,40.977,24.48,40.977,24.37z"/>
			</defs>
			<clipPath id="SVGID_2_">
				<use xlink:href="#SVGID_1_"  overflow="visible"/>
			</clipPath>
			<g clip-path="url(#SVGID_2_)" enable-background="new    ">
				<path fill="#4A8FCC" d="M41.059,21.586v3.103c-0.064-0.103-0.083-0.21-0.083-0.32v-3.105
					C40.977,21.377,40.995,21.484,41.059,21.586"/>
			</g>
		</g>
	</g>
	<g>
		<polygon fill="#4A8FCC" points="49.672,21.337 49.391,24.69 42.813,24.69 42.557,21.416 		"/>
	</g>
	<g enable-background="new    ">
		<g>
			<path id="SVGID_354_" fill="#4A8FCC" d="M53.726,21.827v3.103c-0.403,0.495-1,0.833-1.691,0.879v-3.103
				C52.726,22.657,53.323,22.322,53.726,21.827z"/>
		</g>
		<g>
			<defs>
				<path id="SVGID_3_" d="M53.726,21.827v3.103c-0.403,0.495-1,0.833-1.691,0.879v-3.103
					C52.726,22.657,53.323,22.322,53.726,21.827z"/>
			</defs>
			<clipPath id="SVGID_4_">
				<use xlink:href="#SVGID_3_"  overflow="visible"/>
			</clipPath>
			<g clip-path="url(#SVGID_4_)" enable-background="new    ">
				<path fill="#4A8FCC" d="M53.726,21.827v3.103c-0.403,0.495-1,0.833-1.691,0.879v-3.103
					C52.726,22.657,53.323,22.322,53.726,21.827"/>
			</g>
		</g>
	</g>
	<g>
		<polygon fill="#4A8FCC" points="58.789,25.393 58.789,28.497 53.726,24.929 52.749,20.973 		"/>
	</g>
	<g>
		<polygon fill="#4A8FCC" points="42.813,21.586 42.813,24.69 34.934,34.083 34.934,30.977 		"/>
	</g>
	<g>
		<polygon fill="#4A8FCC" points="53.741,31.251 53.741,34.354 49.391,24.69 49.391,21.586 		"/>
	</g>
	<g>
		<polygon fill="#4A8FCC" points="59.837,31.894 58.789,35.714 57.24,36.242 57.24,33.137 		"/>
	</g>
	<g>
		<polygon fill="#4A8FCC" points="70.888,35.255 70.314,38.72 67.623,38.72 67.623,35.619 		"/>
	</g>
	<g>
		<rect x="63.641" y="35.619" fill="#4A8FCC" width="0.449" height="3.101"/>
	</g>
	<g enable-background="new    ">
		<g>
			<path id="SVGID_356_" fill="#4A8FCC" d="M72.924,33.442v3.103c0,1.312-1.305,2.174-2.61,2.174v-3.101
				C71.619,35.619,72.924,34.755,72.924,33.442z"/>
		</g>
		<g>
			<defs>
				<path id="SVGID_5_" d="M72.924,33.442v3.103c0,1.312-1.305,2.174-2.61,2.174v-3.101C71.619,35.619,72.924,34.755,72.924,33.442z
					"/>
			</defs>
			<clipPath id="SVGID_6_">
				<use xlink:href="#SVGID_5_"  overflow="visible"/>
			</clipPath>
			<g clip-path="url(#SVGID_6_)" enable-background="new    ">
				<path fill="#4A8FCC" d="M72.924,33.442v3.103c0,0.095-0.005,0.185-0.018,0.274v-3.103
					C72.919,33.626,72.924,33.535,72.924,33.442"/>
				<path fill="#4A8FCC" d="M72.906,33.716v3.103c-0.015,0.103-0.039,0.205-0.069,0.303v-3.105
					C72.867,33.921,72.891,33.819,72.906,33.716"/>
				<path fill="#4A8FCC" d="M72.837,34.017v3.105c-0.039,0.118-0.09,0.23-0.146,0.335v-3.103
					C72.747,34.247,72.799,34.137,72.837,34.017"/>
				<path fill="#4A8FCC" d="M72.691,34.354v3.103c-0.435,0.784-1.407,1.264-2.377,1.264v-3.101
					C71.284,35.619,72.257,35.139,72.691,34.354"/>
			</g>
		</g>
	</g>
	<g enable-background="new    ">
		<g>
			<path id="SVGID_358_" fill="#4A8FCC" d="M61.012,35.793v3.103c-1.256-0.078-2.223-1.087-2.223-2.351v-3.103
				C58.789,34.706,59.756,35.714,61.012,35.793z"/>
		</g>
		<g>
			<defs>
				<path id="SVGID_7_" d="M61.012,35.793v3.103c-1.256-0.078-2.223-1.087-2.223-2.351v-3.103
					C58.789,34.706,59.756,35.714,61.012,35.793z"/>
			</defs>
			<clipPath id="SVGID_8_">
				<use xlink:href="#SVGID_7_"  overflow="visible"/>
			</clipPath>
			<g clip-path="url(#SVGID_8_)" enable-background="new    ">
				<path fill="#4A8FCC" d="M61.012,35.793v3.103c-1.256-0.078-2.223-1.087-2.223-2.351v-3.103
					C58.789,34.706,59.756,35.714,61.012,35.793"/>
			</g>
		</g>
	</g>
	<g>
		<polygon fill="#4A8FCC" points="54.805,33.939 54.805,37.041 35.821,43.697 35.821,40.592 		"/>
	</g>
	<g>
		<polygon fill="#4A8FCC" points="58.289,40.946 58.289,44.05 54.625,36.506 54.364,32.753 		"/>
	</g>
	<g>
		<polygon fill="#4A8FCC" points="64.059,34.317 63.641,38.72 61.112,44.115 61.112,41.01 		"/>
	</g>
	<g>
		<polygon fill="#4A8FCC" points="60.914,45.842 60.914,48.946 59.802,46.722 59.524,42.605 		"/>
	</g>
	<g>
		<polygon fill="#4A8FCC" points="59.802,43.617 59.802,46.722 56.741,52.943 56.741,49.842 		"/>
	</g>
	<g>
		<polygon fill="#4A8FCC" points="53.066,51.443 53.066,54.543 35.821,51.203 35.821,48.098 		"/>
	</g>
	<g>
		<polygon fill="#4A8FCC" points="58.789,52.657 58.789,55.76 55.661,55.025 54.989,51.675 		"/>
	</g>
	<g enable-background="new    ">
		<g>
			<path id="SVGID_360_" fill="#4A8FCC" d="M35.821,51.585v3.105c0,1.341-0.599,2.431-1.695,3.04v-3.105
				C35.222,54.018,35.821,52.928,35.821,51.585z"/>
		</g>
		<g>
			<defs>
				<path id="SVGID_9_" d="M35.821,51.585v3.105c0,1.341-0.599,2.431-1.695,3.04v-3.105C35.222,54.018,35.821,52.928,35.821,51.585z
					"/>
			</defs>
			<clipPath id="SVGID_10_">
				<use xlink:href="#SVGID_9_"  overflow="visible"/>
			</clipPath>
			<g clip-path="url(#SVGID_10_)" enable-background="new    ">
				<path fill="#4A8FCC" d="M35.821,51.585v3.105c0,0.205-0.018,0.405-0.041,0.6v-3.103C35.804,51.992,35.821,51.792,35.821,51.585"
					/>
				<path fill="#4A8FCC" d="M35.779,52.188v3.103c-0.029,0.21-0.08,0.41-0.141,0.6v-3.103C35.699,52.599,35.75,52.395,35.779,52.188
					"/>
				<path fill="#4A8FCC" d="M35.637,52.789v3.103c-0.064,0.205-0.149,0.4-0.246,0.584v-3.103
					C35.488,53.19,35.573,52.994,35.637,52.789"/>
				<path fill="#4A8FCC" d="M35.391,53.374v3.103c-0.288,0.52-0.716,0.946-1.266,1.254v-3.105
					C34.675,54.322,35.102,53.894,35.391,53.374"/>
			</g>
		</g>
	</g>
	<g enable-background="new    ">
		<g>
			<path id="SVGID_362_" fill="#4A8FCC" d="M14.913,54.93v3.103c-1.967,0-3.836-1.376-3.836-3.343v-3.105
				C11.076,53.554,12.945,54.93,14.913,54.93z"/>
		</g>
		<g>
			<defs>
				<path id="SVGID_11_" d="M14.913,54.93v3.103c-1.967,0-3.836-1.376-3.836-3.343v-3.105C11.076,53.554,12.945,54.93,14.913,54.93z
					"/>
			</defs>
			<clipPath id="SVGID_12_">
				<use xlink:href="#SVGID_11_"  overflow="visible"/>
			</clipPath>
			<g clip-path="url(#SVGID_12_)">
				<path fill="#4A8FCC" d="M14.913,54.93v3.103c-1.967,0-3.836-1.376-3.836-3.343v-3.105C11.076,53.554,12.945,54.93,14.913,54.93"
					/>
			</g>
		</g>
	</g>
	<g>
		<polygon fill="#4A8FCC" points="31.435,54.93 31.435,58.032 14.913,58.032 14.252,54.333 		"/>
	</g>
	<g>
		<polygon fill="#4A8FCC" points="70.991,58.296 70.314,61.536 61.124,61.536 60.462,58.165 		"/>
	</g>
	<g enable-background="new    ">
		<g>
			<path id="SVGID_364_" fill="#4A8FCC" d="M72.924,57.297v3.103c0,1.041-0.838,1.143-1.843,1.143c-0.251,0-0.508-0.007-0.767-0.007
				v-3.103c0.259,0,0.515,0.007,0.767,0.007C72.086,58.44,72.924,58.335,72.924,57.297z"/>
		</g>
		<g>
			<defs>
				<path id="SVGID_13_" d="M72.924,57.297v3.103c0,1.041-0.838,1.143-1.843,1.143c-0.251,0-0.508-0.007-0.767-0.007v-3.103
					c0.259,0,0.515,0.007,0.767,0.007C72.086,58.44,72.924,58.335,72.924,57.297z"/>
			</defs>
			<clipPath id="SVGID_14_">
				<use xlink:href="#SVGID_13_"  overflow="visible"/>
			</clipPath>
			<g clip-path="url(#SVGID_14_)" enable-background="new    ">
				<path fill="#4A8FCC" d="M72.924,57.297v3.103c0,0.08-0.002,0.159-0.015,0.23v-3.105C72.921,57.456,72.924,57.378,72.924,57.297"
					/>
				<path fill="#4A8FCC" d="M72.909,57.524v3.105c-0.01,0.069-0.023,0.134-0.041,0.193V57.72
					C72.886,57.658,72.899,57.596,72.909,57.524"/>
				<path fill="#4A8FCC" d="M72.867,57.72v3.103c-0.02,0.061-0.046,0.115-0.071,0.166v-3.103
					C72.821,57.835,72.847,57.778,72.867,57.72"/>
				<path fill="#4A8FCC" d="M72.796,57.886v3.103c-0.276,0.494-0.948,0.554-1.715,0.554c-0.251,0-0.508-0.007-0.767-0.007v-3.103
					c0.259,0,0.515,0.007,0.767,0.007C71.848,58.44,72.52,58.38,72.796,57.886"/>
			</g>
		</g>
	</g>
	<g enable-background="new    ">
		<g>
			<path id="SVGID_366_" fill="#4A8FCC" d="M61.124,58.434v3.103c-0.389,0-0.965,0.256-1.397,0.256
				c-0.136,0-0.264-0.025-0.357-0.095v-3.103c0.093,0.069,0.22,0.095,0.357,0.095C60.16,58.69,60.736,58.434,61.124,58.434z"/>
		</g>
		<g>
			<defs>
				<path id="SVGID_15_" d="M61.124,58.434v3.103c-0.389,0-0.965,0.256-1.397,0.256c-0.136,0-0.264-0.025-0.357-0.095v-3.103
					c0.093,0.069,0.22,0.095,0.357,0.095C60.16,58.69,60.736,58.434,61.124,58.434z"/>
			</defs>
			<clipPath id="SVGID_16_">
				<use xlink:href="#SVGID_15_"  overflow="visible"/>
			</clipPath>
			<g clip-path="url(#SVGID_16_)" enable-background="new    ">
				<path fill="#4A8FCC" d="M61.124,58.434v3.103c-0.389,0-0.965,0.256-1.397,0.256c-0.136,0-0.264-0.025-0.357-0.095v-3.103
					c0.093,0.069,0.22,0.095,0.357,0.095C60.16,58.69,60.736,58.434,61.124,58.434"/>
			</g>
		</g>
	</g>
	<g>
		<polygon fill="#4A8FCC" points="55.661,51.922 55.661,55.025 51.519,63.282 51.519,60.178 		"/>
	</g>
	<g>
		<polygon fill="#4A8FCC" points="60.151,57.566 59.37,61.698 53.487,66.768 53.487,63.664 		"/>
	</g>
	<g>
		<polygon fill="#4A8FCC" points="41.108,64.371 41.108,67.471 31.435,58.032 30.907,53.864 		"/>
	</g>
	<g enable-background="new    ">
		<g>
			<path id="SVGID_368_" fill="#4A8FCC" d="M42.684,74.225v3.103c-1.322,0-1.576-1.023-1.576-2.336V71.89
				C41.108,73.198,41.362,74.225,42.684,74.225z"/>
		</g>
		<g>
			<defs>
				<path id="SVGID_17_" d="M42.684,74.225v3.103c-1.322,0-1.576-1.023-1.576-2.336V71.89
					C41.108,73.198,41.362,74.225,42.684,74.225z"/>
			</defs>
			<clipPath id="SVGID_18_">
				<use xlink:href="#SVGID_17_"  overflow="visible"/>
			</clipPath>
			<g clip-path="url(#SVGID_18_)" enable-background="new    ">
				<path fill="#4A8FCC" d="M42.684,74.225v3.103c-1.322,0-1.576-1.023-1.576-2.336V71.89
					C41.108,73.198,41.362,74.225,42.684,74.225"/>
			</g>
		</g>
	</g>
	<g enable-background="new    ">
		<g>
			<path id="SVGID_370_" fill="#4A8FCC" d="M53.487,71.889v3.103c0,1.312-0.325,2.336-1.63,2.336v-3.103
				C53.161,74.225,53.487,73.198,53.487,71.889z"/>
		</g>
		<g>
			<defs>
				<path id="SVGID_19_" d="M53.487,71.889v3.103c0,1.312-0.325,2.336-1.63,2.336v-3.103C53.161,74.225,53.487,73.198,53.487,71.889
					z"/>
			</defs>
			<clipPath id="SVGID_20_">
				<use xlink:href="#SVGID_19_"  overflow="visible"/>
			</clipPath>
			<g clip-path="url(#SVGID_20_)" enable-background="new    ">
				<path fill="#4A8FCC" d="M53.487,71.889v3.103c0,0.279-0.015,0.543-0.051,0.789v-3.105
					C53.472,72.432,53.487,72.165,53.487,71.889"/>
				<path fill="#4A8FCC" d="M53.435,72.675v3.105c-0.025,0.176-0.061,0.342-0.11,0.494v-3.103
					C53.374,73.018,53.41,72.852,53.435,72.675"/>
				<path fill="#4A8FCC" d="M53.325,73.172v3.103c-0.036,0.125-0.088,0.241-0.146,0.347v-3.103
					C53.237,73.411,53.288,73.295,53.325,73.172"/>
				<path fill="#4A8FCC" d="M53.179,73.519v3.103c-0.241,0.438-0.652,0.706-1.322,0.706v-3.103
					C52.526,74.225,52.936,73.957,53.179,73.519"/>
			</g>
		</g>
	</g>
	<g>
		<polygon fill="#4A8FCC" points="52.573,73.713 51.857,77.328 42.684,77.328 42.323,73.88 		"/>
	</g>
	<g>
		
			<linearGradient id="SVGID_21_" gradientUnits="userSpaceOnUse" x1="11.0772" y1="61.1104" x2="72.9238" y2="61.1104" gradientTransform="matrix(1 0 0 -1 0 102)">
			<stop  offset="0" style="stop-color:#062F4B"/>
			<stop  offset="0" style="stop-color:#1D54A3"/>
			<stop  offset="1" style="stop-color:#2F73B8"/>
		</linearGradient>
		<path fill="url(#SVGID_21_)" d="M70.314,35.619h-2.69v10.526h2.69c1.305,0,2.61,0.736,2.61,2.03v9.121
			c0,1.038-0.838,1.143-1.843,1.143c-0.251,0-0.508-0.007-0.767-0.007h-9.19c-0.389,0-0.965,0.256-1.397,0.256
			c-0.136,0-0.264-0.026-0.357-0.095l-5.884,5.07v8.224c0,1.31-0.325,2.336-1.63,2.336h-9.172c-1.322,0-1.576-1.026-1.576-2.336
			V64.37l-9.673-9.441H14.913c-1.967,0-3.836-1.376-3.836-3.345V34.05c0-1.954,1.869-3.697,3.836-3.697h17.663l0.472,0.113
			l8.012-8.88c-0.213-0.354,0.049-0.769,0.049-1.217v-9.117c0-1.297,0.254-3.697,1.576-3.697h9.172c1.305,0,1.63,2.399,1.63,3.697
			v8.047l5.414,3.376c0.435-0.545,1.466-1.087,2.223-1.087h9.19c1.305,0,2.61,1.439,2.61,2.751v9.104
			C72.924,34.755,71.619,35.619,70.314,35.619z M58.289,40.946l-3.484-7.008L35.82,40.591v5.107l18.322,3.663L58.289,40.946
			 M42.813,21.586l-7.88,9.39c0.643,0.641,0.887,2.097,0.887,3.074v4.032l17.92-6.832l-4.35-9.664L42.813,21.586 M42.684,60.178
			h6.175l4.207-8.735l-17.245-3.345v3.487c0,1.344-0.599,2.433-1.695,3.04l6.627,6.673C41.184,60.691,41.877,60.178,42.684,60.178
			 M58.789,56.978v-4.32l-3.128-0.736l-4.142,8.257h0.338c0.679,0,1.305,0.415,1.74,0.862L58.789,56.978 M53.726,21.827
			c-0.403,0.495-1,0.831-1.691,0.879l4.142,8.303l2.612-0.912v-4.704L53.726,21.827 M64.09,46.145V35.619h-0.449l-2.528,5.391
			l2.433,5.135L64.09,46.145 M58.789,48.176c0-1.215,0.933-2.207,2.125-2.333l-1.112-2.226l-3.061,6.226l2.048,0.415V48.176
			 M59.788,38.272l1.225-2.48c-1.256-0.078-2.223-1.087-2.223-2.351v-0.833l-1.549,0.528L59.788,38.272"/>
	</g>
</g>
<circle fill="#BE202E" cx="69.856" cy="68.993" r="21.938"/>
<g id="g17038_6_" transform="translate(8884.1409,-30215.235)">
	<path id="rect10076_6_" fill="#FFFFFF" d="M-8822.22,30280.879c-0.914,0-1.649,0.734-1.649,1.648v13.191
		c0,0.914,0.735,1.65,1.649,1.65h15.871c0.914,0,1.648-0.736,1.648-1.65v-13.191c0-0.914-0.734-1.648-1.648-1.648H-8822.22z
		 M-8814.284,30285.354c1.224,0,2.214,0.99,2.214,2.213c0,0.854-0.481,1.592-1.187,1.963v3.582c0,0.57-0.458,1.027-1.027,1.027
		c-0.568,0-1.026-0.457-1.026-1.027v-3.582c-0.706-0.371-1.188-1.109-1.188-1.963
		C-8816.498,30286.344-8815.507,30285.354-8814.284,30285.354z"/>
	<path id="rect10867_6_" fill="#FFFFFF" d="M-8814.284,30271.086c-3.809,0-7.151,2.729-7.151,6.377v2.707h3.286v-2.707
		c0-1.598,1.572-3.092,3.865-3.092s3.863,1.494,3.863,3.092v2.707h3.286v-2.707
		C-8807.135,30273.814-8810.476,30271.086-8814.284,30271.086z"/>
</g>
</svg>
