<?xml version="1.0" encoding="utf-8"?>
<!-- Generator: Adobe Illustrator 19.0.1, SVG Export Plug-In . SVG Version: 6.00 Build 0)  -->
<svg version="1.1" id="Layer_1" xmlns="http://www.w3.org/2000/svg" xmlns:xlink="http://www.w3.org/1999/xlink" x="0px" y="0px" width="100px" height="100px"
	 viewBox="0 0 100 100" enable-background="new 0 0 100 100" xml:space="preserve">
<polygon fill="#F68635" points="61.6,78.562 48.999,84.863 48.999,12.863 61.6,19.164 "/>
<linearGradient id="SVGID_1_" gradientUnits="userSpaceOnUse" x1="36.3984" y1="48.8633" x2="48.999" y2="48.8633">
	<stop  offset="0" style="stop-color:#F26533"/>
	<stop  offset="0.2401" style="stop-color:#F36F34"/>
	<stop  offset="0.67" style="stop-color:#F68635"/>
	<stop  offset="1" style="stop-color:#F26522"/>
</linearGradient>
<polygon fill="url(#SVGID_1_)" points="36.398,78.562 48.999,84.863 48.999,12.863 36.398,19.164 "/>
<polygon fill="#F68635" points="44.248,39.071 22.983,36.358 22.983,25.871 44.248,30.859 "/>
<linearGradient id="SVGID_2_" gradientUnits="userSpaceOnUse" x1="53.75" y1="38.1353" x2="75.0146" y2="38.1353">
	<stop  offset="0" style="stop-color:#F26533"/>
	<stop  offset="0.2401" style="stop-color:#F36F34"/>
	<stop  offset="0.67" style="stop-color:#F68635"/>
	<stop  offset="1" style="stop-color:#F26522"/>
</linearGradient>
<polygon fill="url(#SVGID_2_)" points="75.015,32.016 53.75,35.671 53.75,44.255 75.015,42.979 "/>
<polygon fill="#F68635" points="78.822,43.392 75.015,42.897 75.015,32.016 78.822,33.41 "/>
<linearGradient id="SVGID_3_" gradientUnits="userSpaceOnUse" x1="19.1914" y1="31.6304" x2="22.9834" y2="31.6304">
	<stop  offset="0" style="stop-color:#F26533"/>
	<stop  offset="0.2401" style="stop-color:#F36F34"/>
	<stop  offset="0.67" style="stop-color:#F68635"/>
	<stop  offset="1" style="stop-color:#F26522"/>
</linearGradient>
<polygon fill="url(#SVGID_3_)" points="19.191,27.768 22.983,25.871 22.983,36.358 19.191,37.39 "/>
<polygon fill="#F26522" points="44.248,39.071 39.826,39.715 19.191,37.39 22.983,36.358 "/>
<polygon fill="#F26522" points="78.822,43.392 57.704,44.526 53.75,44.255 75.443,42.953 "/>
<g>
	<g>
		<linearGradient id="SVGID_4_" gradientUnits="userSpaceOnUse" x1="42.8389" y1="70.051" x2="90.8389" y2="70.051">
			<stop  offset="0" style="stop-color:#F26533"/>
			<stop  offset="0.2401" style="stop-color:#F36F34"/>
			<stop  offset="0.67" style="stop-color:#F68635"/>
			<stop  offset="1" style="stop-color:#F26522"/>
		</linearGradient>
		<path fill="url(#SVGID_4_)" d="M66.839,90.766c-0.707,0-1.343-0.262-1.837-0.756L48.997,74.57
			c-0.136-0.104-0.397-0.349-0.729-0.69c-0.321-0.33-0.808-0.903-1.488-1.753c-0.673-0.843-1.286-1.722-1.822-2.613
			c-0.55-0.916-1.043-2.029-1.465-3.308c-0.434-1.31-0.654-2.607-0.654-3.855c0-4.026,1.198-7.238,3.561-9.547
			c2.358-2.301,5.625-3.467,9.709-3.467c1.163,0,2.361,0.203,3.563,0.604c1.181,0.394,2.296,0.933,3.313,1.602
			c0.968,0.637,1.817,1.247,2.525,1.812c0.455,0.364,0.898,0.746,1.327,1.141c0.428-0.395,0.872-0.776,1.326-1.14
			c0.703-0.563,1.554-1.173,2.526-1.813c1.018-0.669,2.133-1.208,3.313-1.602c1.202-0.4,2.4-0.604,3.563-0.604
			c4.085,0,7.352,1.167,9.709,3.467c2.363,2.309,3.562,5.521,3.562,9.547c0,4.039-2.076,8.163-6.171,12.258L68.662,90.023
			C68.182,90.504,67.546,90.766,66.839,90.766z"/>
		<path fill="#FFFFFF" d="M77.569,50.337c3.834,0,6.837,1.062,9.011,3.183c2.173,2.122,3.26,5.066,3.26,8.831
			c0,3.782-1.96,7.633-5.878,11.551L67.969,89.303c-0.309,0.309-0.686,0.463-1.13,0.463c-0.445,0-0.821-0.154-1.13-0.463
			L49.692,73.85c-0.171-0.137-0.406-0.359-0.706-0.667s-0.774-0.868-1.425-1.681c-0.65-0.813-1.231-1.647-1.745-2.503
			c-0.514-0.855-0.972-1.891-1.373-3.106c-0.402-1.215-0.604-2.396-0.604-3.542c0-3.765,1.087-6.708,3.26-8.831
			c2.174-2.122,5.177-3.183,9.011-3.183c1.061,0,2.143,0.184,3.247,0.552c1.104,0.368,2.13,0.864,3.08,1.489
			c0.95,0.625,1.767,1.211,2.451,1.758c0.685,0.548,1.335,1.129,1.951,1.746c0.616-0.616,1.267-1.198,1.951-1.746
			c0.684-0.547,1.501-1.133,2.451-1.758c0.95-0.625,1.977-1.121,3.08-1.489C75.426,50.521,76.508,50.337,77.569,50.337
			 M77.569,48.337c-1.271,0-2.576,0.22-3.88,0.655c-1.263,0.421-2.456,0.998-3.546,1.715c-1.001,0.658-1.877,1.287-2.603,1.868
			c-0.237,0.19-0.471,0.384-0.701,0.582c-0.23-0.198-0.465-0.392-0.701-0.582c-0.732-0.585-1.607-1.214-2.602-1.868
			c-1.091-0.717-2.284-1.294-3.546-1.715c-1.304-0.435-2.609-0.655-3.88-0.655c-4.355,0-7.857,1.262-10.408,3.752
			c-2.563,2.503-3.863,5.956-3.863,10.262c0,1.355,0.237,2.759,0.705,4.171c0.445,1.347,0.969,2.527,1.557,3.507
			c0.558,0.93,1.197,1.846,1.898,2.723c0.697,0.872,1.205,1.469,1.553,1.827c0.326,0.335,0.586,0.582,0.809,0.768l15.959,15.397
			c0.66,0.661,1.54,1.024,2.518,1.024s1.858-0.363,2.544-1.049l15.965-15.375c4.316-4.316,6.491-8.678,6.491-12.992
			c0-4.306-1.299-7.758-3.862-10.261C85.425,49.599,81.924,48.337,77.569,48.337L77.569,48.337z"/>
	</g>
</g>
<circle fill="#F15A29" cx="78.828" cy="75.449" r="11.569"/>
<text transform="matrix(1 0 0 1 67.0416 85.7184)" fill="#FFFFFF" font-family="'FontAwesome'" font-size="30.2012px"></text>
</svg>
