<?xml version="1.0" encoding="utf-8"?>
<!-- Generator: Adobe Illustrator 19.0.1, SVG Export Plug-In . SVG Version: 6.00 Build 0)  -->
<svg version="1.1" id="Layer_1" xmlns="http://www.w3.org/2000/svg" xmlns:xlink="http://www.w3.org/1999/xlink" x="0px" y="0px" width="100px" height="100px"
	 viewBox="0 0 100 100" enable-background="new 0 0 100 100" xml:space="preserve">
<polygon fill="#F68635" points="61.6,78.562 48.999,84.863 48.999,12.863 61.6,19.164 "/>
<linearGradient id="SVGID_1_" gradientUnits="userSpaceOnUse" x1="36.3984" y1="48.8633" x2="48.999" y2="48.8633">
	<stop  offset="0" style="stop-color:#F26533"/>
	<stop  offset="0.2401" style="stop-color:#F36F34"/>
	<stop  offset="0.67" style="stop-color:#F68635"/>
	<stop  offset="1" style="stop-color:#F26522"/>
</linearGradient>
<polygon fill="url(#SVGID_1_)" points="36.398,78.562 48.999,84.863 48.999,12.863 36.398,19.164 "/>
<polygon fill="#F68635" points="44.248,39.071 22.983,36.358 22.983,25.871 44.248,30.859 "/>
<linearGradient id="SVGID_2_" gradientUnits="userSpaceOnUse" x1="53.75" y1="38.1353" x2="75.0146" y2="38.1353">
	<stop  offset="0" style="stop-color:#F26533"/>
	<stop  offset="0.2401" style="stop-color:#F36F34"/>
	<stop  offset="0.67" style="stop-color:#F68635"/>
	<stop  offset="1" style="stop-color:#F26522"/>
</linearGradient>
<polygon fill="url(#SVGID_2_)" points="75.015,32.016 53.75,35.671 53.75,44.255 75.015,42.979 "/>
<polygon fill="#F68635" points="78.822,43.392 75.015,42.897 75.015,32.016 78.822,33.41 "/>
<linearGradient id="SVGID_3_" gradientUnits="userSpaceOnUse" x1="19.1914" y1="31.6304" x2="22.9834" y2="31.6304">
	<stop  offset="0" style="stop-color:#F26533"/>
	<stop  offset="0.2401" style="stop-color:#F36F34"/>
	<stop  offset="0.67" style="stop-color:#F68635"/>
	<stop  offset="1" style="stop-color:#F26522"/>
</linearGradient>
<polygon fill="url(#SVGID_3_)" points="19.191,27.768 22.983,25.871 22.983,36.358 19.191,37.39 "/>
<polygon fill="#F26522" points="44.248,39.071 39.826,39.715 19.191,37.39 22.983,36.358 "/>
<polygon fill="#F26522" points="78.822,43.392 57.704,44.526 53.75,44.255 75.443,42.953 "/>
<g>
	<path fill="#FFFFFF" d="M68.95,49.167c0.26,0,0.513,0.111,0.569,0.179c2.425,2.743,4.863,3.657,7.04,3.657
		c4.366,0,7.506-3.502,7.672-3.686l6.653,8.616c-0.175,0.206-3.513,4.112-3.326,8.702c0.218,5.392,5.256,7.348,4.016,13.462
		c-2.244,11.017-13.011,6.565-21.728,13.734c-0.168,0.135-0.305,0.181-0.415,0.181c-0.22,0-0.318-0.173-0.324-0.181
		c-5.285-6.379-21.6-1.057-23.618-13.734c-1.113-6.945,3.08-7.795,3.317-13.011c0.184-4.024-3.142-8.201-3.317-8.421l7.744-9.348
		c0.17,0.171,3.396,3.4,7.925,3.4c2.266,0,4.817-0.848,7.368-3.4C68.644,49.204,68.796,49.167,68.95,49.167z"/>
</g>
<g enable-background="new    ">
	<path fill="#9E5125" d="M69.083,92.964v1.821c-5.079-6.132-20.757-1.015-22.696-13.198c-0.125-0.781-0.18-1.478-0.18-2.115v-1.821
		c0,0.637,0.055,1.334,0.18,2.114C48.326,91.948,64.005,86.834,69.083,92.964"/>
</g>
<path fill="#FFFFFF" d="M46.207,79.472v-1.821c0,0.637,0.055,1.334,0.18,2.114c1.939,12.183,17.618,7.069,22.696,13.198v1.821
	c-5.079-6.132-20.757-1.015-22.696-13.198C46.262,80.806,46.207,80.109,46.207,79.472z"/>
<g>
	<linearGradient id="SVGID_4_" gradientUnits="userSpaceOnUse" x1="46.207" y1="71.5899" x2="90.8629" y2="71.5899">
		<stop  offset="0" style="stop-color:#F26533"/>
		<stop  offset="0.2401" style="stop-color:#F36F34"/>
		<stop  offset="0.67" style="stop-color:#F68635"/>
		<stop  offset="1" style="stop-color:#F26522"/>
	</linearGradient>
	<path fill="url(#SVGID_4_)" d="M68.934,50.042c0.25,0,0.493,0.107,0.547,0.172c2.33,2.636,4.673,3.514,6.765,3.514
		c4.196,0,7.213-3.366,7.372-3.542l6.393,8.28c-0.168,0.198-3.375,3.952-3.197,8.363c0.21,5.182,5.051,7.061,3.859,12.936
		c-2.156,10.587-12.503,6.309-20.88,13.198c-0.162,0.13-0.293,0.174-0.399,0.174c-0.211,0-0.305-0.167-0.311-0.174
		c-5.079-6.13-20.757-1.016-22.696-13.198c-1.07-6.674,2.959-7.491,3.188-12.503c0.177-3.867-3.019-7.881-3.188-8.092l7.442-8.984
		c0.163,0.164,3.263,3.267,7.616,3.267c2.178,0,4.629-0.815,7.081-3.267C68.64,50.077,68.786,50.042,68.934,50.042z"/>
</g>
<g enable-background="new    ">
	<path fill="#9E5125" d="M90.863,77.973v1.82c0,0.393-0.028,0.805-0.092,1.241v-1.822C90.835,78.777,90.863,78.365,90.863,77.973"/>
	<path fill="#9E5125" d="M90.77,79.212v1.822c-0.026,0.18-0.057,0.365-0.096,0.553c-0.108,0.526-0.236,1.014-0.381,1.469v-1.82
		c0.145-0.456,0.273-0.944,0.381-1.47C90.713,79.577,90.744,79.392,90.77,79.212"/>
	<path fill="#9E5125" d="M90.294,81.235v1.82c-0.222,0.689-0.487,1.302-0.789,1.849v-1.822
		C89.807,82.536,90.072,81.924,90.294,81.235"/>
	<path fill="#9E5125" d="M89.505,83.083v1.822c-3.536,6.376-12.378,3.849-19.711,9.88c-0.162,0.132-0.293,0.173-0.399,0.173
		c-0.211,0-0.305-0.166-0.311-0.173v-1.821c0.006,0.008,0.1,0.174,0.311,0.174c0.106,0,0.237-0.044,0.399-0.174
		C77.126,86.932,85.969,89.459,89.505,83.083"/>
</g>
<path fill="#FFFFFF" d="M90.863,77.973v1.82c0,0.556-0.06,1.151-0.188,1.794c-2.156,10.586-12.503,6.307-20.88,13.198
	c-0.162,0.132-0.293,0.173-0.399,0.173c-0.211,0-0.305-0.166-0.311-0.173v-1.821c0.006,0.008,0.1,0.174,0.311,0.174
	c0.106,0,0.237-0.044,0.399-0.174c8.377-6.89,18.724-2.611,20.88-13.198C90.802,79.122,90.863,78.528,90.863,77.973z"/>
</svg>
