<?xml version="1.0" encoding="utf-8"?>
<!-- Generator: Adobe Illustrator 19.0.1, SVG Export Plug-In . SVG Version: 6.00 Build 0)  -->
<svg version="1.1" id="Layer_1" xmlns="http://www.w3.org/2000/svg" xmlns:xlink="http://www.w3.org/1999/xlink" x="0px" y="0px" width="100px" height="100px"
	 viewBox="0 0 100 100" enable-background="new 0 0 100 100" xml:space="preserve">
<g id="S3_BUCKET_1_">
	<g>
		<g enable-background="new    ">
			<g>
				
					<linearGradient id="SVGID_3_" gradientUnits="userSpaceOnUse" x1="22.6416" y1="66.6435" x2="22.8116" y2="66.6435" gradientTransform="matrix(1 0 0 -1 0 102)">
					<stop  offset="0" style="stop-color:#8E3526"/>
					<stop  offset="1" style="stop-color:#C8473A"/>
				</linearGradient>
				<path fill="url(#SVGID_3_)" d="M22.812,35.714c-0.107-0.234-0.17-0.475-0.17-0.715L22.812,35.714z"/>
			</g>
			<g>
				
					<linearGradient id="SVGID_4_" gradientUnits="userSpaceOnUse" x1="77.1885" y1="66.6435" x2="77.3585" y2="66.6435" gradientTransform="matrix(1 0 0 -1 0 102)">
					<stop  offset="0" style="stop-color:#8E3526"/>
					<stop  offset="1" style="stop-color:#C8473A"/>
				</linearGradient>
				<path fill="url(#SVGID_4_)" d="M77.188,35.714l0.17-0.715C77.358,35.239,77.3,35.478,77.188,35.714z"/>
			</g>
			<g>
				
					<linearGradient id="SVGID_5_" gradientUnits="userSpaceOnUse" x1="77.1885" y1="67.8075" x2="77.3585" y2="67.8075" gradientTransform="matrix(1 0 0 -1 0 102)">
					<stop  offset="0" style="stop-color:#8E3526"/>
					<stop  offset="1" style="stop-color:#C8473A"/>
				</linearGradient>
				<polygon fill="url(#SVGID_5_)" points="77.358,32.671 77.358,34.999 77.188,35.714 77.188,33.388 				"/>
			</g>
			<g>
				
					<linearGradient id="SVGID_6_" gradientUnits="userSpaceOnUse" x1="22.6416" y1="67.8075" x2="22.8116" y2="67.8075" gradientTransform="matrix(1 0 0 -1 0 102)">
					<stop  offset="0" style="stop-color:#8E3526"/>
					<stop  offset="1" style="stop-color:#C8473A"/>
				</linearGradient>
				<polygon fill="url(#SVGID_6_)" points="22.812,33.388 22.812,35.714 22.642,34.999 22.642,32.671 				"/>
			</g>
			<g>
				<g>
					
						<linearGradient id="SVGID_7_" gradientUnits="userSpaceOnUse" x1="22.641" y1="69.393" x2="77.358" y2="69.393" gradientTransform="matrix(1 0 0 -1 0 102)">
						<stop  offset="0" style="stop-color:#8E3526"/>
						<stop  offset="1" style="stop-color:#C8473A"/>
					</linearGradient>
					<path id="SVGID_2_" fill="url(#SVGID_7_)" d="M77.358,28.229v2.327c0,3.561-12.25,6.429-27.363,6.429
						c-15.105,0-27.354-2.868-27.354-6.429v-2.327c0,3.562,12.248,6.431,27.354,6.431C65.108,34.66,77.358,31.792,77.358,28.229z"/>
				</g>
				<g>
					<defs>
						<path id="SVGID_8_" d="M77.358,28.229v2.327c0,3.561-12.25,6.429-27.363,6.429c-15.105,0-27.354-2.868-27.354-6.429v-2.327
							c0,3.562,12.248,6.431,27.354,6.431C65.108,34.66,77.358,31.792,77.358,28.229z"/>
					</defs>
					<clipPath id="SVGID_9_">
						<use xlink:href="#SVGID_8_"  overflow="visible"/>
					</clipPath>
					<g clip-path="url(#SVGID_9_)" enable-background="new    ">
						
							<linearGradient id="SVGID_10_" gradientUnits="userSpaceOnUse" x1="77.335" y1="72.482" x2="77.3584" y2="72.482" gradientTransform="matrix(1 0 0 -1 0 102)">
							<stop  offset="0" style="stop-color:#8E3526"/>
							<stop  offset="1" style="stop-color:#C8473A"/>
						</linearGradient>
						<path fill="url(#SVGID_10_)" d="M77.358,28.229v2.327c0,0.084-0.01,0.167-0.023,0.251v-2.324
							C77.349,28.399,77.358,28.313,77.358,28.229"/>
						
							<linearGradient id="SVGID_11_" gradientUnits="userSpaceOnUse" x1="77.2588" y1="72.2075" x2="77.335" y2="72.2075" gradientTransform="matrix(1 0 0 -1 0 102)">
							<stop  offset="0" style="stop-color:#8E3526"/>
							<stop  offset="1" style="stop-color:#C8473A"/>
						</linearGradient>
						<path fill="url(#SVGID_11_)" d="M77.335,28.483v2.324c-0.014,0.1-0.041,0.197-0.076,0.295v-2.328
							C77.294,28.679,77.321,28.581,77.335,28.483"/>
						
							<linearGradient id="SVGID_12_" gradientUnits="userSpaceOnUse" x1="77.0654" y1="71.8625" x2="77.2588" y2="71.8625" gradientTransform="matrix(1 0 0 -1 0 102)">
							<stop  offset="0" style="stop-color:#8E3526"/>
							<stop  offset="1" style="stop-color:#C8473A"/>
						</linearGradient>
						<path fill="url(#SVGID_12_)" d="M77.259,28.774v2.328c-0.045,0.133-0.111,0.267-0.193,0.399v-2.325
							C77.147,29.046,77.214,28.911,77.259,28.774"/>
						
							<linearGradient id="SVGID_13_" gradientUnits="userSpaceOnUse" x1="22.641" y1="69.393" x2="77.065" y2="69.393" gradientTransform="matrix(1 0 0 -1 0 102)">
							<stop  offset="0" style="stop-color:#8E3526"/>
							<stop  offset="1" style="stop-color:#C8473A"/>
						</linearGradient>
						<path fill="url(#SVGID_13_)" d="M77.065,29.177v2.325c-1.943,3.112-13.32,5.483-27.07,5.483
							c-15.105,0-27.354-2.868-27.354-6.429v-2.327c0,3.562,12.248,6.431,27.354,6.431C63.745,34.66,75.122,32.288,77.065,29.177"/>
					</g>
				</g>
			</g>
			<g>
				
					<linearGradient id="SVGID_14_" gradientUnits="userSpaceOnUse" x1="68.241" y1="48.3515" x2="77.188" y2="48.3515" gradientTransform="matrix(1 0 0 -1 0 102)">
					<stop  offset="0" style="stop-color:#8E3526"/>
					<stop  offset="1" style="stop-color:#C8473A"/>
				</linearGradient>
				<polygon fill="url(#SVGID_14_)" points="77.188,33.388 77.188,35.714 68.241,73.909 68.241,71.587 				"/>
			</g>
			<g>
				
					<linearGradient id="SVGID_15_" gradientUnits="userSpaceOnUse" x1="22.812" y1="48.3515" x2="31.761" y2="48.3515" gradientTransform="matrix(1 0 0 -1 0 102)">
					<stop  offset="0" style="stop-color:#8E3526"/>
					<stop  offset="1" style="stop-color:#C8473A"/>
				</linearGradient>
				<polygon fill="url(#SVGID_15_)" points="31.761,71.587 31.761,73.909 22.812,35.714 22.812,33.388 				"/>
			</g>
			<g>
				<g>
					
						<linearGradient id="SVGID_16_" gradientUnits="userSpaceOnUse" x1="31.761" y1="27.1095" x2="68.241" y2="27.1095" gradientTransform="matrix(1 0 0 -1 0 102)">
						<stop  offset="0" style="stop-color:#8E3526"/>
						<stop  offset="1" style="stop-color:#C8473A"/>
					</linearGradient>
					<path id="SVGID_1_" fill="url(#SVGID_16_)" d="M68.241,71.587v2.322c0,2.374-8.166,4.285-18.246,4.285
						c-10.07,0-18.234-1.911-18.234-4.285v-2.322c0,2.372,8.164,4.28,18.234,4.28C60.075,75.867,68.241,73.959,68.241,71.587z"/>
				</g>
				<g>
					<defs>
						<path id="SVGID_17_" d="M68.241,71.587v2.322c0,2.374-8.166,4.285-18.246,4.285c-10.07,0-18.234-1.911-18.234-4.285v-2.322
							c0,2.372,8.164,4.28,18.234,4.28C60.075,75.867,68.241,73.959,68.241,71.587z"/>
					</defs>
					<clipPath id="SVGID_18_">
						<use xlink:href="#SVGID_17_"  overflow="visible"/>
					</clipPath>
					<g clip-path="url(#SVGID_18_)" enable-background="new    ">
						
							<linearGradient id="SVGID_19_" gradientUnits="userSpaceOnUse" x1="68.2236" y1="29.166" x2="68.2412" y2="29.166" gradientTransform="matrix(1 0 0 -1 0 102)">
							<stop  offset="0" style="stop-color:#8E3526"/>
							<stop  offset="1" style="stop-color:#C8473A"/>
						</linearGradient>
						<path fill="url(#SVGID_19_)" d="M68.241,71.587v2.322c0,0.06-0.006,0.115-0.018,0.172v-2.329
							C68.235,71.698,68.241,71.642,68.241,71.587"/>
						
							<linearGradient id="SVGID_20_" gradientUnits="userSpaceOnUse" x1="68.1768" y1="28.987" x2="68.2236" y2="28.987" gradientTransform="matrix(1 0 0 -1 0 102)">
							<stop  offset="0" style="stop-color:#8E3526"/>
							<stop  offset="1" style="stop-color:#C8473A"/>
						</linearGradient>
						<path fill="url(#SVGID_20_)" d="M68.224,71.752v2.329c-0.006,0.063-0.027,0.129-0.047,0.193v-2.325
							C68.196,71.882,68.218,71.819,68.224,71.752"/>
						
							<linearGradient id="SVGID_21_" gradientUnits="userSpaceOnUse" x1="68.046" y1="28.7545" x2="68.177" y2="28.7545" gradientTransform="matrix(1 0 0 -1 0 102)">
							<stop  offset="0" style="stop-color:#8E3526"/>
							<stop  offset="1" style="stop-color:#C8473A"/>
						</linearGradient>
						<path fill="url(#SVGID_21_)" d="M68.177,71.949v2.325c-0.033,0.09-0.078,0.179-0.131,0.268v-2.329
							C68.099,72.128,68.144,72.039,68.177,71.949"/>
						
							<linearGradient id="SVGID_22_" gradientUnits="userSpaceOnUse" x1="31.761" y1="27.1095" x2="68.046" y2="27.1095" gradientTransform="matrix(1 0 0 -1 0 102)">
							<stop  offset="0" style="stop-color:#8E3526"/>
							<stop  offset="1" style="stop-color:#C8473A"/>
						</linearGradient>
						<path fill="url(#SVGID_22_)" d="M68.046,72.213v2.329c-1.295,2.072-8.879,3.652-18.051,3.652
							c-10.07,0-18.234-1.911-18.234-4.285v-2.322c0,2.372,8.164,4.28,18.234,4.28C59.167,75.867,66.751,74.286,68.046,72.213"/>
					</g>
				</g>
			</g>
		</g>
	</g>
	<g>
		
			<linearGradient id="SVGID_23_" gradientUnits="userSpaceOnUse" x1="77.4199" y1="69.2775" x2="77.4561" y2="69.2775" gradientTransform="matrix(1 0 0 -1 0 102)">
			<stop  offset="0" style="stop-color:#8E3526"/>
			<stop  offset="1" style="stop-color:#C8473A"/>
		</linearGradient>
		<path fill="url(#SVGID_23_)" d="M77.42,32.668c0.014,0.036,0.021,0.073,0.036,0.109l-0.014-0.063
			C77.436,32.698,77.426,32.683,77.42,32.668z"/>
	</g>
	<g>
		
			<linearGradient id="SVGID_24_" gradientUnits="userSpaceOnUse" x1="77.332" y1="69.5215" x2="77.3906" y2="69.5215" gradientTransform="matrix(1 0 0 -1 0 102)">
			<stop  offset="0" style="stop-color:#8E3526"/>
			<stop  offset="1" style="stop-color:#C8473A"/>
		</linearGradient>
		<path fill="url(#SVGID_24_)" d="M77.391,32.579c-0.022-0.066-0.044-0.135-0.059-0.201C77.346,32.445,77.369,32.513,77.391,32.579z
			"/>
	</g>
	<g>
		<path fill="#E05343" d="M49.995,21.806c15.113,0,27.363,2.877,27.363,6.424c0,3.562-12.25,6.431-27.363,6.431
			c-15.105,0-27.354-2.868-27.354-6.431C22.642,24.683,34.89,21.806,49.995,21.806z"/>
	</g>
	<g>
		<path fill="#E05343" d="M49.995,39.095c14.088,0,25.684-2.49,27.193-5.707l-8.947,38.199c0,2.372-8.166,4.28-18.246,4.28
			c-10.07,0-18.234-1.908-18.234-4.28l-8.949-38.199C24.323,36.604,35.917,39.095,49.995,39.095z"/>
	</g>
</g>
<g>
	<rect x="46.375" y="44.261" fill="#FFFFFF" width="42.181" height="47.489"/>
	<g id="Layer_1_3_">
		<g>
			<g>
				<g enable-background="new    ">
					<g>
						<rect x="49.074" y="87.8" fill="#8D3324" width="36.997" height="1.802"/>
					</g>
				</g>
			</g>
			<linearGradient id="SVGID_25_" gradientUnits="userSpaceOnUse" x1="49.0742" y1="67.1974" x2="86.0707" y2="67.1974">
				<stop  offset="0" style="stop-color:#8D3324"/>
				<stop  offset="1" style="stop-color:#C7473A"/>
			</linearGradient>
			<path fill="url(#SVGID_25_)" d="M49.074,46.595V87.8h36.997V46.595H49.074z M61.398,82.19h-6.886v-6.839h6.886V82.19z
				 M61.398,71.079h-6.886v-5.988h6.886V71.079z M61.398,60.818h-6.886V53.98h6.886V60.818z M80.335,79.626H63.98v-1.709h16.356
				V79.626z M80.335,69.366H63.98v-1.711h16.356V69.366z M80.335,58.253H63.98v-1.709h16.356V58.253z"/>
		</g>
	</g>
	<g>
		<path fill="#DF5243" d="M67.094,51.419c0,0.241-0.085,0.448-0.255,0.618l-6.582,6.582l-1.237,1.237
			c-0.17,0.17-0.375,0.255-0.618,0.255s-0.449-0.085-0.618-0.255l-1.237-1.237l-3.291-3.291c-0.17-0.17-0.255-0.375-0.255-0.618
			s0.085-0.448,0.255-0.618l1.236-1.237c0.17-0.17,0.377-0.255,0.619-0.255c0.241,0,0.448,0.085,0.618,0.255l2.673,2.682
			l5.964-5.973c0.17-0.17,0.377-0.255,0.618-0.255c0.243,0,0.449,0.085,0.619,0.255l1.236,1.236
			C67.009,50.97,67.094,51.177,67.094,51.419z"/>
	</g>
</g>
</svg>
