<?xml version="1.0" encoding="utf-8"?>
<!-- Generator: Adobe Illustrator 19.0.1, SVG Export Plug-In . SVG Version: 6.00 Build 0)  -->
<svg version="1.1" id="Layer_1" xmlns="http://www.w3.org/2000/svg" xmlns:xlink="http://www.w3.org/1999/xlink" x="0px" y="0px" width="100px" height="100px"
	 viewBox="0 0 100 100" enable-background="new 0 0 100 100" xml:space="preserve">
<g id="Layer_96">
	<g>
		
			<linearGradient id="SVGID_1_" gradientUnits="userSpaceOnUse" x1="5.428" y1="71.914" x2="94.573" y2="71.914" gradientTransform="matrix(1 0 0 -1 0 102)">
			<stop  offset="0.2364" style="stop-color:#A8AAAD"/>
			<stop  offset="1" style="stop-color:#D2D3D4"/>
		</linearGradient>
		<rect x="5.428" y="21.916" fill="url(#SVGID_1_)" width="89.145" height="16.34"/>
	</g>
	<g>
		<rect x="5.428" y="38.256" fill="#6E6F72" width="89.145" height="2.508"/>
	</g>
	<g>
		
			<linearGradient id="SVGID_2_" gradientUnits="userSpaceOnUse" x1="5.428" y1="52.1425" x2="94.573" y2="52.1425" gradientTransform="matrix(1 0 0 -1 0 102)">
			<stop  offset="0.2364" style="stop-color:#A8AAAD"/>
			<stop  offset="1" style="stop-color:#D2D3D4"/>
		</linearGradient>
		<path fill="url(#SVGID_2_)" d="M5.428,43.041h89.145v13.633H5.428V43.041z M91.68,53.803v-7.889H8.32v7.889H91.68"/>
	</g>
	<g>
		<rect x="5.428" y="56.674" fill="#6E6F72" width="89.145" height="2.51"/>
	</g>
	<g>
		
			<linearGradient id="SVGID_3_" gradientUnits="userSpaceOnUse" x1="5.428" y1="33.2415" x2="94.573" y2="33.2415" gradientTransform="matrix(1 0 0 -1 0 102)">
			<stop  offset="0.2364" style="stop-color:#A8AAAD"/>
			<stop  offset="1" style="stop-color:#D2D3D4"/>
		</linearGradient>
		<path fill="url(#SVGID_3_)" d="M5.428,61.941h89.145v13.635H5.428V61.941z M91.68,72.689v-7.877H8.32v7.877H91.68"/>
	</g>
	<g>
		<rect x="5.428" y="75.576" fill="#6E6F72" width="89.145" height="2.508"/>
	</g>
</g>
<g>
	<rect x="46.375" y="44.261" fill="#FFFFFF" width="42.181" height="47.489"/>
	<g id="Layer_1_5_">
		<g>
			<g>
				<g enable-background="new    ">
					<g>
						<rect x="49.074" y="87.8" fill="#414042" width="36.997" height="1.802"/>
					</g>
				</g>
			</g>
			<linearGradient id="SVGID_4_" gradientUnits="userSpaceOnUse" x1="49.0742" y1="67.1974" x2="86.0707" y2="67.1974">
				<stop  offset="0" style="stop-color:#414042"/>
				<stop  offset="0.1208" style="stop-color:#4C4C4E"/>
				<stop  offset="0.3379" style="stop-color:#67686A"/>
				<stop  offset="0.6245" style="stop-color:#8D8F91"/>
				<stop  offset="0.67" style="stop-color:#939598"/>
				<stop  offset="1" style="stop-color:#6D6E71"/>
			</linearGradient>
			<path fill="url(#SVGID_4_)" d="M49.074,46.595V87.8h36.997V46.595H49.074z M61.398,82.19h-6.886v-6.839h6.886V82.19z
				 M61.398,71.079h-6.886v-5.988h6.886V71.079z M61.398,60.818h-6.886V53.98h6.886V60.818z M80.335,79.626H63.98v-1.709h16.356
				V79.626z M80.335,69.366H63.98v-1.711h16.356V69.366z M80.335,58.253H63.98v-1.709h16.356V58.253z"/>
		</g>
	</g>
	<g>
		<path fill="#939598" d="M67.094,51.419c0,0.241-0.085,0.448-0.255,0.618l-6.582,6.582l-1.237,1.237
			c-0.17,0.17-0.375,0.255-0.618,0.255s-0.449-0.085-0.618-0.255l-1.237-1.237l-3.291-3.291c-0.17-0.17-0.255-0.375-0.255-0.618
			s0.085-0.448,0.255-0.618l1.236-1.237c0.17-0.17,0.377-0.255,0.619-0.255c0.241,0,0.448,0.085,0.618,0.255l2.673,2.682
			l5.964-5.973c0.17-0.17,0.377-0.255,0.618-0.255c0.243,0,0.449,0.085,0.619,0.255l1.236,1.236
			C67.009,50.97,67.094,51.177,67.094,51.419z"/>
	</g>
</g>
<g id="SNS_TOPIC_1_">
	<g>
		
			<linearGradient id="SVGID_5_" gradientUnits="userSpaceOnUse" x1="5.428" y1="71.914" x2="94.573" y2="71.914" gradientTransform="matrix(1 0 0 -1 0 102)">
			<stop  offset="0" style="stop-color:#D9A839"/>
			<stop  offset="1" style="stop-color:#F9C132"/>
		</linearGradient>
		<rect x="5.428" y="21.916" fill="url(#SVGID_5_)" width="89.145" height="16.34"/>
	</g>
	<g>
		<rect x="5.428" y="38.256" fill="#BE802B" width="89.145" height="2.508"/>
	</g>
	<g>
		
			<linearGradient id="SVGID_6_" gradientUnits="userSpaceOnUse" x1="5.428" y1="52.1425" x2="94.573" y2="52.1425" gradientTransform="matrix(1 0 0 -1 0 102)">
			<stop  offset="0" style="stop-color:#D9A839"/>
			<stop  offset="1" style="stop-color:#F9C132"/>
		</linearGradient>
		<path fill="url(#SVGID_6_)" d="M5.428,43.041h89.145v13.633H5.428V43.041z M91.68,53.803v-7.889H8.32v7.889H91.68"/>
	</g>
	<g>
		<rect x="5.428" y="56.674" fill="#BE802B" width="89.145" height="2.51"/>
	</g>
	<g>
		
			<linearGradient id="SVGID_7_" gradientUnits="userSpaceOnUse" x1="5.428" y1="33.2415" x2="94.573" y2="33.2415" gradientTransform="matrix(1 0 0 -1 0 102)">
			<stop  offset="0" style="stop-color:#D9A839"/>
			<stop  offset="1" style="stop-color:#F9C132"/>
		</linearGradient>
		<path fill="url(#SVGID_7_)" d="M5.428,61.941h89.145v13.635H5.428V61.941z M91.68,72.689v-7.877H8.32v7.877H91.68"/>
	</g>
	<g>
		<rect x="5.428" y="75.576" fill="#BE802B" width="89.145" height="2.508"/>
	</g>
</g>
<g>
	<rect x="46.375" y="44.261" fill="#FFFFFF" width="42.181" height="47.489"/>
	<g id="Layer_1_6_">
		<g>
			<g>
				<g enable-background="new    ">
					<g>
						<rect x="49.074" y="87.8" fill="#BE802B" width="36.997" height="1.802"/>
					</g>
				</g>
			</g>
			<linearGradient id="SVGID_8_" gradientUnits="userSpaceOnUse" x1="49.0742" y1="67.1974" x2="86.0707" y2="67.1974">
				<stop  offset="0" style="stop-color:#D9A73A"/>
				<stop  offset="1" style="stop-color:#FBC131"/>
			</linearGradient>
			<path fill="url(#SVGID_8_)" d="M49.074,46.595V87.8h36.997V46.595H49.074z M61.398,82.19h-6.886v-6.839h6.886V82.19z
				 M61.398,71.079h-6.886v-5.988h6.886V71.079z M61.398,60.818h-6.886V53.98h6.886V60.818z M80.335,79.626H63.98v-1.709h16.356
				V79.626z M80.335,69.366H63.98v-1.711h16.356V69.366z M80.335,58.253H63.98v-1.709h16.356V58.253z"/>
		</g>
	</g>
	<g>
		<path fill="#FBE1B6" d="M67.094,51.419c0,0.241-0.085,0.448-0.255,0.618l-6.582,6.582l-1.237,1.237
			c-0.17,0.17-0.375,0.255-0.618,0.255s-0.449-0.085-0.618-0.255l-1.237-1.237l-3.291-3.291c-0.17-0.17-0.255-0.375-0.255-0.618
			s0.085-0.448,0.255-0.618l1.236-1.237c0.17-0.17,0.377-0.255,0.619-0.255c0.241,0,0.448,0.085,0.618,0.255l2.673,2.682
			l5.964-5.973c0.17-0.17,0.377-0.255,0.618-0.255c0.243,0,0.449,0.085,0.619,0.255l1.236,1.236
			C67.009,50.97,67.094,51.177,67.094,51.419z"/>
	</g>
</g>
</svg>
