<?xml version="1.0" encoding="utf-8"?>
<!-- Generator: Adobe Illustrator 19.0.1, SVG Export Plug-In . SVG Version: 6.00 Build 0)  -->
<svg version="1.1" id="Layer_1" xmlns="http://www.w3.org/2000/svg" xmlns:xlink="http://www.w3.org/1999/xlink" x="0px" y="0px" width="100px" height="100px"
	 viewBox="0 0 100 100" enable-background="new 0 0 100 100" xml:space="preserve">
<g>
	<linearGradient id="SVGID_1_" gradientUnits="userSpaceOnUse" x1="17.1611" y1="48.5449" x2="82.8389" y2="48.5449">
		<stop  offset="0" style="stop-color:#D9A73A"/>
		<stop  offset="1" style="stop-color:#FBC131"/>
	</linearGradient>
	<path fill="url(#SVGID_1_)" d="M17.161,28.682h65.678v39.727H17.161V28.682z"/>
</g>
<g>
	<rect x="17.161" y="68.408" fill="#D28C29" width="65.678" height="2.91"/>
</g>
<g>
	<path fill="#FFFFFF" d="M23.71,55.178l-0.074-12.379l5.431,6.191L23.71,55.178z M40.763,63.988h-6.676V34.029h6.676V63.988z
		 M53.668,63.988h-6.677V34.029h6.677V63.988z M65.509,63.988h-6.678V34.029h6.678V63.988z M71.009,55.189l-0.074-12.375L76.364,49
		L71.009,55.189z"/>
</g>
<g>
	<rect x="46.375" y="44.261" fill="#FFFFFF" width="42.181" height="47.489"/>
	<g id="Layer_1_7_">
		<g>
			<g>
				<g enable-background="new    ">
					<g>
						<rect x="49.074" y="87.8" fill="#BE802B" width="36.997" height="1.802"/>
					</g>
				</g>
			</g>
			<linearGradient id="SVGID_2_" gradientUnits="userSpaceOnUse" x1="49.0742" y1="67.1974" x2="86.0707" y2="67.1974">
				<stop  offset="0" style="stop-color:#D9A73A"/>
				<stop  offset="1" style="stop-color:#FBC131"/>
			</linearGradient>
			<path fill="url(#SVGID_2_)" d="M49.074,46.595V87.8h36.997V46.595H49.074z M61.398,82.19h-6.886v-6.839h6.886V82.19z
				 M61.398,71.079h-6.886v-5.988h6.886V71.079z M61.398,60.818h-6.886V53.98h6.886V60.818z M80.335,79.626H63.98v-1.709h16.356
				V79.626z M80.335,69.366H63.98v-1.711h16.356V69.366z M80.335,58.253H63.98v-1.709h16.356V58.253z"/>
		</g>
	</g>
	<g>
		<path fill="#FBE1B6" d="M67.094,51.419c0,0.241-0.085,0.448-0.255,0.618l-6.582,6.582l-1.237,1.237
			c-0.17,0.17-0.375,0.255-0.618,0.255s-0.449-0.085-0.618-0.255l-1.237-1.237l-3.291-3.291c-0.17-0.17-0.255-0.375-0.255-0.618
			s0.085-0.448,0.255-0.618l1.236-1.237c0.17-0.17,0.377-0.255,0.619-0.255c0.241,0,0.448,0.085,0.618,0.255l2.673,2.682
			l5.964-5.973c0.17-0.17,0.377-0.255,0.618-0.255c0.243,0,0.449,0.085,0.619,0.255l1.236,1.236
			C67.009,50.97,67.094,51.177,67.094,51.419z"/>
	</g>
</g>
</svg>
