<?xml version="1.0" encoding="utf-8"?>
<!-- Generator: Adobe Illustrator 19.1.0, SVG Export Plug-In . SVG Version: 6.00 Build 0)  -->
<!DOCTYPE svg PUBLIC "-//W3C//DTD SVG 1.1//EN" "http://www.w3.org/Graphics/SVG/1.1/DTD/svg11.dtd" [
	<!ENTITY ns_extend "http://ns.adobe.com/Extensibility/1.0/">
	<!ENTITY ns_ai "http://ns.adobe.com/AdobeIllustrator/10.0/">
	<!ENTITY ns_graphs "http://ns.adobe.com/Graphs/1.0/">
	<!ENTITY ns_vars "http://ns.adobe.com/Variables/1.0/">
	<!ENTITY ns_imrep "http://ns.adobe.com/ImageReplacement/1.0/">
	<!ENTITY ns_sfw "http://ns.adobe.com/SaveForWeb/1.0/">
	<!ENTITY ns_custom "http://ns.adobe.com/GenericCustomNamespace/1.0/">
	<!ENTITY ns_adobe_xpath "http://ns.adobe.com/XPath/1.0/">
]>
<svg version="1.1" id="Layer_3" xmlns:x="&ns_extend;" xmlns:i="&ns_ai;" xmlns:graph="&ns_graphs;"
	 xmlns="http://www.w3.org/2000/svg" xmlns:xlink="http://www.w3.org/1999/xlink" x="0px" y="0px" width="100px" height="100px" viewBox="-247 370.9 100 100"
	 style="enable-background:new -247 370.9 100 100;" xml:space="preserve">
<style type="text/css">
	.st0{fill:#4F632D;}
	.st1{fill:#789B40;}
	.st2{fill:#779C3E;}
	.st3{fill:#9FCD4C;}
	.st4{fill:#FFFFFF;}
</style>
	<g i:extraneous="self">
		<g>
			<g>
				<polygon class="st0" points="-212.9,390 -196.7,382.1 -196.5,385.4 -196.7,422.4 -207.6,425.3 -207.7,429.1 -212.5,428.6 				
					"/>
			</g>
			<g>
				<polygon class="st1" points="-180.5,389.9 -196.7,382.1 -196.7,385.2 -196.7,422.5 -185.4,424.8 -185.7,429.9 -180.8,428.6 				
					"/>
			</g>
			<g>
				<polygon class="st2" points="-217.4,420.5 -217.1,427.4 -220.1,429.7 -220.5,421.4 				"/>
			</g>
			<g>
				<path class="st3" d="M-221,429.3l3.8-2l10.3,2c0,0-0.6,4.8-0.8,4.4C-208,433.5-221,429.3-221,429.3z"/>
			</g>
			<g>
				<polygon class="st3" points="-226.3,420.9 -223.6,419.9 -217.4,420.5 -220.5,422.2 -224.2,422.5 				"/>
			</g>
			<g>
				<polygon class="st3" points="-167.3,420.9 -169,420 -176.2,420.8 -174.2,422.6 -168.4,422.5 				"/>
			</g>
			<g>
				<path class="st3" d="M-186.1,429.6c0.2,0,10-2.3,10-2.3l4.9,3.1l-15.2,3.7L-186.1,429.6z"/>
			</g>
			<g>
				<polygon class="st0" points="-176.1,420.8 -173.7,422.1 -173.6,429 -176.1,427.3 				"/>
			</g>
			<g>
				<polygon class="st3" points="-196.7,426.9 -208.3,424.5 -196.7,422.3 -185.1,424.5 				"/>
			</g>
			<g>
				<polygon class="st1" points="-196.7,426.7 -185.1,424.5 -185.1,431.9 -174.1,428.6 -174.1,421.9 -167.3,420.9 -167.2,438.4 
					-196.8,453.2 				"/>
			</g>
			<g>
				<polygon class="st0" points="-196.7,426.7 -208.4,424.5 -208.4,431.9 -219.4,428.6 -219.7,421.8 -226.3,420.8 -226.3,438.4 
					-196.8,453.2 				"/>
			</g>
		</g>
		<g>
			<g>
				<g>
					<path class="st4" d="M-162.3,428.1c0.9,0,1.6,0.7,1.6,1.6v19.4c0,0.9-0.7,1.6-1.6,1.6h-34.8c-0.9,0-1.6-0.7-1.6-1.6v-19.4
						c0-0.9,0.7-1.6,1.6-1.6L-162.3,428.1 M-162.3,425.6h-35c-2.2,0-4.1,1.8-4.1,4.1v19.5c0,2.3,1.9,4.1,4.1,4.1h34.9
						c2.3,0,4.2-1.9,4.2-4.2v-19.4C-158.1,427.4-160,425.6-162.3,425.6L-162.3,425.6z"/>
				</g>
			</g>
			<path class="st0" d="M-160.7,449.1l-37.8-0.1c-0.5,0-1.1-0.4-1.1-0.9v1.4c0,0.9,0.8,1.7,1.7,1.7h36.3c0.9,0,1.7-0.8,1.7-1.7v-1.6
				C-159.8,448.4-160.2,449.1-160.7,449.1z"/>
			<path class="st2" d="M-161.8,427.4h-35.7c-1.1,0-2.1,0.9-2.1,2.1v18.8c0,0.7,0.6,1.3,1.3,1.3h37.3c0.7,0,1.3-0.6,1.3-1.3v-18.8
				C-159.8,428.3-160.7,427.4-161.8,427.4z M-161.5,444.5c0,1.8-1.5,3.3-3.3,3.3h-31.6c-0.8,0-1.5-0.7-1.5-1.5v-15.7
				c0-0.8,0.7-1.5,1.5-1.5h33.4c0.8,0,1.5,0.7,1.5,1.5V444.5L-161.5,444.5z"/>
			<path class="st4" d="M-162.9,429.1h-33.5c-0.8,0-1.4,0.6-1.4,1.4v15.9c0,0.8,0.6,1.4,1.4,1.4h33.3c0.9,0,1.6-0.7,1.6-1.6v-15.7
				C-161.5,429.7-162.1,429.1-162.9,429.1z M-181.6,444.1h-13v-2.7l4.7-2.2c0,0,0.4,0.2,0.9,0.4c-1.2-0.6-2.1-2.2-2.1-4
				c0-2.4,1.4-3.5,3.1-3.5s3.1,1.1,3.1,3.5c0,1.8-0.8,3.3-2,4c0.5-0.2,0.9-0.4,0.9-0.4l4.4,2.3
				C-181.6,441.4-181.6,444.1-181.6,444.1z M-164.3,443.2h-13.9v-1.7h13.9C-164.3,441.6-164.3,443.2-164.3,443.2z M-164.3,439h-13.9
				v-1.7h13.9C-164.3,437.3-164.3,439-164.3,439z M-164.3,434.7h-13.9V433h13.9C-164.3,433-164.3,434.7-164.3,434.7z"/>
			<rect x="-178.2" y="433" class="st2" width="13.9" height="1.7"/>
			<rect x="-178.2" y="437.3" class="st2" width="13.9" height="1.7"/>
			<rect x="-178.2" y="441.6" class="st2" width="13.9" height="1.7"/>
			<path class="st2" d="M-186.9,439.5c1.1-0.6,2-2.2,2-4c0-2.4-1.4-3.5-3.1-3.5s-3.1,1.1-3.1,3.5c0,1.9,0.9,3.5,2.1,4
				c-0.5-0.2-0.9-0.4-0.9-0.4l-4.7,2.2v2.7h13v-2.7l-4.4-2.3C-186,439-186.4,439.3-186.9,439.5z"/>
		</g>
	</g>
</svg>
