<?xml version="1.0" encoding="utf-8"?>
<!-- Generator: Adobe Illustrator 19.1.0, SVG Export Plug-In . SVG Version: 6.00 Build 0)  -->
<!DOCTYPE svg PUBLIC "-//W3C//DTD SVG 1.1//EN" "http://www.w3.org/Graphics/SVG/1.1/DTD/svg11.dtd" [
	<!ENTITY ns_extend "http://ns.adobe.com/Extensibility/1.0/">
	<!ENTITY ns_ai "http://ns.adobe.com/AdobeIllustrator/10.0/">
	<!ENTITY ns_graphs "http://ns.adobe.com/Graphs/1.0/">
	<!ENTITY ns_vars "http://ns.adobe.com/Variables/1.0/">
	<!ENTITY ns_imrep "http://ns.adobe.com/ImageReplacement/1.0/">
	<!ENTITY ns_sfw "http://ns.adobe.com/SaveForWeb/1.0/">
	<!ENTITY ns_custom "http://ns.adobe.com/GenericCustomNamespace/1.0/">
	<!ENTITY ns_adobe_xpath "http://ns.adobe.com/XPath/1.0/">
]>
<svg version="1.1" id="Layer_3" xmlns:x="&ns_extend;" xmlns:i="&ns_ai;" xmlns:graph="&ns_graphs;"
	 xmlns="http://www.w3.org/2000/svg" xmlns:xlink="http://www.w3.org/1999/xlink" x="0px" y="0px" width="100px" height="100px" viewBox="-247 370.9 100 100"
	 style="enable-background:new -247 370.9 100 100;" xml:space="preserve">
<style type="text/css">
	.st0{fill:#4F632D;}
	.st1{fill:#789B40;}
	.st2{fill:#779C3E;}
	.st3{fill:#9FCD4C;}
	.st4{fill:#FFFFFF;}
</style>
	<g i:extraneous="self">
		<g>
			<g>
				<polygon class="st0" points="-212.9,389.7 -196.7,381.8 -196.5,382.9 -196.7,422.1 -207.6,425 -207.7,428.8 -212.6,428.3 				
					"/>
			</g>
			<g>
				<polygon class="st1" points="-180.5,389.7 -196.7,381.8 -196.7,422.2 -185.4,424.5 -185.7,429.6 -180.9,428.3 				"/>
			</g>
			<g>
				<polygon class="st2" points="-217.4,420.3 -217.3,426.7 -220.1,429.4 -220.5,421.1 				"/>
			</g>
			<g>
				<path class="st3" d="M-220.4,429.1l3.1-2.4l10.5,2.4c0,0-0.6,4.8-0.8,4.4C-208,433.2-220.4,429.1-220.4,429.1z"/>
			</g>
			<g>
				<polygon class="st3" points="-226.2,420.6 -223.5,419.6 -217.3,420.3 -220.4,421.9 -224.2,422.2 				"/>
			</g>
			<g>
				<polygon class="st3" points="-167.3,420.6 -169,419.7 -176.2,420.5 -173.2,421.8 -168.4,422.2 				"/>
			</g>
			<g>
				<path class="st3" d="M-186.1,429.3c0.2,0,10-2.3,10-2.3l4.9,3.1l-15.2,3.7L-186.1,429.3z"/>
			</g>
			<g>
				<polygon class="st0" points="-176.2,420.5 -173.7,421.6 -173.6,428.7 -176.2,427.1 				"/>
			</g>
			<g>
				<polygon class="st3" points="-196.7,426.6 -208.3,424.2 -196.7,422 -185.2,424.2 				"/>
			</g>
			<g>
				<polygon class="st1" points="-196.7,426.5 -185.2,424.2 -185.2,431.6 -174.1,428.3 -173.8,421.5 -167.3,420.6 -167.2,438.1 
					-196.8,452.9 				"/>
			</g>
			<g>
				<polygon class="st0" points="-196.7,426.5 -208.3,424.2 -208.3,431.6 -219.4,428.3 -219.7,421.5 -226.2,420.6 -226.3,438.1 
					-196.8,452.9 				"/>
			</g>
		</g>
		<g>
			<g>
				<g>
					<path class="st4" d="M-179.8,458.9c-11.9,0-21.6-9.7-21.6-21.6c0-11.9,9.7-21.6,21.6-21.6s21.6,9.7,21.6,21.6
						C-158.2,449.2-167.9,458.9-179.8,458.9z"/>
				</g>
			</g>
			<g>
				<g>
					<path class="st2" d="M-184.8,450.5c-0.7,0-1.3-0.3-1.7-0.7c-0.1-0.1-3.5-3.5-5.1-6.2c-0.7-1.2-0.3-2.7,0.8-3.4
						c1.2-0.7,2.7-0.3,3.4,0.8c0.6,0.9,1.5,2.1,2.3,3.1c1.4-2.1,3.4-5,5.1-7.2c2.8-3.8,8.4-9.9,8.7-10.2c0.9-1,2.5-1.1,3.5-0.1
						c1,0.9,1.1,2.5,0.1,3.5c-0.1,0.1-5.7,6.2-8.3,9.8c-2.7,3.7-6.6,9.6-6.7,9.6c-0.4,0.6-1.1,1-1.8,1.1
						C-184.6,450.5-184.7,450.5-184.8,450.5z"/>
				</g>
			</g>
		</g>
	</g>
</svg>
