<?xml version="1.0" encoding="utf-8"?>
<!-- Generator: Adobe Illustrator 19.1.0, SVG Export Plug-In . SVG Version: 6.00 Build 0)  -->
<!DOCTYPE svg PUBLIC "-//W3C//DTD SVG 1.1//EN" "http://www.w3.org/Graphics/SVG/1.1/DTD/svg11.dtd" [
	<!ENTITY ns_extend "http://ns.adobe.com/Extensibility/1.0/">
	<!ENTITY ns_ai "http://ns.adobe.com/AdobeIllustrator/10.0/">
	<!ENTITY ns_graphs "http://ns.adobe.com/Graphs/1.0/">
	<!ENTITY ns_vars "http://ns.adobe.com/Variables/1.0/">
	<!ENTITY ns_imrep "http://ns.adobe.com/ImageReplacement/1.0/">
	<!ENTITY ns_sfw "http://ns.adobe.com/SaveForWeb/1.0/">
	<!ENTITY ns_custom "http://ns.adobe.com/GenericCustomNamespace/1.0/">
	<!ENTITY ns_adobe_xpath "http://ns.adobe.com/XPath/1.0/">
]>
<svg version="1.1" id="Layer_3" xmlns:x="&ns_extend;" xmlns:i="&ns_ai;" xmlns:graph="&ns_graphs;"
	 xmlns="http://www.w3.org/2000/svg" xmlns:xlink="http://www.w3.org/1999/xlink" x="0px" y="0px" width="100px" height="100px" viewBox="-247 370.9 100 100"
	 style="enable-background:new -247 370.9 100 100;" xml:space="preserve">
<style type="text/css">
	.st0{fill:#4F632D;}
	.st1{fill:#789B40;}
	.st2{fill:#779C3E;}
	.st3{fill:#9FCD4C;}
	.st4{fill:#FFFFFF;}
	.st5{fill:none;}
</style>
	<g i:extraneous="self">
		<g>
			<g>
				<polygon class="st0" points="-213,389.6 -196.8,381.7 -196.7,382.6 -196.8,422 -207.7,424.9 -207.8,428.8 -212.7,428.3 				"/>
			</g>
			<g>
				<polygon class="st1" points="-180.6,389.6 -196.8,381.7 -196.8,422.2 -185.5,424.4 -185.8,429.6 -180.9,428.3 				"/>
			</g>
			<g>
				<polygon class="st2" points="-217.6,420.2 -217.3,427 -220.7,429.1 -220.6,421 				"/>
			</g>
			<g>
				<path class="st3" d="M-221,429.1l3.7-2.1l10.3,2.1c0,0-0.6,4.8-0.8,4.4C-208.1,433.2-221,429.1-221,429.1z"/>
			</g>
			<g>
				<polygon class="st3" points="-226.3,420.5 -223.7,419.5 -217.5,420.2 -220.6,421.9 -224.3,422.2 				"/>
			</g>
			<g>
				<polygon class="st3" points="-167.4,420.5 -169.1,419.6 -176.2,420.5 -173.2,421.7 -168.4,422.2 				"/>
			</g>
			<g>
				<path class="st3" d="M-186.2,429.3c0.2,0,10-2.3,10-2.3l4.9,3.1l-15.2,3.7L-186.2,429.3z"/>
			</g>
			<g>
				<polygon class="st0" points="-176.2,420.5 -173.8,421.5 -173.6,428.6 -176.2,427 				"/>
			</g>
			<g>
				<polygon class="st3" points="-196.8,426.6 -208.4,424.2 -196.8,422 -185.2,424.2 				"/>
			</g>
			<g>
				<polygon class="st1" points="-196.8,426.4 -185.2,424.2 -185.2,431.6 -174.1,428.3 -173.9,421.4 -167.4,420.5 -167.3,438.1 
					-196.8,453 				"/>
			</g>
			<g>
				<polygon class="st0" points="-196.8,426.4 -208.5,424.2 -208.5,431.6 -219.5,428.3 -219.8,421.4 -226.3,420.5 -226.4,438.1 
					-196.8,453 				"/>
			</g>
		</g>
		<g>
			<g>
				<circle class="st4" cx="-179.8" cy="437.3" r="21.6"/>
			</g>
			<g>
				<g>
					<path class="st4" d="M-169.1,443.5h-0.2v0h-21.4v0c-3.2-0.1-5.7-2.6-5.7-5.8c0-2.9,2.2-5.4,5.1-5.8l1-0.1l0.1-1
						c0.3-4.5,4-8,8.5-8c3.3,0,6.3,1.9,7.8,4.9l0.5,1l1.1-0.4c0.3-0.1,0.5-0.1,0.8-0.1c1.3,0,2.4,1.1,2.5,2.4l0,1l1,0.2
						c2.8,0.5,4.8,3,4.8,5.8C-163.4,440.8-165.9,443.4-169.1,443.5z"/>
				</g>
				<g>
					<path class="st2" d="M-181.7,422.8c3.3,0,6.3,1.9,7.8,4.9l0.5,1l1.1-0.4c0.3-0.1,0.5-0.1,0.8-0.1c1.3,0,2.4,1.1,2.5,2.4l0,1
						l1,0.2c2.8,0.5,4.8,3,4.8,5.8c0,3.2-2.5,5.8-5.7,5.9h-0.2v0h-21.4v0c-3.2-0.1-5.7-2.6-5.7-5.8c0-2.9,2.2-5.4,5.1-5.8l1-0.1
						l0.1-1C-190,426.3-186.2,422.8-181.7,422.8 M-181.7,420.5c-5.4,0-10,4-10.8,9.3c-3.6,0.9-6.2,4.1-6.2,7.9c0,4.4,3.6,8.1,8,8.1
						l2.4,0v-0.1h16.7l2.3,0h0.2h0h0c4.5-0.2,8-3.8,8-8.3c0-3.7-2.4-6.9-5.9-7.9c-0.4-2.2-2.4-3.8-4.7-3.8c-0.2,0-0.4,0-0.7,0
						C-174.2,422.6-177.8,420.5-181.7,420.5L-181.7,420.5z"/>
				</g>
			</g>
			<g>
				<rect x="-192.2" y="440.7" class="st4" width="25.5" height="5.7"/>
			</g>
			<g>
				<path class="st5" d="M-187.3,441.8c0.5,0,0.9-0.3,1.1-0.7c-0.2-0.4-0.6-0.7-1.1-0.7c-0.5,0-0.9,0.3-1.1,0.7
					C-188.2,441.5-187.8,441.8-187.3,441.8z"/>
			</g>
			<g>
				<path class="st5" d="M-171.7,440.4c-0.5,0-0.9,0.3-1.1,0.7c0.2,0.4,0.6,0.7,1.1,0.7c0.5,0,0.9-0.3,1.1-0.7
					C-170.8,440.6-171.3,440.4-171.7,440.4z"/>
			</g>
			<g>
				<path class="st0" d="M-166.8,445.5v1.1c3.3-1.1,5.7-4.2,5.7-7.8c0-0.2,0-0.4,0-0.5C-161.3,441.6-163.6,444.4-166.8,445.5z"/>
			</g>
			<g>
				<path class="st0" d="M-198.7,438.2c0,0.2,0,0.4,0,0.5c0,3.9,2.8,7.2,6.5,8v-1.1C-195.8,444.9-198.4,441.9-198.7,438.2z"/>
			</g>
			<g>
				<path class="st0" d="M-179.6,440.4c0.5,0,1,0.3,1.2,0.7c0.1-0.1,0.1-0.2,0.1-0.4c0-0.1,0-0.1,0-0.2c0-0.7-0.6-1.3-1.3-1.3
					s-1.3,0.6-1.3,1.3c0,0.1,0,0.1,0,0.2c0,0.1,0.1,0.3,0.1,0.4C-180.5,440.7-180.1,440.4-179.6,440.4z"/>
			</g>
			<g>
				<rect x="-182.8" y="453.7" class="st0" width="6.2" height="1.1"/>
			</g>
			<g>
				<path class="st0" d="M-170.5,440.6c0-0.7-0.6-1.3-1.3-1.3c-0.7,0-1.3,0.6-1.3,1.3c0,0.1,0,0.1,0,0.2c0,0.1,0.1,0.2,0.1,0.4
					c0.2-0.4,0.6-0.7,1.1-0.7c0.5,0,0.9,0.3,1.1,0.7c0.1-0.1,0.1-0.2,0.1-0.4C-170.5,440.7-170.5,440.6-170.5,440.6z"/>
			</g>
			<g>
				<path class="st0" d="M-169.2,453.7h-5.8c-0.1,0-0.1-0.1-0.1-0.1v1.1c0,0.1,0.1,0.1,0.1,0.1h5.8c0.4,0,0.7-0.3,0.7-0.7V453
					C-168.5,453.3-168.8,453.7-169.2,453.7z"/>
			</g>
			<g>
				<path class="st0" d="M-190.5,452.6v1.1c0,0.6,0.5,1.1,1.1,1.1h5.2v-1.1h-5.2C-190,453.7-190.5,453.2-190.5,452.6z"/>
			</g>
			<g>
				<path class="st0" d="M-187.3,440.4c0.5,0,0.9,0.3,1.1,0.7c0.1-0.1,0.1-0.2,0.1-0.4c0-0.1,0-0.1,0-0.2c0-0.7-0.6-1.3-1.3-1.3
					c-0.7,0-1.3,0.6-1.3,1.3c0,0.1,0,0.1,0,0.2c0,0.1,0.1,0.3,0.1,0.4C-188.2,440.7-187.8,440.4-187.3,440.4z"/>
			</g>
			<g>
				<path class="st5" d="M-166.8,442.9L-166.8,442.9c0.7-0.4,1.4-0.8,1.9-1.5C-165.4,442.1-166,442.6-166.8,442.9z"/>
			</g>
			<g>
				<path class="st0" d="M-172.2,428.3c-0.1,0-0.1,0-0.2,0.1l-1.1,0.4l1.1-0.4C-172.4,428.3-172.3,428.3-172.2,428.3z"/>
			</g>
			<g>
				<g>
					<g>
						<path class="st1" d="M-182.8,434.5v19.2h6.2v-19.2H-182.8z M-179.6,441.8c-0.7,0-1.3-0.6-1.3-1.3s0.6-1.3,1.3-1.3
							c0.7,0,1.3,0.6,1.3,1.3C-178.3,441.2-178.9,441.8-179.6,441.8z"/>
					</g>
				</g>
				<g>
					<g>
						<path class="st1" d="M-169.2,434.5h-5.8c-0.1,0-0.1,0.1-0.1,0.1v18.9c0,0.1,0.1,0.1,0.1,0.1h5.8c0.4,0,0.7-0.3,0.7-0.7v-17.8
							C-168.5,434.8-168.8,434.5-169.2,434.5z M-171.7,441.8c-0.7,0-1.3-0.6-1.3-1.3s0.6-1.3,1.3-1.3c0.7,0,1.3,0.6,1.3,1.3
							S-171.1,441.8-171.7,441.8z"/>
					</g>
				</g>
				<g>
					<g>
						<path class="st1" d="M-189.4,434.5c-0.6,0-1.1,0.5-1.1,1.1v17.1c0,0.6,0.5,1.1,1.1,1.1h5.2v-19.2L-189.4,434.5L-189.4,434.5z
							 M-187.3,441.8c-0.7,0-1.3-0.6-1.3-1.3s0.6-1.3,1.3-1.3c0.7,0,1.3,0.6,1.3,1.3S-186.6,441.8-187.3,441.8z"/>
					</g>
				</g>
			</g>
		</g>
	</g>
</svg>
