<?xml version="1.0" encoding="utf-8"?>
<!-- Generator: Adobe Illustrator 19.1.0, SVG Export Plug-In . SVG Version: 6.00 Build 0)  -->
<!DOCTYPE svg PUBLIC "-//W3C//DTD SVG 1.1//EN" "http://www.w3.org/Graphics/SVG/1.1/DTD/svg11.dtd" [
	<!ENTITY ns_extend "http://ns.adobe.com/Extensibility/1.0/">
	<!ENTITY ns_ai "http://ns.adobe.com/AdobeIllustrator/10.0/">
	<!ENTITY ns_graphs "http://ns.adobe.com/Graphs/1.0/">
	<!ENTITY ns_vars "http://ns.adobe.com/Variables/1.0/">
	<!ENTITY ns_imrep "http://ns.adobe.com/ImageReplacement/1.0/">
	<!ENTITY ns_sfw "http://ns.adobe.com/SaveForWeb/1.0/">
	<!ENTITY ns_custom "http://ns.adobe.com/GenericCustomNamespace/1.0/">
	<!ENTITY ns_adobe_xpath "http://ns.adobe.com/XPath/1.0/">
]>
<svg version="1.1" id="Layer_3" xmlns:x="&ns_extend;" xmlns:i="&ns_ai;" xmlns:graph="&ns_graphs;"
	 xmlns="http://www.w3.org/2000/svg" xmlns:xlink="http://www.w3.org/1999/xlink" x="0px" y="0px" width="100px" height="100px" viewBox="-247 370.9 100 100"
	 style="enable-background:new -247 370.9 100 100;" xml:space="preserve">
<style type="text/css">
	.st0{fill:#4F632D;}
	.st1{fill:#789B40;}
	.st2{fill:#779C3E;}
	.st3{fill:#9FCD4C;}
	.st4{fill:#FFFFFF;}
</style>
	<g i:extraneous="self">
		<g>
			<g>
				<polygon class="st0" points="-213,389.6 -196.8,381.7 -196.7,382.6 -196.8,422 -207.7,424.9 -207.8,428.8 -212.7,428.3 				"/>
			</g>
			<g>
				<polygon class="st1" points="-180.6,389.6 -196.8,381.7 -196.8,422.2 -185.5,424.4 -185.8,429.6 -180.9,428.3 				"/>
			</g>
			<g>
				<polygon class="st2" points="-217.6,420.2 -217.3,427 -220.7,429.1 -220.6,421 				"/>
			</g>
			<g>
				<path class="st3" d="M-221,429.1l3.7-2.1l10.3,2.1c0,0-0.6,4.8-0.8,4.4C-208.1,433.2-221,429.1-221,429.1z"/>
			</g>
			<g>
				<polygon class="st3" points="-226.3,420.5 -223.7,419.5 -217.5,420.2 -220.6,421.9 -224.3,422.2 				"/>
			</g>
			<g>
				<polygon class="st3" points="-167.4,420.5 -169.1,419.6 -176.2,420.5 -173.2,421.7 -168.4,422.2 				"/>
			</g>
			<g>
				<path class="st3" d="M-186.2,429.3c0.2,0,10-2.3,10-2.3l4.9,3.1l-15.2,3.7L-186.2,429.3z"/>
			</g>
			<g>
				<polygon class="st0" points="-176.2,420.5 -173.8,421.5 -173.6,428.6 -176.2,427 				"/>
			</g>
			<g>
				<polygon class="st3" points="-196.8,426.6 -208.4,424.2 -196.8,422 -185.2,424.2 				"/>
			</g>
			<g>
				<polygon class="st1" points="-196.8,426.4 -185.2,424.2 -185.2,431.6 -174.1,428.3 -173.9,421.4 -167.4,420.5 -167.3,438.1 
					-196.8,453 				"/>
			</g>
			<g>
				<polygon class="st0" points="-196.8,426.4 -208.5,424.2 -208.5,431.6 -219.5,428.3 -219.8,421.4 -226.3,420.5 -226.4,438.1 
					-196.8,453 				"/>
			</g>
		</g>
		<g>
			<g>
				<circle class="st4" cx="-179.7" cy="437.4" r="21.5"/>
			</g>
			<g>
				<g>
					<path class="st2" d="M-171.2,421.6h-14.9c-1.6,0-3,1.3-3,3v12.1c0,1.7-1.3,2.7-2.4,3.6c0,0-0.1,0.1-0.1,0.1
						c0,0-0.8,1.1-0.8,1.7v7.6c0,1.3,1.1,2.4,2.4,2.4h18.8c1.6,0,3-1.3,3-3v-24.5C-168.3,422.9-169.6,421.6-171.2,421.6z"/>
				</g>
				<g>
					<g>
						<path class="st0" d="M-171.2,450.2H-190c-1.3,0-2.4-1.1-2.4-2.4v1.8c0,1.3,1.1,2.4,2.4,2.4h18.8c1.6,0,3-1.3,3-3v-1.8
							C-168.3,448.9-169.6,450.2-171.2,450.2z"/>
					</g>
				</g>
				<g>
					<g>
						<rect x="-173.2" y="423.8" class="st4" width="3.1" height="6"/>
					</g>
					<g>
						<rect x="-177.8" y="423.8" class="st4" width="3.1" height="6"/>
					</g>
					<g>
						<rect x="-182.5" y="423.8" class="st4" width="3.1" height="6"/>
					</g>
					<g>
						<rect x="-187.2" y="423.8" class="st4" width="3.1" height="6"/>
					</g>
				</g>
			</g>
		</g>
	</g>
</svg>
